M48
; DRILL file {KiCad 7.0.2-6a45011f42~172~ubuntu20.04.1} date Sun 23 Apr 2023 03:23:24 PM WIB
; FORMAT={-:-/ absolute / inch / decimal}
; #@! TF.CreationDate,2023-04-23T15:23:24+07:00
; #@! TF.GenerationSoftware,Kicad,Pcbnew,7.0.2-6a45011f42~172~ubuntu20.04.1
; #@! TF.FileFunction,Plated,1,4,PTH
FMAT,2
INCH
; #@! TA.AperFunction,Plated,PTH,ComponentDrill
T1C0.0118
; #@! TA.AperFunction,Plated,PTH,ViaDrill
T2C0.0157
; #@! TA.AperFunction,Plated,PTH,ComponentDrill
T3C0.0362
; #@! TA.AperFunction,Plated,PTH,ComponentDrill
T4C0.0394
; #@! TA.AperFunction,Plated,PTH,ComponentDrill
T5C0.0917
%
G90
G05
T1
X5.5294Y-3.8372
X5.5294Y-3.8766
X5.5294Y-3.916
X5.5294Y-3.9554
X5.5294Y-3.9947
X5.5757Y-3.8372
X5.5757Y-3.8766
X5.5757Y-3.916
X5.5757Y-3.9554
X5.5757Y-3.9947
X5.622Y-3.8372
X5.622Y-3.8766
X5.622Y-3.916
X5.622Y-3.9554
X5.622Y-3.9947
X5.6682Y-3.8372
X5.6682Y-3.8766
X5.6682Y-3.916
X5.6682Y-3.9554
X5.6682Y-3.9947
X5.7145Y-3.8372
X5.7145Y-3.8766
X5.7145Y-3.916
X5.7145Y-3.9554
X5.7145Y-3.9947
T2
X4.687Y-3.316
X4.687Y-3.416
X4.687Y-3.516
X4.687Y-3.616
X4.687Y-3.716
X4.687Y-3.816
X4.687Y-3.916
X4.687Y-4.016
X4.687Y-4.116
X4.687Y-4.216
X4.687Y-4.816
X4.687Y-4.916
X4.687Y-5.016
X4.687Y-5.116
X4.983Y-3.073
X5.051Y-3.783
X5.06Y-4.072
X5.071Y-4.811
X5.078Y-2.801
X5.093Y-4.408
X5.107Y-5.107
X5.162Y-2.778
X5.165Y-3.529
X5.2526Y-4.5796
X5.2526Y-4.619
X5.2526Y-4.6584
X5.292Y-4.5796
X5.292Y-4.619
X5.292Y-4.6584
X5.325Y-3.774
X5.341Y-3.211
X5.342Y-2.726
X5.375Y-5.008
X5.378Y-4.059
X5.4045Y-3.7655
X5.429Y-3.558
X5.435Y-4.093
X5.443Y-3.735
X5.463Y-3.558
X5.465Y-4.872
X5.487Y-3.662
X5.501Y-5.008
X5.5013Y-3.8077
X5.503Y-3.176
X5.5137Y-4.1767
X5.517Y-3.043
X5.541Y-4.245
X5.566Y-3.656
X5.616Y-4.466
X5.623Y-2.849
X5.6245Y-5.105
X5.631Y-3.051
X5.631Y-3.222
X5.638Y-3.656
X5.664Y-4.466
X5.674Y-3.465
X5.709Y-3.222
X5.71Y-3.051
X5.722Y-4.858
X5.727Y-3.514
X5.741Y-3.1
X5.744Y-3.177
X5.75Y-4.241
X5.752Y-3.343
X5.755Y-4.767
X5.761Y-4.59
X5.799Y-3.129
X5.8135Y-5.054
X5.818Y-4.092
X5.824Y-3.343
X5.8287Y-4.0333
X5.838Y-3.752
X5.863Y-4.528
X5.874Y-3.596
X5.915Y-2.724
X5.915Y-3.209
X5.932Y-3.608
X5.933Y-3.407
X5.952Y-4.113
X5.97Y-4.036
X5.995Y-3.758
X5.999Y-3.405
X6.004Y-3.605
X6.0105Y-4.954
X6.0107Y-5.1388
X6.049Y-3.554
X6.051Y-4.282
X6.054Y-3.461
X6.056Y-3.321
X6.061Y-2.939
X6.065Y-2.781
X6.073Y-4.637
X6.1493Y-2.781
X6.227Y-4.397
X6.235Y-4.937
X6.236Y-3.121
X6.277Y-4.306
X6.28Y-2.839
X6.46Y-3.166
X6.462Y-3.275
X6.462Y-3.375
X6.462Y-3.475
X6.485Y-3.616
X6.485Y-3.716
X6.485Y-3.816
X6.485Y-3.916
X6.485Y-4.016
X6.485Y-4.116
X6.485Y-4.216
X6.485Y-4.316
X6.485Y-4.416
X6.485Y-4.516
X6.485Y-4.616
X6.485Y-4.716
X6.485Y-4.816
X6.485Y-4.916
X6.56Y-3.216
X6.56Y-3.315
X6.56Y-3.417
T3
X5.5716Y-3.097
X5.5716Y-3.1757
X5.67Y-3.097
X5.67Y-3.1757
T4
X4.722Y-2.9662
X4.722Y-3.0662
X4.722Y-3.1662
X4.722Y-3.2662
X4.722Y-3.3662
X4.722Y-3.4662
X4.722Y-3.5662
X4.722Y-3.6662
X4.722Y-3.7662
X4.722Y-3.8662
X4.722Y-3.9662
X4.722Y-4.0662
X4.722Y-4.1662
X4.722Y-4.2662
X4.722Y-4.3662
X4.722Y-4.4662
X4.722Y-4.5662
X4.722Y-4.6662
X4.722Y-4.7662
X4.722Y-4.8662
X4.722Y-4.9662
X4.722Y-5.0662
X5.0354Y-5.2924
X5.1354Y-5.2924
X6.1047Y-5.2924
X6.2047Y-5.2924
X6.522Y-2.9662
X6.522Y-3.0662
X6.522Y-3.1662
X6.522Y-3.2662
X6.522Y-3.3662
X6.522Y-3.4662
X6.522Y-3.5662
X6.522Y-3.6662
X6.522Y-3.7662
X6.522Y-3.8662
X6.522Y-3.9662
X6.522Y-4.0662
X6.522Y-4.1662
X6.522Y-4.2662
X6.522Y-4.3662
X6.522Y-4.4662
X6.522Y-4.5662
X6.522Y-4.6662
X6.522Y-4.7662
X6.522Y-4.8662
X6.522Y-4.9662
X6.522Y-5.0662
T5
X5.3838Y-2.9903
X5.8578Y-2.9903
T0
M30
