%TF.GenerationSoftware,KiCad,Pcbnew,7.0.2-6a45011f42~172~ubuntu20.04.1*%
%TF.CreationDate,2023-04-23T15:23:27+07:00*%
%TF.ProjectId,EZ-USB-FX2LP-dev-board,455a2d55-5342-42d4-9658-324c502d6465,rev?*%
%TF.SameCoordinates,Original*%
%TF.FileFunction,Copper,L2,Inr*%
%TF.FilePolarity,Positive*%
%FSLAX46Y46*%
G04 Gerber Fmt 4.6, Leading zero omitted, Abs format (unit mm)*
G04 Created by KiCad (PCBNEW 7.0.2-6a45011f42~172~ubuntu20.04.1) date 2023-04-23 15:23:27*
%MOMM*%
%LPD*%
G01*
G04 APERTURE LIST*
%TA.AperFunction,ComponentPad*%
%ADD10R,1.700000X1.700000*%
%TD*%
%TA.AperFunction,ComponentPad*%
%ADD11O,1.700000X1.700000*%
%TD*%
%TA.AperFunction,ComponentPad*%
%ADD12C,0.500000*%
%TD*%
%TA.AperFunction,ComponentPad*%
%ADD13C,1.700000*%
%TD*%
%TA.AperFunction,ComponentPad*%
%ADD14C,3.500000*%
%TD*%
%TA.AperFunction,ViaPad*%
%ADD15C,0.800000*%
%TD*%
G04 APERTURE END LIST*
D10*
%TO.N,Net-(J2-Pin_1)*%
%TO.C,J2*%
X155059500Y-134426900D03*
D11*
%TO.N,/SDA*%
X157599500Y-134426900D03*
%TD*%
D10*
%TO.N,+3V3*%
%TO.C,J4*%
X165657600Y-75340900D03*
D11*
%TO.N,GND*%
X165657600Y-77880900D03*
%TO.N,/RDY1*%
X165657600Y-80420900D03*
%TO.N,/RDY0*%
X165657600Y-82960900D03*
%TO.N,/CLKOUT*%
X165657600Y-85500900D03*
%TO.N,GND*%
X165657600Y-88040900D03*
%TO.N,/PD7*%
X165657600Y-90580900D03*
%TO.N,/PD6*%
X165657600Y-93120900D03*
%TO.N,/PD5*%
X165657600Y-95660900D03*
%TO.N,/PD4*%
X165657600Y-98200900D03*
%TO.N,/PD3*%
X165657600Y-100740900D03*
%TO.N,/PD2*%
X165657600Y-103280900D03*
%TO.N,/PD1*%
X165657600Y-105820900D03*
%TO.N,/PD0*%
X165657600Y-108360900D03*
%TO.N,GND*%
X165657600Y-110900900D03*
%TO.N,/~{RESET}*%
X165657600Y-113440900D03*
%TO.N,/PA7*%
X165657600Y-115980900D03*
%TO.N,/PA6*%
X165657600Y-118520900D03*
%TO.N,/PA5*%
X165657600Y-121060900D03*
%TO.N,/PA4*%
X165657600Y-123600900D03*
%TO.N,/PA3*%
X165657600Y-126140900D03*
%TO.N,GND*%
X165657600Y-128680900D03*
%TD*%
D10*
%TO.N,+5V*%
%TO.C,J6*%
X119937600Y-75340900D03*
D11*
%TO.N,+3V3*%
X119937600Y-77880900D03*
%TO.N,GND*%
X119937600Y-80420900D03*
%TO.N,/IFCLK*%
X119937600Y-82960900D03*
%TO.N,/SCL*%
X119937600Y-85500900D03*
%TO.N,/SDA*%
X119937600Y-88040900D03*
%TO.N,/PB0*%
X119937600Y-90580900D03*
%TO.N,/PB1*%
X119937600Y-93120900D03*
%TO.N,/PB2*%
X119937600Y-95660900D03*
%TO.N,/PB3*%
X119937600Y-98200900D03*
%TO.N,/PB4*%
X119937600Y-100740900D03*
%TO.N,/PB5*%
X119937600Y-103280900D03*
%TO.N,/PB6*%
X119937600Y-105820900D03*
%TO.N,/PB7*%
X119937600Y-108360900D03*
%TO.N,GND*%
X119937600Y-110900900D03*
%TO.N,/CTL0*%
X119937600Y-113440900D03*
%TO.N,/CTL1*%
X119937600Y-115980900D03*
%TO.N,/CTL2*%
X119937600Y-118520900D03*
%TO.N,GND*%
X119937600Y-121060900D03*
%TO.N,/PA0*%
X119937600Y-123600900D03*
%TO.N,/PA1*%
X119937600Y-126140900D03*
%TO.N,/PA2*%
X119937600Y-128680900D03*
%TD*%
D12*
%TO.N,GND*%
%TO.C,U1*%
X145147600Y-97465900D03*
X143972600Y-97465900D03*
X142797600Y-97465900D03*
X141622600Y-97465900D03*
X140447600Y-97465900D03*
X145147600Y-98465900D03*
X143972600Y-98465900D03*
X142797600Y-98465900D03*
X141622600Y-98465900D03*
X140447600Y-98465900D03*
X145147600Y-99465900D03*
X143972600Y-99465900D03*
X142797600Y-99465900D03*
X141622600Y-99465900D03*
X140447600Y-99465900D03*
X145147600Y-100465900D03*
X143972600Y-100465900D03*
X142797600Y-100465900D03*
X141622600Y-100465900D03*
X140447600Y-100465900D03*
X145147600Y-101465900D03*
X143972600Y-101465900D03*
X142797600Y-101465900D03*
X141622600Y-101465900D03*
X140447600Y-101465900D03*
%TD*%
D10*
%TO.N,VBUS*%
%TO.C,J1*%
X141518000Y-80663800D03*
D13*
%TO.N,/D-*%
X144018000Y-80663800D03*
%TO.N,/D+*%
X144018000Y-78663800D03*
%TO.N,GND*%
X141518000Y-78663800D03*
D14*
X136748000Y-75953800D03*
X148788000Y-75953800D03*
%TD*%
D10*
%TO.N,GND*%
%TO.C,J3*%
X127899500Y-134426900D03*
D11*
%TO.N,Net-(D2-K)*%
X130439500Y-134426900D03*
%TD*%
D15*
%TO.N,GND*%
X164719000Y-96926400D03*
X164719000Y-119786400D03*
X129717800Y-129717800D03*
X119049800Y-84226400D03*
X150241000Y-69189600D03*
X138049000Y-103962200D03*
X131191000Y-89636600D03*
X153771600Y-87909400D03*
X164084000Y-80416400D03*
X119049800Y-122326400D03*
X164134800Y-88265000D03*
X138252200Y-94869000D03*
X150241000Y-81508600D03*
X119049800Y-104546400D03*
X135686800Y-69240400D03*
X145034000Y-77495400D03*
X138811000Y-123748800D03*
X164134800Y-83185000D03*
X153644600Y-90271600D03*
X164134800Y-85725000D03*
X128803400Y-122199400D03*
X145821400Y-78740000D03*
X140741400Y-107823000D03*
X141376400Y-92862400D03*
X166624000Y-84201000D03*
X119049800Y-99466400D03*
X126568200Y-78054200D03*
X164719000Y-102006400D03*
X150698200Y-86537800D03*
X164719000Y-91846400D03*
X119049800Y-91846400D03*
X144119600Y-88011000D03*
X129362200Y-111963200D03*
X143205200Y-92862400D03*
X158165800Y-111683800D03*
X131114800Y-70561200D03*
X148920200Y-115011200D03*
X164719000Y-94386400D03*
X139776200Y-80670400D03*
X151638000Y-102514400D03*
X142862300Y-129667000D03*
X164719000Y-107086400D03*
X151180800Y-104470200D03*
X119049800Y-96926400D03*
X152273000Y-95453200D03*
X152374600Y-86487000D03*
X159435800Y-109372400D03*
X164719000Y-117246400D03*
X119049800Y-127406400D03*
X150672800Y-91643200D03*
X164719000Y-122326400D03*
X149199600Y-91338400D03*
X147929600Y-84912200D03*
X166624000Y-81686400D03*
X164719000Y-124866400D03*
X164719000Y-104546400D03*
X119049800Y-89306400D03*
X135661400Y-81559400D03*
X143027400Y-81838800D03*
X166624000Y-86791800D03*
X146100800Y-84912200D03*
X119049800Y-102006400D03*
X158369000Y-125399800D03*
X145008600Y-81838800D03*
X146329400Y-116586000D03*
X153822400Y-84353400D03*
X140131800Y-77292200D03*
X128295400Y-96088200D03*
X145897600Y-80695800D03*
X164719000Y-114706400D03*
X146050000Y-107721400D03*
X143027400Y-77495400D03*
X128524000Y-103428800D03*
X142824200Y-72364600D03*
X158394400Y-79273400D03*
X147294600Y-79476600D03*
X164719000Y-99466400D03*
X164719000Y-109626400D03*
X145465800Y-89255600D03*
X152501600Y-91567000D03*
X146177000Y-121081800D03*
X119049800Y-107086400D03*
X119049800Y-129946400D03*
X164719000Y-112166400D03*
X119049800Y-86766400D03*
X119049800Y-124866400D03*
X119049800Y-94386400D03*
X154051000Y-70637400D03*
%TO.N,+3V3*%
X133416800Y-118322600D03*
X154254200Y-117779800D03*
X147777200Y-103936800D03*
X134416800Y-117322600D03*
X152672651Y-130524649D03*
X134416800Y-118322600D03*
X140047200Y-106087400D03*
X159512000Y-72110600D03*
X145338800Y-123393200D03*
X133416800Y-116322600D03*
X152666700Y-125831600D03*
X153949400Y-74650600D03*
X136601200Y-103098600D03*
X139369800Y-93014800D03*
X133416800Y-117322600D03*
X148285200Y-95300800D03*
X134416800Y-116322600D03*
X135255000Y-95859600D03*
%TO.N,+5V*%
X138760200Y-90373200D03*
X142646400Y-113436400D03*
X137896600Y-90373200D03*
X143865600Y-113436400D03*
%TO.N,/~{RESET}*%
X156192800Y-70637400D03*
X153695400Y-108762800D03*
%TO.N,/SDA*%
X139732568Y-96716628D03*
%TO.N,/SCL*%
X147662900Y-128371600D03*
X137274300Y-95643700D03*
%TO.N,/PA0*%
X139725400Y-127203200D03*
%TO.N,/PA1*%
X136525000Y-127203200D03*
%TO.N,/WAKEUP*%
X148048200Y-102446600D03*
X128981200Y-71145400D03*
%TD*%
%TA.AperFunction,Conductor*%
%TO.N,GND*%
G36*
X133191439Y-67080282D02*
G01*
X133237194Y-67133086D01*
X133248400Y-67184597D01*
X133248400Y-82677000D01*
X136067800Y-85496400D01*
X145173700Y-85496400D01*
X145173700Y-84455000D01*
X136500162Y-84455000D01*
X136433123Y-84435315D01*
X136412481Y-84418681D01*
X134300719Y-82306919D01*
X134267234Y-82245596D01*
X134264400Y-82219238D01*
X134264400Y-81538474D01*
X140417500Y-81538474D01*
X140432033Y-81611538D01*
X140432033Y-81611539D01*
X140432034Y-81611540D01*
X140487399Y-81694401D01*
X140570260Y-81749766D01*
X140606792Y-81757032D01*
X140643325Y-81764300D01*
X140643326Y-81764300D01*
X142392675Y-81764300D01*
X142417029Y-81759455D01*
X142465740Y-81749766D01*
X142548601Y-81694401D01*
X142603966Y-81611540D01*
X142618500Y-81538474D01*
X142618500Y-80663800D01*
X142912785Y-80663800D01*
X142931602Y-80866883D01*
X142987418Y-81063051D01*
X143078324Y-81245618D01*
X143201236Y-81408380D01*
X143351958Y-81545781D01*
X143525361Y-81653147D01*
X143525363Y-81653148D01*
X143715544Y-81726824D01*
X143916024Y-81764300D01*
X143916026Y-81764300D01*
X144119974Y-81764300D01*
X144119976Y-81764300D01*
X144320456Y-81726824D01*
X144510637Y-81653148D01*
X144684041Y-81545781D01*
X144834764Y-81408379D01*
X144957673Y-81245621D01*
X144957673Y-81245619D01*
X144957675Y-81245618D01*
X145003313Y-81153961D01*
X145048582Y-81063050D01*
X145104397Y-80866883D01*
X145123215Y-80663800D01*
X145104397Y-80460717D01*
X145048582Y-80264550D01*
X145025312Y-80217817D01*
X144957675Y-80081981D01*
X144834763Y-79919219D01*
X144684043Y-79781820D01*
X144677417Y-79777718D01*
X144663704Y-79769226D01*
X144617068Y-79717200D01*
X144605964Y-79648219D01*
X144633916Y-79584184D01*
X144663703Y-79558373D01*
X144684041Y-79545781D01*
X144834764Y-79408379D01*
X144957673Y-79245621D01*
X144957673Y-79245619D01*
X144957675Y-79245618D01*
X145003313Y-79153961D01*
X145048582Y-79063050D01*
X145104397Y-78866883D01*
X145123215Y-78663800D01*
X145104397Y-78460717D01*
X145048582Y-78264550D01*
X145048209Y-78263801D01*
X144957675Y-78081981D01*
X144834763Y-77919219D01*
X144684041Y-77781818D01*
X144510638Y-77674452D01*
X144320457Y-77600776D01*
X144253629Y-77588283D01*
X144119976Y-77563300D01*
X143916024Y-77563300D01*
X143815783Y-77582038D01*
X143715542Y-77600776D01*
X143525361Y-77674452D01*
X143351958Y-77781818D01*
X143201236Y-77919219D01*
X143078324Y-78081981D01*
X142987418Y-78264548D01*
X142931602Y-78460716D01*
X142912785Y-78663800D01*
X142931602Y-78866883D01*
X142987418Y-79063051D01*
X143078324Y-79245618D01*
X143201236Y-79408380D01*
X143351956Y-79545779D01*
X143372296Y-79558373D01*
X143418931Y-79610401D01*
X143430035Y-79679383D01*
X143402082Y-79743417D01*
X143372296Y-79769227D01*
X143351956Y-79781820D01*
X143201236Y-79919219D01*
X143078324Y-80081981D01*
X142987418Y-80264548D01*
X142931602Y-80460716D01*
X142912785Y-80663800D01*
X142618500Y-80663800D01*
X142618500Y-79789126D01*
X142603966Y-79716060D01*
X142548601Y-79633199D01*
X142465740Y-79577834D01*
X142465739Y-79577833D01*
X142465738Y-79577833D01*
X142392675Y-79563300D01*
X142392674Y-79563300D01*
X140643326Y-79563300D01*
X140643325Y-79563300D01*
X140570261Y-79577833D01*
X140487399Y-79633199D01*
X140432033Y-79716061D01*
X140417500Y-79789125D01*
X140417500Y-81538474D01*
X134264400Y-81538474D01*
X134264400Y-67184597D01*
X134284085Y-67117558D01*
X134336889Y-67071803D01*
X134388400Y-67060597D01*
X151158400Y-67060597D01*
X151225439Y-67080282D01*
X151271194Y-67133086D01*
X151282400Y-67184597D01*
X151282400Y-82193837D01*
X151262715Y-82260876D01*
X151246081Y-82281518D01*
X149072600Y-84454999D01*
X149072600Y-84455000D01*
X149072600Y-85496400D01*
X149453600Y-85496400D01*
X151989101Y-82960899D01*
X164552385Y-82960899D01*
X164571202Y-83163983D01*
X164627018Y-83360151D01*
X164717924Y-83542718D01*
X164840836Y-83705480D01*
X164991558Y-83842881D01*
X165164961Y-83950247D01*
X165164963Y-83950248D01*
X165355144Y-84023924D01*
X165555624Y-84061400D01*
X165555626Y-84061400D01*
X165759574Y-84061400D01*
X165759576Y-84061400D01*
X165960056Y-84023924D01*
X166150237Y-83950248D01*
X166323641Y-83842881D01*
X166474364Y-83705479D01*
X166597273Y-83542721D01*
X166597273Y-83542719D01*
X166597275Y-83542718D01*
X166642913Y-83451061D01*
X166688182Y-83360150D01*
X166743997Y-83163983D01*
X166762815Y-82960900D01*
X166743997Y-82757817D01*
X166688182Y-82561650D01*
X166687809Y-82560901D01*
X166597275Y-82379081D01*
X166474363Y-82216319D01*
X166323641Y-82078918D01*
X166150238Y-81971552D01*
X165960057Y-81897876D01*
X165893229Y-81885384D01*
X165759576Y-81860400D01*
X165555624Y-81860400D01*
X165455384Y-81879137D01*
X165355142Y-81897876D01*
X165164961Y-81971552D01*
X164991558Y-82078918D01*
X164840836Y-82216319D01*
X164717924Y-82379081D01*
X164627018Y-82561648D01*
X164571202Y-82757816D01*
X164552385Y-82960899D01*
X151989101Y-82960899D01*
X152298400Y-82651600D01*
X152298400Y-80420899D01*
X164552385Y-80420899D01*
X164571202Y-80623983D01*
X164627018Y-80820151D01*
X164717924Y-81002718D01*
X164840836Y-81165480D01*
X164991558Y-81302881D01*
X165161944Y-81408379D01*
X165164963Y-81410248D01*
X165355144Y-81483924D01*
X165555624Y-81521400D01*
X165555626Y-81521400D01*
X165759574Y-81521400D01*
X165759576Y-81521400D01*
X165960056Y-81483924D01*
X166150237Y-81410248D01*
X166323641Y-81302881D01*
X166474364Y-81165479D01*
X166597273Y-81002721D01*
X166597273Y-81002719D01*
X166597275Y-81002718D01*
X166664912Y-80866883D01*
X166688182Y-80820150D01*
X166743997Y-80623983D01*
X166762815Y-80420900D01*
X166743997Y-80217817D01*
X166688182Y-80021650D01*
X166637178Y-79919219D01*
X166597275Y-79839081D01*
X166474363Y-79676319D01*
X166323641Y-79538918D01*
X166150238Y-79431552D01*
X165960057Y-79357876D01*
X165893229Y-79345384D01*
X165759576Y-79320400D01*
X165555624Y-79320400D01*
X165455384Y-79339137D01*
X165355142Y-79357876D01*
X165164961Y-79431552D01*
X164991558Y-79538918D01*
X164840836Y-79676319D01*
X164717924Y-79839081D01*
X164627018Y-80021648D01*
X164571202Y-80217816D01*
X164552385Y-80420899D01*
X152298400Y-80420899D01*
X152298400Y-76215574D01*
X164557100Y-76215574D01*
X164571633Y-76288638D01*
X164571633Y-76288639D01*
X164571634Y-76288640D01*
X164626999Y-76371501D01*
X164709860Y-76426866D01*
X164746392Y-76434132D01*
X164782925Y-76441400D01*
X164782926Y-76441400D01*
X166532275Y-76441400D01*
X166556629Y-76436555D01*
X166605340Y-76426866D01*
X166688201Y-76371501D01*
X166743566Y-76288640D01*
X166758100Y-76215574D01*
X166758100Y-74466226D01*
X166743566Y-74393160D01*
X166688201Y-74310299D01*
X166605340Y-74254934D01*
X166605339Y-74254933D01*
X166605338Y-74254933D01*
X166532275Y-74240400D01*
X166532274Y-74240400D01*
X164782926Y-74240400D01*
X164782925Y-74240400D01*
X164709861Y-74254933D01*
X164626999Y-74310299D01*
X164571633Y-74393161D01*
X164557100Y-74466225D01*
X164557100Y-76215574D01*
X152298400Y-76215574D01*
X152298400Y-74650599D01*
X153294121Y-74650599D01*
X153313163Y-74807418D01*
X153369180Y-74955123D01*
X153458915Y-75085128D01*
X153458916Y-75085129D01*
X153458917Y-75085130D01*
X153577160Y-75189883D01*
X153717035Y-75263296D01*
X153870415Y-75301100D01*
X154028385Y-75301100D01*
X154181765Y-75263296D01*
X154321640Y-75189883D01*
X154439883Y-75085130D01*
X154529620Y-74955123D01*
X154585637Y-74807418D01*
X154604678Y-74650600D01*
X154585637Y-74493782D01*
X154529620Y-74346077D01*
X154439883Y-74216070D01*
X154321640Y-74111317D01*
X154308394Y-74104364D01*
X154181764Y-74037903D01*
X154028385Y-74000100D01*
X153870415Y-74000100D01*
X153717035Y-74037903D01*
X153577161Y-74111316D01*
X153458915Y-74216071D01*
X153369180Y-74346076D01*
X153313163Y-74493781D01*
X153294121Y-74650599D01*
X152298400Y-74650599D01*
X152298400Y-72110600D01*
X158856721Y-72110600D01*
X158875763Y-72267418D01*
X158931780Y-72415123D01*
X159021515Y-72545128D01*
X159021516Y-72545129D01*
X159021517Y-72545130D01*
X159139760Y-72649883D01*
X159279635Y-72723296D01*
X159433015Y-72761100D01*
X159590985Y-72761100D01*
X159744365Y-72723296D01*
X159884240Y-72649883D01*
X160002483Y-72545130D01*
X160092220Y-72415123D01*
X160148237Y-72267418D01*
X160167278Y-72110600D01*
X160148237Y-71953782D01*
X160092220Y-71806077D01*
X160047351Y-71741073D01*
X160002484Y-71676071D01*
X159964915Y-71642788D01*
X159884240Y-71571317D01*
X159841182Y-71548718D01*
X159744364Y-71497903D01*
X159590985Y-71460100D01*
X159433015Y-71460100D01*
X159279635Y-71497903D01*
X159139761Y-71571316D01*
X159021515Y-71676071D01*
X158931780Y-71806076D01*
X158875763Y-71953781D01*
X158856721Y-72110600D01*
X152298400Y-72110600D01*
X152298400Y-70637400D01*
X155537521Y-70637400D01*
X155556563Y-70794218D01*
X155612580Y-70941923D01*
X155702315Y-71071928D01*
X155702316Y-71071929D01*
X155702317Y-71071930D01*
X155820560Y-71176683D01*
X155960435Y-71250096D01*
X156113815Y-71287900D01*
X156271785Y-71287900D01*
X156425165Y-71250096D01*
X156565040Y-71176683D01*
X156683283Y-71071930D01*
X156773020Y-70941923D01*
X156829037Y-70794218D01*
X156848078Y-70637400D01*
X156829037Y-70480582D01*
X156773020Y-70332877D01*
X156770112Y-70328664D01*
X162003387Y-70328664D01*
X162033013Y-70597916D01*
X162033014Y-70597918D01*
X162096531Y-70840876D01*
X162101528Y-70859987D01*
X162207471Y-71109292D01*
X162348582Y-71340511D01*
X162521853Y-71548718D01*
X162521855Y-71548720D01*
X162723598Y-71729482D01*
X162949510Y-71878944D01*
X163055811Y-71928776D01*
X163194777Y-71993921D01*
X163454162Y-72071958D01*
X163454169Y-72071960D01*
X163722161Y-72111400D01*
X163722164Y-72111400D01*
X163922969Y-72111400D01*
X163925231Y-72111400D01*
X164127756Y-72096577D01*
X164392153Y-72037680D01*
X164645158Y-71940914D01*
X164881377Y-71808341D01*
X165095777Y-71642788D01*
X165283786Y-71447781D01*
X165441399Y-71227479D01*
X165565256Y-70986575D01*
X165652718Y-70730205D01*
X165701919Y-70463833D01*
X165711812Y-70193135D01*
X165682186Y-69923882D01*
X165613672Y-69661812D01*
X165507730Y-69412510D01*
X165366618Y-69181290D01*
X165366617Y-69181288D01*
X165193346Y-68973081D01*
X165129446Y-68915826D01*
X164991602Y-68792318D01*
X164765690Y-68642856D01*
X164765686Y-68642854D01*
X164520422Y-68527878D01*
X164261037Y-68449841D01*
X164261031Y-68449840D01*
X163993039Y-68410400D01*
X163789969Y-68410400D01*
X163787720Y-68410564D01*
X163787709Y-68410565D01*
X163587443Y-68425222D01*
X163323049Y-68484119D01*
X163070041Y-68580886D01*
X162833823Y-68713459D01*
X162619425Y-68879009D01*
X162431413Y-69074020D01*
X162273801Y-69294320D01*
X162149942Y-69535229D01*
X162062481Y-69791595D01*
X162013280Y-70057966D01*
X162003387Y-70328664D01*
X156770112Y-70328664D01*
X156683283Y-70202870D01*
X156565040Y-70098117D01*
X156488540Y-70057966D01*
X156425164Y-70024703D01*
X156271785Y-69986900D01*
X156113815Y-69986900D01*
X155960435Y-70024703D01*
X155820561Y-70098116D01*
X155702315Y-70202871D01*
X155612580Y-70332876D01*
X155556563Y-70480581D01*
X155537521Y-70637400D01*
X152298400Y-70637400D01*
X152298400Y-67184596D01*
X152318085Y-67117558D01*
X152370889Y-67071803D01*
X152422400Y-67060597D01*
X163854355Y-67060597D01*
X163860843Y-67060766D01*
X163991179Y-67067597D01*
X164052461Y-67071039D01*
X164167676Y-67077510D01*
X164174588Y-67078092D01*
X164231862Y-67084546D01*
X164237267Y-67085279D01*
X164362203Y-67105066D01*
X164506534Y-67129589D01*
X164522155Y-67132244D01*
X164528940Y-67133593D01*
X164563652Y-67141516D01*
X164568026Y-67142601D01*
X164705925Y-67179551D01*
X164868268Y-67226321D01*
X164874877Y-67228427D01*
X164882631Y-67231140D01*
X164886071Y-67232402D01*
X165035201Y-67289648D01*
X165038130Y-67290817D01*
X165172496Y-67346473D01*
X165193825Y-67355308D01*
X165202654Y-67359378D01*
X165291416Y-67404604D01*
X165350634Y-67434777D01*
X165354320Y-67436734D01*
X165421377Y-67473795D01*
X165500867Y-67517728D01*
X165508414Y-67522257D01*
X165648171Y-67613016D01*
X165652391Y-67615882D01*
X165788485Y-67712446D01*
X165794766Y-67717209D01*
X165924513Y-67822276D01*
X165929103Y-67826182D01*
X166053338Y-67937204D01*
X166058393Y-67941983D01*
X166176514Y-68060104D01*
X166181278Y-68065143D01*
X166292315Y-68189393D01*
X166292317Y-68189395D01*
X166296223Y-68193986D01*
X166401287Y-68323729D01*
X166406051Y-68330010D01*
X166502625Y-68466119D01*
X166505490Y-68470339D01*
X166596238Y-68610078D01*
X166600771Y-68617632D01*
X166681765Y-68764180D01*
X166683722Y-68767866D01*
X166759111Y-68915826D01*
X166763187Y-68924667D01*
X166827673Y-69080347D01*
X166828876Y-69083363D01*
X166886076Y-69232373D01*
X166887355Y-69235860D01*
X166890068Y-69243614D01*
X166892179Y-69250237D01*
X166938958Y-69412609D01*
X166975884Y-69550418D01*
X166976992Y-69554889D01*
X166984899Y-69589532D01*
X166986256Y-69596353D01*
X167013455Y-69756436D01*
X167033211Y-69881171D01*
X167033956Y-69886677D01*
X167040403Y-69943895D01*
X167040988Y-69950826D01*
X167050919Y-70127657D01*
X167057733Y-70257657D01*
X167057903Y-70264147D01*
X167057903Y-133757653D01*
X167057733Y-133764143D01*
X167050920Y-133894135D01*
X167040988Y-134070974D01*
X167040403Y-134077903D01*
X167033957Y-134135116D01*
X167033210Y-134140631D01*
X167013457Y-134265347D01*
X166986255Y-134425451D01*
X166984898Y-134432271D01*
X166976993Y-134466900D01*
X166975878Y-134471396D01*
X166938962Y-134609174D01*
X166892174Y-134771577D01*
X166890067Y-134778186D01*
X166887357Y-134785931D01*
X166886079Y-134789416D01*
X166828881Y-134938421D01*
X166827678Y-134941436D01*
X166763185Y-135097135D01*
X166759109Y-135105977D01*
X166683733Y-135253910D01*
X166681776Y-135257596D01*
X166600764Y-135404177D01*
X166596231Y-135411731D01*
X166505500Y-135551444D01*
X166502635Y-135555664D01*
X166406045Y-135691795D01*
X166401281Y-135698076D01*
X166296240Y-135827791D01*
X166292334Y-135832382D01*
X166181276Y-135956657D01*
X166176497Y-135961711D01*
X166058411Y-136079797D01*
X166053357Y-136084576D01*
X165929082Y-136195634D01*
X165924491Y-136199540D01*
X165794776Y-136304581D01*
X165788495Y-136309345D01*
X165652364Y-136405935D01*
X165648144Y-136408800D01*
X165508431Y-136499531D01*
X165500877Y-136504064D01*
X165354296Y-136585076D01*
X165350610Y-136587033D01*
X165202677Y-136662409D01*
X165193835Y-136666485D01*
X165038136Y-136730978D01*
X165035121Y-136732181D01*
X164886116Y-136789379D01*
X164882637Y-136790655D01*
X164874899Y-136793363D01*
X164868268Y-136795477D01*
X164705875Y-136842262D01*
X164568089Y-136879181D01*
X164563608Y-136880292D01*
X164528972Y-136888198D01*
X164522149Y-136889555D01*
X164362048Y-136916757D01*
X164237327Y-136936511D01*
X164231818Y-136937257D01*
X164174602Y-136943703D01*
X164167673Y-136944288D01*
X163990835Y-136954220D01*
X163860843Y-136961033D01*
X163854354Y-136961203D01*
X121740848Y-136961203D01*
X121734357Y-136961033D01*
X121604358Y-136954219D01*
X121427525Y-136944288D01*
X121420596Y-136943703D01*
X121363382Y-136937257D01*
X121357868Y-136936510D01*
X121233137Y-136916755D01*
X121125751Y-136898510D01*
X121073043Y-136889554D01*
X121066242Y-136888201D01*
X121031596Y-136880294D01*
X121027097Y-136879178D01*
X120889309Y-136842258D01*
X120726930Y-136795477D01*
X120720319Y-136793370D01*
X120712557Y-136790654D01*
X120709073Y-136789376D01*
X120560063Y-136732176D01*
X120557061Y-136730978D01*
X120501756Y-136708070D01*
X120401367Y-136666487D01*
X120392526Y-136662411D01*
X120244566Y-136587022D01*
X120240880Y-136585065D01*
X120094332Y-136504071D01*
X120086778Y-136499538D01*
X119947039Y-136408790D01*
X119942819Y-136405925D01*
X119806710Y-136309351D01*
X119800429Y-136304587D01*
X119670686Y-136199523D01*
X119666095Y-136195617D01*
X119541840Y-136084576D01*
X119536804Y-136079814D01*
X119418683Y-135961693D01*
X119413904Y-135956638D01*
X119302882Y-135832403D01*
X119298976Y-135827813D01*
X119193909Y-135698066D01*
X119189146Y-135691785D01*
X119092582Y-135555691D01*
X119089716Y-135551471D01*
X118998957Y-135411714D01*
X118994424Y-135404160D01*
X118913434Y-135257620D01*
X118911477Y-135253934D01*
X118869464Y-135171479D01*
X118836078Y-135105954D01*
X118832013Y-135097135D01*
X118767510Y-134941412D01*
X118766348Y-134938501D01*
X118709102Y-134789371D01*
X118707836Y-134785918D01*
X118705130Y-134778184D01*
X118703019Y-134771560D01*
X118656251Y-134609224D01*
X118619310Y-134471360D01*
X118618200Y-134466880D01*
X118617079Y-134461972D01*
X118610296Y-134432254D01*
X118608943Y-134425452D01*
X118608943Y-134425451D01*
X118581755Y-134265434D01*
X118561976Y-134140553D01*
X118561239Y-134135099D01*
X118554795Y-134077906D01*
X118554210Y-134070976D01*
X118548193Y-133963833D01*
X118544289Y-133894314D01*
X118540848Y-133828664D01*
X119883387Y-133828664D01*
X119913013Y-134097916D01*
X119945928Y-134223816D01*
X119981528Y-134359988D01*
X120087421Y-134609174D01*
X120087471Y-134609292D01*
X120228582Y-134840511D01*
X120401853Y-135048718D01*
X120401855Y-135048720D01*
X120603598Y-135229482D01*
X120829510Y-135378944D01*
X120909087Y-135416248D01*
X121074777Y-135493921D01*
X121280093Y-135555691D01*
X121334169Y-135571960D01*
X121602161Y-135611400D01*
X121602164Y-135611400D01*
X121802969Y-135611400D01*
X121805231Y-135611400D01*
X122007756Y-135596577D01*
X122272153Y-135537680D01*
X122525158Y-135440914D01*
X122761377Y-135308341D01*
X122975777Y-135142788D01*
X123163786Y-134947781D01*
X123321399Y-134727479D01*
X123445256Y-134486575D01*
X123465614Y-134426900D01*
X129334285Y-134426900D01*
X129353102Y-134629983D01*
X129408918Y-134826151D01*
X129499824Y-135008718D01*
X129622736Y-135171480D01*
X129773458Y-135308881D01*
X129946861Y-135416247D01*
X129946863Y-135416248D01*
X130137044Y-135489924D01*
X130337524Y-135527400D01*
X130337526Y-135527400D01*
X130541474Y-135527400D01*
X130541476Y-135527400D01*
X130741956Y-135489924D01*
X130932137Y-135416248D01*
X131105541Y-135308881D01*
X131113556Y-135301574D01*
X153959000Y-135301574D01*
X153973533Y-135374638D01*
X153973533Y-135374639D01*
X153973534Y-135374640D01*
X154028899Y-135457501D01*
X154111760Y-135512866D01*
X154148292Y-135520133D01*
X154184825Y-135527400D01*
X154184826Y-135527400D01*
X155934175Y-135527400D01*
X155958529Y-135522555D01*
X156007240Y-135512866D01*
X156090101Y-135457501D01*
X156145466Y-135374640D01*
X156160000Y-135301574D01*
X156160000Y-134426900D01*
X156494285Y-134426900D01*
X156513102Y-134629983D01*
X156568918Y-134826151D01*
X156659824Y-135008718D01*
X156782736Y-135171480D01*
X156933458Y-135308881D01*
X157106861Y-135416247D01*
X157106863Y-135416248D01*
X157297044Y-135489924D01*
X157497524Y-135527400D01*
X157497526Y-135527400D01*
X157701474Y-135527400D01*
X157701476Y-135527400D01*
X157901956Y-135489924D01*
X158092137Y-135416248D01*
X158265541Y-135308881D01*
X158416264Y-135171479D01*
X158539173Y-135008721D01*
X158539173Y-135008719D01*
X158539175Y-135008718D01*
X158622931Y-134840511D01*
X158630082Y-134826150D01*
X158685897Y-134629983D01*
X158704715Y-134426900D01*
X158685897Y-134223817D01*
X158630082Y-134027650D01*
X158580798Y-133928673D01*
X158539175Y-133845081D01*
X158526777Y-133828664D01*
X162003387Y-133828664D01*
X162033013Y-134097916D01*
X162065928Y-134223816D01*
X162101528Y-134359988D01*
X162207421Y-134609174D01*
X162207471Y-134609292D01*
X162348582Y-134840511D01*
X162521853Y-135048718D01*
X162521855Y-135048720D01*
X162723598Y-135229482D01*
X162949510Y-135378944D01*
X163029087Y-135416248D01*
X163194777Y-135493921D01*
X163400093Y-135555691D01*
X163454169Y-135571960D01*
X163722161Y-135611400D01*
X163722164Y-135611400D01*
X163922969Y-135611400D01*
X163925231Y-135611400D01*
X164127756Y-135596577D01*
X164392153Y-135537680D01*
X164645158Y-135440914D01*
X164881377Y-135308341D01*
X165095777Y-135142788D01*
X165283786Y-134947781D01*
X165441399Y-134727479D01*
X165565256Y-134486575D01*
X165652718Y-134230205D01*
X165701919Y-133963833D01*
X165711812Y-133693135D01*
X165682186Y-133423882D01*
X165613672Y-133161812D01*
X165507730Y-132912510D01*
X165366618Y-132681290D01*
X165366617Y-132681288D01*
X165193346Y-132473081D01*
X165088359Y-132379012D01*
X164991602Y-132292318D01*
X164765690Y-132142856D01*
X164765686Y-132142854D01*
X164520422Y-132027878D01*
X164261037Y-131949841D01*
X164261031Y-131949840D01*
X163993039Y-131910400D01*
X163789969Y-131910400D01*
X163787720Y-131910564D01*
X163787709Y-131910565D01*
X163587443Y-131925222D01*
X163323049Y-131984119D01*
X163070041Y-132080886D01*
X162833823Y-132213459D01*
X162619425Y-132379009D01*
X162431413Y-132574020D01*
X162273801Y-132794320D01*
X162149942Y-133035229D01*
X162062481Y-133291595D01*
X162013280Y-133557966D01*
X162003387Y-133828664D01*
X158526777Y-133828664D01*
X158416263Y-133682319D01*
X158265541Y-133544918D01*
X158092138Y-133437552D01*
X157901957Y-133363876D01*
X157779226Y-133340934D01*
X157701476Y-133326400D01*
X157497524Y-133326400D01*
X157419779Y-133340933D01*
X157297042Y-133363876D01*
X157106861Y-133437552D01*
X156933458Y-133544918D01*
X156782736Y-133682319D01*
X156659824Y-133845081D01*
X156568918Y-134027648D01*
X156513102Y-134223816D01*
X156494285Y-134426900D01*
X156160000Y-134426900D01*
X156160000Y-133552226D01*
X156145466Y-133479160D01*
X156090101Y-133396299D01*
X156007240Y-133340934D01*
X156007239Y-133340933D01*
X156007238Y-133340933D01*
X155934175Y-133326400D01*
X155934174Y-133326400D01*
X154184826Y-133326400D01*
X154184825Y-133326400D01*
X154111761Y-133340933D01*
X154028899Y-133396299D01*
X153973533Y-133479161D01*
X153959000Y-133552225D01*
X153959000Y-135301574D01*
X131113556Y-135301574D01*
X131256264Y-135171479D01*
X131379173Y-135008721D01*
X131379173Y-135008719D01*
X131379175Y-135008718D01*
X131462931Y-134840511D01*
X131470082Y-134826150D01*
X131525897Y-134629983D01*
X131544715Y-134426900D01*
X131525897Y-134223817D01*
X131470082Y-134027650D01*
X131420798Y-133928673D01*
X131379175Y-133845081D01*
X131256263Y-133682319D01*
X131105541Y-133544918D01*
X130932138Y-133437552D01*
X130741957Y-133363876D01*
X130619226Y-133340934D01*
X130541476Y-133326400D01*
X130337524Y-133326400D01*
X130259779Y-133340933D01*
X130137042Y-133363876D01*
X129946861Y-133437552D01*
X129773458Y-133544918D01*
X129622736Y-133682319D01*
X129499824Y-133845081D01*
X129408918Y-134027648D01*
X129353102Y-134223816D01*
X129334285Y-134426900D01*
X123465614Y-134426900D01*
X123532718Y-134230205D01*
X123581919Y-133963833D01*
X123591812Y-133693135D01*
X123562186Y-133423882D01*
X123493672Y-133161812D01*
X123387730Y-132912510D01*
X123246618Y-132681290D01*
X123246617Y-132681288D01*
X123073346Y-132473081D01*
X122968359Y-132379012D01*
X122871602Y-132292318D01*
X122645690Y-132142856D01*
X122645686Y-132142854D01*
X122400422Y-132027878D01*
X122141037Y-131949841D01*
X122141031Y-131949840D01*
X121873039Y-131910400D01*
X121669969Y-131910400D01*
X121667720Y-131910564D01*
X121667709Y-131910565D01*
X121467443Y-131925222D01*
X121203049Y-131984119D01*
X120950041Y-132080886D01*
X120713823Y-132213459D01*
X120499425Y-132379009D01*
X120311413Y-132574020D01*
X120153801Y-132794320D01*
X120029942Y-133035229D01*
X119942481Y-133291595D01*
X119893280Y-133557966D01*
X119883387Y-133828664D01*
X118540848Y-133828664D01*
X118537466Y-133764143D01*
X118537297Y-133757655D01*
X118537297Y-130524648D01*
X152017372Y-130524648D01*
X152036414Y-130681467D01*
X152092431Y-130829172D01*
X152182166Y-130959177D01*
X152182167Y-130959178D01*
X152182168Y-130959179D01*
X152300411Y-131063932D01*
X152440286Y-131137345D01*
X152593666Y-131175149D01*
X152751636Y-131175149D01*
X152905016Y-131137345D01*
X153044891Y-131063932D01*
X153163134Y-130959179D01*
X153252871Y-130829172D01*
X153308888Y-130681467D01*
X153327929Y-130524649D01*
X153308888Y-130367831D01*
X153252871Y-130220126D01*
X153163134Y-130090119D01*
X153044891Y-129985366D01*
X153031645Y-129978414D01*
X152905015Y-129911952D01*
X152751636Y-129874149D01*
X152593666Y-129874149D01*
X152440286Y-129911952D01*
X152300412Y-129985365D01*
X152182166Y-130090120D01*
X152092431Y-130220125D01*
X152036414Y-130367830D01*
X152017372Y-130524648D01*
X118537297Y-130524648D01*
X118537297Y-128680899D01*
X118832385Y-128680899D01*
X118851202Y-128883983D01*
X118907018Y-129080151D01*
X118997924Y-129262718D01*
X119120836Y-129425480D01*
X119271558Y-129562881D01*
X119444961Y-129670247D01*
X119444963Y-129670248D01*
X119635144Y-129743924D01*
X119835624Y-129781400D01*
X119835626Y-129781400D01*
X120039574Y-129781400D01*
X120039576Y-129781400D01*
X120240056Y-129743924D01*
X120430237Y-129670248D01*
X120603641Y-129562881D01*
X120754364Y-129425479D01*
X120877273Y-129262721D01*
X120877273Y-129262719D01*
X120877275Y-129262718D01*
X120922913Y-129171061D01*
X120968182Y-129080150D01*
X121023997Y-128883983D01*
X121042815Y-128680900D01*
X121023997Y-128477817D01*
X120993775Y-128371600D01*
X147007621Y-128371600D01*
X147026663Y-128528418D01*
X147082680Y-128676123D01*
X147172415Y-128806128D01*
X147172416Y-128806129D01*
X147172417Y-128806130D01*
X147290660Y-128910883D01*
X147430535Y-128984296D01*
X147583915Y-129022100D01*
X147741885Y-129022100D01*
X147895265Y-128984296D01*
X148035140Y-128910883D01*
X148153383Y-128806130D01*
X148243120Y-128676123D01*
X148299137Y-128528418D01*
X148318178Y-128371600D01*
X148299137Y-128214782D01*
X148243120Y-128067077D01*
X148153383Y-127937070D01*
X148035140Y-127832317D01*
X148003853Y-127815896D01*
X147895264Y-127758903D01*
X147741885Y-127721100D01*
X147583915Y-127721100D01*
X147430535Y-127758903D01*
X147290661Y-127832316D01*
X147172415Y-127937071D01*
X147082680Y-128067076D01*
X147026663Y-128214781D01*
X147007621Y-128371600D01*
X120993775Y-128371600D01*
X120968182Y-128281650D01*
X120934886Y-128214782D01*
X120877275Y-128099081D01*
X120754363Y-127936319D01*
X120603641Y-127798918D01*
X120430238Y-127691552D01*
X120240057Y-127617876D01*
X120173229Y-127605384D01*
X120039576Y-127580400D01*
X119835624Y-127580400D01*
X119735384Y-127599137D01*
X119635142Y-127617876D01*
X119444961Y-127691552D01*
X119271558Y-127798918D01*
X119120836Y-127936319D01*
X118997924Y-128099081D01*
X118907018Y-128281648D01*
X118851202Y-128477816D01*
X118832385Y-128680899D01*
X118537297Y-128680899D01*
X118537297Y-126140900D01*
X118832385Y-126140900D01*
X118851202Y-126343983D01*
X118907018Y-126540151D01*
X118997924Y-126722718D01*
X119120836Y-126885480D01*
X119271558Y-127022881D01*
X119309514Y-127046382D01*
X119444963Y-127130248D01*
X119635144Y-127203924D01*
X119835624Y-127241400D01*
X119835626Y-127241400D01*
X120039574Y-127241400D01*
X120039576Y-127241400D01*
X120240056Y-127203924D01*
X120241925Y-127203200D01*
X135869721Y-127203200D01*
X135888763Y-127360018D01*
X135944780Y-127507723D01*
X136034515Y-127637728D01*
X136034516Y-127637729D01*
X136034517Y-127637730D01*
X136152760Y-127742483D01*
X136292635Y-127815896D01*
X136446015Y-127853700D01*
X136603985Y-127853700D01*
X136757365Y-127815896D01*
X136897240Y-127742483D01*
X137015483Y-127637730D01*
X137105220Y-127507723D01*
X137161237Y-127360018D01*
X137180278Y-127203200D01*
X137180278Y-127203199D01*
X139070121Y-127203199D01*
X139089163Y-127360018D01*
X139145180Y-127507723D01*
X139234915Y-127637728D01*
X139234916Y-127637729D01*
X139234917Y-127637730D01*
X139353160Y-127742483D01*
X139493035Y-127815896D01*
X139646415Y-127853700D01*
X139804385Y-127853700D01*
X139957765Y-127815896D01*
X140097640Y-127742483D01*
X140215883Y-127637730D01*
X140305620Y-127507723D01*
X140361637Y-127360018D01*
X140380678Y-127203200D01*
X140361637Y-127046382D01*
X140305620Y-126898677D01*
X140215883Y-126768670D01*
X140097640Y-126663917D01*
X140084394Y-126656964D01*
X139957764Y-126590503D01*
X139804385Y-126552700D01*
X139646415Y-126552700D01*
X139493035Y-126590503D01*
X139353161Y-126663916D01*
X139234915Y-126768671D01*
X139145180Y-126898676D01*
X139089163Y-127046381D01*
X139070121Y-127203199D01*
X137180278Y-127203199D01*
X137161237Y-127046382D01*
X137105220Y-126898677D01*
X137015483Y-126768670D01*
X136897240Y-126663917D01*
X136883994Y-126656965D01*
X136757364Y-126590503D01*
X136603985Y-126552700D01*
X136446015Y-126552700D01*
X136292635Y-126590503D01*
X136152761Y-126663916D01*
X136034515Y-126768671D01*
X135944780Y-126898676D01*
X135888763Y-127046381D01*
X135869721Y-127203200D01*
X120241925Y-127203200D01*
X120430237Y-127130248D01*
X120603641Y-127022881D01*
X120603641Y-127022880D01*
X120754363Y-126885480D01*
X120877275Y-126722718D01*
X120943109Y-126590503D01*
X120968182Y-126540150D01*
X121023997Y-126343983D01*
X121042815Y-126140900D01*
X121023997Y-125937817D01*
X120993775Y-125831599D01*
X152011421Y-125831599D01*
X152030463Y-125988418D01*
X152086480Y-126136123D01*
X152176215Y-126266128D01*
X152176216Y-126266129D01*
X152176217Y-126266130D01*
X152294460Y-126370883D01*
X152434335Y-126444296D01*
X152587715Y-126482100D01*
X152745685Y-126482100D01*
X152899065Y-126444296D01*
X153038940Y-126370883D01*
X153157183Y-126266130D01*
X153243623Y-126140900D01*
X164552385Y-126140900D01*
X164571202Y-126343983D01*
X164627018Y-126540151D01*
X164717924Y-126722718D01*
X164840836Y-126885480D01*
X164991558Y-127022881D01*
X165029514Y-127046382D01*
X165164963Y-127130248D01*
X165355144Y-127203924D01*
X165555624Y-127241400D01*
X165555626Y-127241400D01*
X165759574Y-127241400D01*
X165759576Y-127241400D01*
X165960056Y-127203924D01*
X166150237Y-127130248D01*
X166323641Y-127022881D01*
X166323641Y-127022880D01*
X166474363Y-126885480D01*
X166597275Y-126722718D01*
X166663109Y-126590503D01*
X166688182Y-126540150D01*
X166743997Y-126343983D01*
X166762815Y-126140900D01*
X166743997Y-125937817D01*
X166688182Y-125741650D01*
X166654886Y-125674782D01*
X166597275Y-125559081D01*
X166474363Y-125396319D01*
X166323641Y-125258918D01*
X166150238Y-125151552D01*
X165960057Y-125077876D01*
X165893229Y-125065384D01*
X165759576Y-125040400D01*
X165555624Y-125040400D01*
X165455384Y-125059138D01*
X165355142Y-125077876D01*
X165164961Y-125151552D01*
X164991558Y-125258918D01*
X164840836Y-125396319D01*
X164717924Y-125559081D01*
X164627018Y-125741648D01*
X164571202Y-125937816D01*
X164552385Y-126140900D01*
X153243623Y-126140900D01*
X153246920Y-126136123D01*
X153302937Y-125988418D01*
X153321978Y-125831600D01*
X153302937Y-125674782D01*
X153246920Y-125527077D01*
X153157183Y-125397070D01*
X153038940Y-125292317D01*
X153025694Y-125285364D01*
X152899064Y-125218903D01*
X152745685Y-125181100D01*
X152587715Y-125181100D01*
X152434335Y-125218903D01*
X152294461Y-125292316D01*
X152176215Y-125397071D01*
X152086480Y-125527076D01*
X152030463Y-125674781D01*
X152011421Y-125831599D01*
X120993775Y-125831599D01*
X120968182Y-125741650D01*
X120934886Y-125674782D01*
X120877275Y-125559081D01*
X120754363Y-125396319D01*
X120603641Y-125258918D01*
X120430238Y-125151552D01*
X120240057Y-125077876D01*
X120173229Y-125065384D01*
X120039576Y-125040400D01*
X119835624Y-125040400D01*
X119735384Y-125059137D01*
X119635142Y-125077876D01*
X119444961Y-125151552D01*
X119271558Y-125258918D01*
X119120836Y-125396319D01*
X118997924Y-125559081D01*
X118907018Y-125741648D01*
X118851202Y-125937816D01*
X118832385Y-126140900D01*
X118537297Y-126140900D01*
X118537297Y-123600899D01*
X118832385Y-123600899D01*
X118851202Y-123803983D01*
X118907018Y-124000151D01*
X118997924Y-124182718D01*
X119120836Y-124345480D01*
X119271558Y-124482881D01*
X119444961Y-124590247D01*
X119444963Y-124590248D01*
X119635144Y-124663924D01*
X119835624Y-124701400D01*
X119835626Y-124701400D01*
X120039574Y-124701400D01*
X120039576Y-124701400D01*
X120240056Y-124663924D01*
X120430237Y-124590248D01*
X120603641Y-124482881D01*
X120754364Y-124345479D01*
X120877273Y-124182721D01*
X120877273Y-124182719D01*
X120877275Y-124182718D01*
X120946497Y-124043700D01*
X120968182Y-124000150D01*
X121023997Y-123803983D01*
X121042815Y-123600900D01*
X121023997Y-123397817D01*
X121022683Y-123393200D01*
X121022683Y-123393199D01*
X144683521Y-123393199D01*
X144702563Y-123550018D01*
X144758580Y-123697723D01*
X144848315Y-123827728D01*
X144848316Y-123827729D01*
X144848317Y-123827730D01*
X144966560Y-123932483D01*
X145106435Y-124005896D01*
X145259815Y-124043700D01*
X145417785Y-124043700D01*
X145571165Y-124005896D01*
X145711040Y-123932483D01*
X145829283Y-123827730D01*
X145919020Y-123697723D01*
X145955740Y-123600899D01*
X164552385Y-123600899D01*
X164571202Y-123803983D01*
X164627018Y-124000151D01*
X164717924Y-124182718D01*
X164840836Y-124345480D01*
X164991558Y-124482881D01*
X165164961Y-124590247D01*
X165164963Y-124590248D01*
X165355144Y-124663924D01*
X165555624Y-124701400D01*
X165555626Y-124701400D01*
X165759574Y-124701400D01*
X165759576Y-124701400D01*
X165960056Y-124663924D01*
X166150237Y-124590248D01*
X166323641Y-124482881D01*
X166474364Y-124345479D01*
X166597273Y-124182721D01*
X166597273Y-124182719D01*
X166597275Y-124182718D01*
X166666497Y-124043700D01*
X166688182Y-124000150D01*
X166743997Y-123803983D01*
X166762815Y-123600900D01*
X166743997Y-123397817D01*
X166742683Y-123393200D01*
X166688181Y-123201648D01*
X166597275Y-123019081D01*
X166474363Y-122856319D01*
X166323641Y-122718918D01*
X166150238Y-122611552D01*
X165960057Y-122537876D01*
X165893229Y-122525384D01*
X165759576Y-122500400D01*
X165555624Y-122500400D01*
X165455384Y-122519137D01*
X165355142Y-122537876D01*
X165164961Y-122611552D01*
X164991558Y-122718918D01*
X164840836Y-122856319D01*
X164717924Y-123019081D01*
X164627018Y-123201648D01*
X164571202Y-123397816D01*
X164552385Y-123600899D01*
X145955740Y-123600899D01*
X145975037Y-123550018D01*
X145994078Y-123393200D01*
X145975037Y-123236382D01*
X145919020Y-123088677D01*
X145829283Y-122958670D01*
X145711040Y-122853917D01*
X145697794Y-122846964D01*
X145571164Y-122780503D01*
X145417785Y-122742700D01*
X145259815Y-122742700D01*
X145106435Y-122780503D01*
X144966561Y-122853916D01*
X144848315Y-122958671D01*
X144758580Y-123088676D01*
X144702563Y-123236381D01*
X144683521Y-123393199D01*
X121022683Y-123393199D01*
X120968181Y-123201648D01*
X120877275Y-123019081D01*
X120754363Y-122856319D01*
X120603641Y-122718918D01*
X120430238Y-122611552D01*
X120240057Y-122537876D01*
X120173229Y-122525384D01*
X120039576Y-122500400D01*
X119835624Y-122500400D01*
X119735384Y-122519137D01*
X119635142Y-122537876D01*
X119444961Y-122611552D01*
X119271558Y-122718918D01*
X119120836Y-122856319D01*
X118997924Y-123019081D01*
X118907018Y-123201648D01*
X118851202Y-123397816D01*
X118832385Y-123600899D01*
X118537297Y-123600899D01*
X118537297Y-121060899D01*
X164552385Y-121060899D01*
X164571202Y-121263983D01*
X164627018Y-121460151D01*
X164717924Y-121642718D01*
X164840836Y-121805480D01*
X164991558Y-121942881D01*
X165164961Y-122050247D01*
X165164963Y-122050248D01*
X165355144Y-122123924D01*
X165555624Y-122161400D01*
X165555626Y-122161400D01*
X165759574Y-122161400D01*
X165759576Y-122161400D01*
X165960056Y-122123924D01*
X166150237Y-122050248D01*
X166323641Y-121942881D01*
X166474364Y-121805479D01*
X166597273Y-121642721D01*
X166597273Y-121642719D01*
X166597275Y-121642718D01*
X166642913Y-121551061D01*
X166688182Y-121460150D01*
X166743997Y-121263983D01*
X166762815Y-121060900D01*
X166743997Y-120857817D01*
X166688182Y-120661650D01*
X166687809Y-120660901D01*
X166597275Y-120479081D01*
X166474363Y-120316319D01*
X166323641Y-120178918D01*
X166150238Y-120071552D01*
X165960057Y-119997876D01*
X165893229Y-119985384D01*
X165759576Y-119960400D01*
X165555624Y-119960400D01*
X165455384Y-119979137D01*
X165355142Y-119997876D01*
X165164961Y-120071552D01*
X164991558Y-120178918D01*
X164840836Y-120316319D01*
X164717924Y-120479081D01*
X164627018Y-120661648D01*
X164571202Y-120857816D01*
X164552385Y-121060899D01*
X118537297Y-121060899D01*
X118537297Y-118520899D01*
X118832385Y-118520899D01*
X118851202Y-118723983D01*
X118907018Y-118920151D01*
X118997924Y-119102718D01*
X119120836Y-119265480D01*
X119271558Y-119402881D01*
X119444961Y-119510247D01*
X119444963Y-119510248D01*
X119635144Y-119583924D01*
X119835624Y-119621400D01*
X119835626Y-119621400D01*
X120039574Y-119621400D01*
X120039576Y-119621400D01*
X120240056Y-119583924D01*
X120430237Y-119510248D01*
X120603641Y-119402881D01*
X120754364Y-119265479D01*
X120877273Y-119102721D01*
X120877273Y-119102719D01*
X120877275Y-119102718D01*
X120960640Y-118935296D01*
X120968182Y-118920150D01*
X121023997Y-118723983D01*
X121042815Y-118520900D01*
X121024440Y-118322599D01*
X132761521Y-118322599D01*
X132780563Y-118479418D01*
X132836580Y-118627123D01*
X132926315Y-118757128D01*
X132926316Y-118757129D01*
X132926317Y-118757130D01*
X133044560Y-118861883D01*
X133184435Y-118935296D01*
X133337815Y-118973100D01*
X133495785Y-118973100D01*
X133649165Y-118935296D01*
X133789040Y-118861883D01*
X133834574Y-118821543D01*
X133897806Y-118791822D01*
X133967069Y-118801006D01*
X133999024Y-118821542D01*
X134044560Y-118861883D01*
X134184435Y-118935296D01*
X134337815Y-118973100D01*
X134495785Y-118973100D01*
X134649165Y-118935296D01*
X134789040Y-118861883D01*
X134907283Y-118757130D01*
X134997020Y-118627123D01*
X135037305Y-118520899D01*
X164552385Y-118520899D01*
X164571202Y-118723983D01*
X164627018Y-118920151D01*
X164717924Y-119102718D01*
X164840836Y-119265480D01*
X164991558Y-119402881D01*
X165164961Y-119510247D01*
X165164963Y-119510248D01*
X165355144Y-119583924D01*
X165555624Y-119621400D01*
X165555626Y-119621400D01*
X165759574Y-119621400D01*
X165759576Y-119621400D01*
X165960056Y-119583924D01*
X166150237Y-119510248D01*
X166323641Y-119402881D01*
X166474364Y-119265479D01*
X166597273Y-119102721D01*
X166597273Y-119102719D01*
X166597275Y-119102718D01*
X166680640Y-118935296D01*
X166688182Y-118920150D01*
X166743997Y-118723983D01*
X166762815Y-118520900D01*
X166743997Y-118317817D01*
X166688182Y-118121650D01*
X166687809Y-118120901D01*
X166597275Y-117939081D01*
X166474363Y-117776319D01*
X166323641Y-117638918D01*
X166150238Y-117531552D01*
X165960057Y-117457876D01*
X165893229Y-117445384D01*
X165759576Y-117420400D01*
X165555624Y-117420400D01*
X165455384Y-117439137D01*
X165355142Y-117457876D01*
X165164961Y-117531552D01*
X164991558Y-117638918D01*
X164840836Y-117776319D01*
X164717924Y-117939081D01*
X164627018Y-118121648D01*
X164571202Y-118317816D01*
X164552385Y-118520899D01*
X135037305Y-118520899D01*
X135053037Y-118479418D01*
X135072078Y-118322600D01*
X135053037Y-118165782D01*
X134997020Y-118018077D01*
X134997019Y-118018074D01*
X134910714Y-117893038D01*
X134888831Y-117826684D01*
X134900935Y-117779800D01*
X153598921Y-117779800D01*
X153617963Y-117936618D01*
X153673980Y-118084323D01*
X153763715Y-118214328D01*
X153763716Y-118214329D01*
X153763717Y-118214330D01*
X153881960Y-118319083D01*
X154021835Y-118392496D01*
X154175215Y-118430300D01*
X154333185Y-118430300D01*
X154486565Y-118392496D01*
X154626440Y-118319083D01*
X154744683Y-118214330D01*
X154834420Y-118084323D01*
X154890437Y-117936618D01*
X154909478Y-117779800D01*
X154890437Y-117622982D01*
X154834420Y-117475277D01*
X154744683Y-117345270D01*
X154626440Y-117240517D01*
X154613194Y-117233565D01*
X154486564Y-117167103D01*
X154333185Y-117129300D01*
X154175215Y-117129300D01*
X154021835Y-117167103D01*
X153881961Y-117240516D01*
X153763715Y-117345271D01*
X153673980Y-117475276D01*
X153617963Y-117622981D01*
X153598921Y-117779800D01*
X134900935Y-117779800D01*
X134906297Y-117759032D01*
X134910714Y-117752159D01*
X134916800Y-117743342D01*
X134997020Y-117627123D01*
X135053037Y-117479418D01*
X135072078Y-117322600D01*
X135053037Y-117165782D01*
X134997020Y-117018077D01*
X134997019Y-117018074D01*
X134910714Y-116893038D01*
X134888831Y-116826684D01*
X134906297Y-116759032D01*
X134910714Y-116752159D01*
X134929130Y-116725479D01*
X134997020Y-116627123D01*
X135053037Y-116479418D01*
X135072078Y-116322600D01*
X135053037Y-116165782D01*
X134997020Y-116018077D01*
X134971359Y-115980900D01*
X164552385Y-115980900D01*
X164571202Y-116183983D01*
X164627018Y-116380151D01*
X164717924Y-116562718D01*
X164840836Y-116725480D01*
X164991558Y-116862881D01*
X165164961Y-116970247D01*
X165164963Y-116970248D01*
X165355144Y-117043924D01*
X165555624Y-117081400D01*
X165555626Y-117081400D01*
X165759574Y-117081400D01*
X165759576Y-117081400D01*
X165960056Y-117043924D01*
X166150237Y-116970248D01*
X166323641Y-116862881D01*
X166437558Y-116759032D01*
X166474363Y-116725480D01*
X166597275Y-116562718D01*
X166642913Y-116471061D01*
X166688182Y-116380150D01*
X166743997Y-116183983D01*
X166762815Y-115980900D01*
X166743997Y-115777817D01*
X166688182Y-115581650D01*
X166687809Y-115580901D01*
X166597275Y-115399081D01*
X166474363Y-115236319D01*
X166323641Y-115098918D01*
X166150238Y-114991552D01*
X165960057Y-114917876D01*
X165893229Y-114905384D01*
X165759576Y-114880400D01*
X165555624Y-114880400D01*
X165455384Y-114899137D01*
X165355142Y-114917876D01*
X165164961Y-114991552D01*
X164991558Y-115098918D01*
X164840836Y-115236319D01*
X164717924Y-115399081D01*
X164627018Y-115581648D01*
X164571202Y-115777816D01*
X164552385Y-115980900D01*
X134971359Y-115980900D01*
X134952151Y-115953073D01*
X134907284Y-115888071D01*
X134857754Y-115844192D01*
X134789040Y-115783317D01*
X134775794Y-115776365D01*
X134649164Y-115709903D01*
X134495785Y-115672100D01*
X134337815Y-115672100D01*
X134184435Y-115709903D01*
X134044558Y-115783318D01*
X133999024Y-115823657D01*
X133935791Y-115853377D01*
X133866527Y-115844192D01*
X133834574Y-115823656D01*
X133789040Y-115783317D01*
X133719102Y-115746610D01*
X133649164Y-115709903D01*
X133495785Y-115672100D01*
X133337815Y-115672100D01*
X133184435Y-115709903D01*
X133044561Y-115783316D01*
X132926315Y-115888071D01*
X132836580Y-116018076D01*
X132780563Y-116165781D01*
X132761521Y-116322600D01*
X132780563Y-116479418D01*
X132836580Y-116627123D01*
X132922886Y-116752159D01*
X132944769Y-116818513D01*
X132927304Y-116886165D01*
X132922886Y-116893038D01*
X132836580Y-117018074D01*
X132780563Y-117165781D01*
X132761521Y-117322599D01*
X132780563Y-117479418D01*
X132836580Y-117627123D01*
X132922886Y-117752159D01*
X132944769Y-117818513D01*
X132927304Y-117886165D01*
X132922886Y-117893038D01*
X132836580Y-118018074D01*
X132780563Y-118165781D01*
X132761521Y-118322599D01*
X121024440Y-118322599D01*
X121023997Y-118317817D01*
X120968182Y-118121650D01*
X120967809Y-118120901D01*
X120877275Y-117939081D01*
X120754363Y-117776319D01*
X120603641Y-117638918D01*
X120430238Y-117531552D01*
X120240057Y-117457876D01*
X120173229Y-117445384D01*
X120039576Y-117420400D01*
X119835624Y-117420400D01*
X119735384Y-117439137D01*
X119635142Y-117457876D01*
X119444961Y-117531552D01*
X119271558Y-117638918D01*
X119120836Y-117776319D01*
X118997924Y-117939081D01*
X118907018Y-118121648D01*
X118851202Y-118317816D01*
X118832385Y-118520899D01*
X118537297Y-118520899D01*
X118537297Y-115980899D01*
X118832385Y-115980899D01*
X118851202Y-116183983D01*
X118907018Y-116380151D01*
X118997924Y-116562718D01*
X119120836Y-116725480D01*
X119271558Y-116862881D01*
X119444961Y-116970247D01*
X119444963Y-116970248D01*
X119635144Y-117043924D01*
X119835624Y-117081400D01*
X119835626Y-117081400D01*
X120039574Y-117081400D01*
X120039576Y-117081400D01*
X120240056Y-117043924D01*
X120430237Y-116970248D01*
X120603641Y-116862881D01*
X120717558Y-116759032D01*
X120754363Y-116725480D01*
X120877275Y-116562718D01*
X120922913Y-116471061D01*
X120968182Y-116380150D01*
X121023997Y-116183983D01*
X121042815Y-115980900D01*
X121023997Y-115777817D01*
X120968182Y-115581650D01*
X120967809Y-115580901D01*
X120877275Y-115399081D01*
X120754363Y-115236319D01*
X120603641Y-115098918D01*
X120430238Y-114991552D01*
X120240057Y-114917876D01*
X120173229Y-114905384D01*
X120039576Y-114880400D01*
X119835624Y-114880400D01*
X119735384Y-114899137D01*
X119635142Y-114917876D01*
X119444961Y-114991552D01*
X119271558Y-115098918D01*
X119120836Y-115236319D01*
X118997924Y-115399081D01*
X118907018Y-115581648D01*
X118851202Y-115777816D01*
X118832385Y-115980899D01*
X118537297Y-115980899D01*
X118537297Y-113440900D01*
X118832385Y-113440900D01*
X118851202Y-113643983D01*
X118907018Y-113840151D01*
X118997924Y-114022718D01*
X119120836Y-114185480D01*
X119271558Y-114322881D01*
X119444961Y-114430247D01*
X119444963Y-114430248D01*
X119635144Y-114503924D01*
X119835624Y-114541400D01*
X119835626Y-114541400D01*
X120039574Y-114541400D01*
X120039576Y-114541400D01*
X120240056Y-114503924D01*
X120430237Y-114430248D01*
X120603641Y-114322881D01*
X120754364Y-114185479D01*
X120877273Y-114022721D01*
X120877273Y-114022719D01*
X120877275Y-114022718D01*
X120965167Y-113846204D01*
X120968182Y-113840150D01*
X121023997Y-113643983D01*
X121042815Y-113440900D01*
X121042398Y-113436400D01*
X141991121Y-113436400D01*
X142010163Y-113593218D01*
X142066180Y-113740923D01*
X142155915Y-113870928D01*
X142155916Y-113870929D01*
X142155917Y-113870930D01*
X142274160Y-113975683D01*
X142414035Y-114049096D01*
X142567415Y-114086900D01*
X142725385Y-114086900D01*
X142878765Y-114049096D01*
X143018640Y-113975683D01*
X143136883Y-113870930D01*
X143153951Y-113846202D01*
X143208231Y-113802213D01*
X143277680Y-113794553D01*
X143340245Y-113825655D01*
X143358045Y-113846197D01*
X143375117Y-113870930D01*
X143493360Y-113975683D01*
X143633235Y-114049096D01*
X143786615Y-114086900D01*
X143944585Y-114086900D01*
X144097965Y-114049096D01*
X144237840Y-113975683D01*
X144356083Y-113870930D01*
X144445820Y-113740923D01*
X144501837Y-113593218D01*
X144520332Y-113440900D01*
X164552385Y-113440900D01*
X164571202Y-113643983D01*
X164627018Y-113840151D01*
X164717924Y-114022718D01*
X164840836Y-114185480D01*
X164991558Y-114322881D01*
X165164961Y-114430247D01*
X165164963Y-114430248D01*
X165355144Y-114503924D01*
X165555624Y-114541400D01*
X165555626Y-114541400D01*
X165759574Y-114541400D01*
X165759576Y-114541400D01*
X165960056Y-114503924D01*
X166150237Y-114430248D01*
X166323641Y-114322881D01*
X166474364Y-114185479D01*
X166597273Y-114022721D01*
X166597273Y-114022719D01*
X166597275Y-114022718D01*
X166685167Y-113846204D01*
X166688182Y-113840150D01*
X166743997Y-113643983D01*
X166762815Y-113440900D01*
X166743997Y-113237817D01*
X166688182Y-113041650D01*
X166616214Y-112897117D01*
X166597275Y-112859081D01*
X166474363Y-112696319D01*
X166323641Y-112558918D01*
X166150238Y-112451552D01*
X165960057Y-112377876D01*
X165893229Y-112365384D01*
X165759576Y-112340400D01*
X165555624Y-112340400D01*
X165455384Y-112359137D01*
X165355142Y-112377876D01*
X165164961Y-112451552D01*
X164991558Y-112558918D01*
X164840836Y-112696319D01*
X164717924Y-112859081D01*
X164627018Y-113041648D01*
X164571202Y-113237816D01*
X164552385Y-113440900D01*
X144520332Y-113440900D01*
X144520878Y-113436400D01*
X144501837Y-113279582D01*
X144445820Y-113131877D01*
X144356083Y-113001870D01*
X144237840Y-112897117D01*
X144224594Y-112890164D01*
X144097964Y-112823703D01*
X143944585Y-112785900D01*
X143786615Y-112785900D01*
X143633235Y-112823703D01*
X143493361Y-112897116D01*
X143375115Y-113001871D01*
X143358050Y-113026596D01*
X143303767Y-113070586D01*
X143234319Y-113078246D01*
X143171754Y-113047143D01*
X143153950Y-113026596D01*
X143136884Y-113001871D01*
X143136883Y-113001870D01*
X143018640Y-112897117D01*
X143005394Y-112890164D01*
X142878764Y-112823703D01*
X142725385Y-112785900D01*
X142567415Y-112785900D01*
X142414035Y-112823703D01*
X142274161Y-112897116D01*
X142155915Y-113001871D01*
X142066180Y-113131876D01*
X142010163Y-113279581D01*
X141991121Y-113436400D01*
X121042398Y-113436400D01*
X121023997Y-113237817D01*
X120968182Y-113041650D01*
X120896214Y-112897117D01*
X120877275Y-112859081D01*
X120754363Y-112696319D01*
X120603641Y-112558918D01*
X120430238Y-112451552D01*
X120240057Y-112377876D01*
X120173229Y-112365384D01*
X120039576Y-112340400D01*
X119835624Y-112340400D01*
X119735384Y-112359137D01*
X119635142Y-112377876D01*
X119444961Y-112451552D01*
X119271558Y-112558918D01*
X119120836Y-112696319D01*
X118997924Y-112859081D01*
X118907018Y-113041648D01*
X118851202Y-113237816D01*
X118832385Y-113440900D01*
X118537297Y-113440900D01*
X118537297Y-108360899D01*
X118832385Y-108360899D01*
X118851202Y-108563983D01*
X118907018Y-108760151D01*
X118997924Y-108942718D01*
X119120836Y-109105480D01*
X119271558Y-109242881D01*
X119444961Y-109350247D01*
X119444963Y-109350248D01*
X119635144Y-109423924D01*
X119835624Y-109461400D01*
X119835626Y-109461400D01*
X120039574Y-109461400D01*
X120039576Y-109461400D01*
X120240056Y-109423924D01*
X120430237Y-109350248D01*
X120603641Y-109242881D01*
X120754364Y-109105479D01*
X120877273Y-108942721D01*
X120877273Y-108942719D01*
X120877275Y-108942718D01*
X120966862Y-108762800D01*
X153040121Y-108762800D01*
X153059163Y-108919618D01*
X153115180Y-109067323D01*
X153204915Y-109197328D01*
X153204916Y-109197329D01*
X153204917Y-109197330D01*
X153323160Y-109302083D01*
X153463035Y-109375496D01*
X153616415Y-109413300D01*
X153774385Y-109413300D01*
X153927765Y-109375496D01*
X154067640Y-109302083D01*
X154185883Y-109197330D01*
X154275620Y-109067323D01*
X154331637Y-108919618D01*
X154350678Y-108762800D01*
X154331637Y-108605982D01*
X154275620Y-108458277D01*
X154208405Y-108360899D01*
X164552385Y-108360899D01*
X164571202Y-108563983D01*
X164627018Y-108760151D01*
X164717924Y-108942718D01*
X164840836Y-109105480D01*
X164991558Y-109242881D01*
X165164961Y-109350247D01*
X165164963Y-109350248D01*
X165355144Y-109423924D01*
X165555624Y-109461400D01*
X165555626Y-109461400D01*
X165759574Y-109461400D01*
X165759576Y-109461400D01*
X165960056Y-109423924D01*
X166150237Y-109350248D01*
X166323641Y-109242881D01*
X166474364Y-109105479D01*
X166597273Y-108942721D01*
X166597273Y-108942719D01*
X166597275Y-108942718D01*
X166686862Y-108762800D01*
X166688182Y-108760150D01*
X166743997Y-108563983D01*
X166762815Y-108360900D01*
X166743997Y-108157817D01*
X166741802Y-108150104D01*
X166688181Y-107961648D01*
X166597275Y-107779081D01*
X166474363Y-107616319D01*
X166323641Y-107478918D01*
X166150238Y-107371552D01*
X165960057Y-107297876D01*
X165893229Y-107285384D01*
X165759576Y-107260400D01*
X165555624Y-107260400D01*
X165455384Y-107279137D01*
X165355142Y-107297876D01*
X165164961Y-107371552D01*
X164991558Y-107478918D01*
X164840836Y-107616319D01*
X164717924Y-107779081D01*
X164627018Y-107961648D01*
X164571202Y-108157816D01*
X164552385Y-108360899D01*
X154208405Y-108360899D01*
X154185883Y-108328270D01*
X154067640Y-108223517D01*
X154054394Y-108216564D01*
X153927764Y-108150103D01*
X153774385Y-108112300D01*
X153616415Y-108112300D01*
X153463035Y-108150103D01*
X153323161Y-108223516D01*
X153204915Y-108328271D01*
X153115180Y-108458276D01*
X153059163Y-108605981D01*
X153040121Y-108762800D01*
X120966862Y-108762800D01*
X120968182Y-108760150D01*
X121023997Y-108563983D01*
X121042815Y-108360900D01*
X121023997Y-108157817D01*
X121021802Y-108150104D01*
X120968181Y-107961648D01*
X120877275Y-107779081D01*
X120754363Y-107616319D01*
X120603641Y-107478918D01*
X120430238Y-107371552D01*
X120240057Y-107297876D01*
X120173229Y-107285384D01*
X120039576Y-107260400D01*
X119835624Y-107260400D01*
X119735384Y-107279137D01*
X119635142Y-107297876D01*
X119444961Y-107371552D01*
X119271558Y-107478918D01*
X119120836Y-107616319D01*
X118997924Y-107779081D01*
X118907018Y-107961648D01*
X118851202Y-108157816D01*
X118832385Y-108360899D01*
X118537297Y-108360899D01*
X118537297Y-105820900D01*
X118832385Y-105820900D01*
X118851202Y-106023983D01*
X118907018Y-106220151D01*
X118997924Y-106402718D01*
X119120836Y-106565480D01*
X119271558Y-106702881D01*
X119444961Y-106810247D01*
X119444963Y-106810248D01*
X119635144Y-106883924D01*
X119835624Y-106921400D01*
X119835626Y-106921400D01*
X120039574Y-106921400D01*
X120039576Y-106921400D01*
X120240056Y-106883924D01*
X120430237Y-106810248D01*
X120603641Y-106702881D01*
X120754364Y-106565479D01*
X120877273Y-106402721D01*
X120877273Y-106402719D01*
X120877275Y-106402718D01*
X120922913Y-106311061D01*
X120968182Y-106220150D01*
X121005953Y-106087399D01*
X139391921Y-106087399D01*
X139410963Y-106244218D01*
X139466980Y-106391923D01*
X139556715Y-106521928D01*
X139556716Y-106521929D01*
X139556717Y-106521930D01*
X139674960Y-106626683D01*
X139814835Y-106700096D01*
X139968215Y-106737900D01*
X140126185Y-106737900D01*
X140279565Y-106700096D01*
X140419440Y-106626683D01*
X140537683Y-106521930D01*
X140627420Y-106391923D01*
X140683437Y-106244218D01*
X140702478Y-106087400D01*
X140683437Y-105930582D01*
X140641840Y-105820900D01*
X164552385Y-105820900D01*
X164571202Y-106023983D01*
X164627018Y-106220151D01*
X164717924Y-106402718D01*
X164840836Y-106565480D01*
X164991558Y-106702881D01*
X165164961Y-106810247D01*
X165164963Y-106810248D01*
X165355144Y-106883924D01*
X165555624Y-106921400D01*
X165555626Y-106921400D01*
X165759574Y-106921400D01*
X165759576Y-106921400D01*
X165960056Y-106883924D01*
X166150237Y-106810248D01*
X166323641Y-106702881D01*
X166474364Y-106565479D01*
X166597273Y-106402721D01*
X166597273Y-106402719D01*
X166597275Y-106402718D01*
X166642913Y-106311061D01*
X166688182Y-106220150D01*
X166743997Y-106023983D01*
X166762815Y-105820900D01*
X166743997Y-105617817D01*
X166688182Y-105421650D01*
X166687809Y-105420901D01*
X166597275Y-105239081D01*
X166474363Y-105076319D01*
X166323641Y-104938918D01*
X166150238Y-104831552D01*
X165960057Y-104757876D01*
X165893229Y-104745384D01*
X165759576Y-104720400D01*
X165555624Y-104720400D01*
X165455384Y-104739137D01*
X165355142Y-104757876D01*
X165164961Y-104831552D01*
X164991558Y-104938918D01*
X164840836Y-105076319D01*
X164717924Y-105239081D01*
X164627018Y-105421648D01*
X164571202Y-105617816D01*
X164552385Y-105820900D01*
X140641840Y-105820900D01*
X140627420Y-105782877D01*
X140537683Y-105652870D01*
X140419440Y-105548117D01*
X140406194Y-105541165D01*
X140279564Y-105474703D01*
X140126185Y-105436900D01*
X139968215Y-105436900D01*
X139814835Y-105474703D01*
X139674961Y-105548116D01*
X139556715Y-105652871D01*
X139466980Y-105782876D01*
X139410963Y-105930581D01*
X139391921Y-106087399D01*
X121005953Y-106087399D01*
X121023997Y-106023983D01*
X121042815Y-105820900D01*
X121023997Y-105617817D01*
X120968182Y-105421650D01*
X120967809Y-105420901D01*
X120877275Y-105239081D01*
X120754363Y-105076319D01*
X120603641Y-104938918D01*
X120430238Y-104831552D01*
X120240057Y-104757876D01*
X120173229Y-104745384D01*
X120039576Y-104720400D01*
X119835624Y-104720400D01*
X119735384Y-104739137D01*
X119635142Y-104757876D01*
X119444961Y-104831552D01*
X119271558Y-104938918D01*
X119120836Y-105076319D01*
X118997924Y-105239081D01*
X118907018Y-105421648D01*
X118851202Y-105617816D01*
X118832385Y-105820900D01*
X118537297Y-105820900D01*
X118537297Y-103280899D01*
X118832385Y-103280899D01*
X118851202Y-103483983D01*
X118907018Y-103680151D01*
X118997924Y-103862718D01*
X119120836Y-104025480D01*
X119271558Y-104162881D01*
X119398247Y-104241323D01*
X119444963Y-104270248D01*
X119635144Y-104343924D01*
X119835624Y-104381400D01*
X119835626Y-104381400D01*
X120039574Y-104381400D01*
X120039576Y-104381400D01*
X120240056Y-104343924D01*
X120430237Y-104270248D01*
X120603641Y-104162881D01*
X120754364Y-104025479D01*
X120821332Y-103936799D01*
X147121921Y-103936799D01*
X147140963Y-104093618D01*
X147196980Y-104241323D01*
X147286715Y-104371328D01*
X147286716Y-104371329D01*
X147286717Y-104371330D01*
X147404960Y-104476083D01*
X147544835Y-104549496D01*
X147698215Y-104587300D01*
X147856185Y-104587300D01*
X148009565Y-104549496D01*
X148149440Y-104476083D01*
X148267683Y-104371330D01*
X148357420Y-104241323D01*
X148413437Y-104093618D01*
X148432478Y-103936800D01*
X148413437Y-103779982D01*
X148357420Y-103632277D01*
X148267683Y-103502270D01*
X148149440Y-103397517D01*
X148022506Y-103330896D01*
X147972294Y-103282311D01*
X147971962Y-103280899D01*
X164552385Y-103280899D01*
X164571202Y-103483983D01*
X164627018Y-103680151D01*
X164717924Y-103862718D01*
X164840836Y-104025480D01*
X164991558Y-104162881D01*
X165118247Y-104241323D01*
X165164963Y-104270248D01*
X165355144Y-104343924D01*
X165555624Y-104381400D01*
X165555626Y-104381400D01*
X165759574Y-104381400D01*
X165759576Y-104381400D01*
X165960056Y-104343924D01*
X166150237Y-104270248D01*
X166323641Y-104162881D01*
X166474364Y-104025479D01*
X166597273Y-103862721D01*
X166597273Y-103862719D01*
X166597275Y-103862718D01*
X166672673Y-103711296D01*
X166688182Y-103680150D01*
X166743997Y-103483983D01*
X166762815Y-103280900D01*
X166743997Y-103077817D01*
X166688182Y-102881650D01*
X166687809Y-102880901D01*
X166597275Y-102699081D01*
X166474363Y-102536319D01*
X166323641Y-102398918D01*
X166150238Y-102291552D01*
X165960057Y-102217876D01*
X165893229Y-102205384D01*
X165759576Y-102180400D01*
X165555624Y-102180400D01*
X165455384Y-102199137D01*
X165355142Y-102217876D01*
X165164961Y-102291552D01*
X164991558Y-102398918D01*
X164840836Y-102536319D01*
X164717924Y-102699081D01*
X164627018Y-102881648D01*
X164571202Y-103077816D01*
X164552385Y-103280899D01*
X147971962Y-103280899D01*
X147956320Y-103214292D01*
X147979656Y-103148434D01*
X148034892Y-103105648D01*
X148080133Y-103097100D01*
X148127185Y-103097100D01*
X148280565Y-103059296D01*
X148420440Y-102985883D01*
X148538683Y-102881130D01*
X148628420Y-102751123D01*
X148684437Y-102603418D01*
X148703478Y-102446600D01*
X148684437Y-102289782D01*
X148628420Y-102142077D01*
X148538683Y-102012070D01*
X148420440Y-101907317D01*
X148407194Y-101900364D01*
X148280564Y-101833903D01*
X148127185Y-101796100D01*
X147969215Y-101796100D01*
X147815835Y-101833903D01*
X147675961Y-101907316D01*
X147557715Y-102012071D01*
X147467980Y-102142076D01*
X147411963Y-102289781D01*
X147392921Y-102446600D01*
X147411963Y-102603418D01*
X147467980Y-102751123D01*
X147557715Y-102881128D01*
X147557716Y-102881129D01*
X147557717Y-102881130D01*
X147675960Y-102985883D01*
X147792375Y-103046983D01*
X147802894Y-103052504D01*
X147853106Y-103101089D01*
X147869080Y-103169108D01*
X147845744Y-103234966D01*
X147790508Y-103277752D01*
X147745267Y-103286300D01*
X147698215Y-103286300D01*
X147544835Y-103324103D01*
X147404961Y-103397516D01*
X147286715Y-103502271D01*
X147196980Y-103632276D01*
X147140963Y-103779981D01*
X147121921Y-103936799D01*
X120821332Y-103936799D01*
X120877273Y-103862721D01*
X120877273Y-103862719D01*
X120877275Y-103862718D01*
X120952673Y-103711296D01*
X120968182Y-103680150D01*
X121023997Y-103483983D01*
X121042815Y-103280900D01*
X121025923Y-103098599D01*
X135945921Y-103098599D01*
X135964963Y-103255418D01*
X136020980Y-103403123D01*
X136110715Y-103533128D01*
X136110716Y-103533129D01*
X136110717Y-103533130D01*
X136228960Y-103637883D01*
X136368835Y-103711296D01*
X136522215Y-103749100D01*
X136680185Y-103749100D01*
X136833565Y-103711296D01*
X136973440Y-103637883D01*
X137091683Y-103533130D01*
X137181420Y-103403123D01*
X137237437Y-103255418D01*
X137256478Y-103098600D01*
X137237437Y-102941782D01*
X137181420Y-102794077D01*
X137091683Y-102664070D01*
X136973440Y-102559317D01*
X136960194Y-102552364D01*
X136833564Y-102485903D01*
X136680185Y-102448100D01*
X136522215Y-102448100D01*
X136368835Y-102485903D01*
X136228961Y-102559316D01*
X136110715Y-102664071D01*
X136020980Y-102794076D01*
X135964963Y-102941781D01*
X135945921Y-103098599D01*
X121025923Y-103098599D01*
X121023997Y-103077817D01*
X120968182Y-102881650D01*
X120967809Y-102880901D01*
X120877275Y-102699081D01*
X120754363Y-102536319D01*
X120603641Y-102398918D01*
X120430238Y-102291552D01*
X120240057Y-102217876D01*
X120173229Y-102205384D01*
X120039576Y-102180400D01*
X119835624Y-102180400D01*
X119735384Y-102199137D01*
X119635142Y-102217876D01*
X119444961Y-102291552D01*
X119271558Y-102398918D01*
X119120836Y-102536319D01*
X118997924Y-102699081D01*
X118907018Y-102881648D01*
X118851202Y-103077816D01*
X118832385Y-103280899D01*
X118537297Y-103280899D01*
X118537297Y-100740900D01*
X118832385Y-100740900D01*
X118851202Y-100943983D01*
X118907018Y-101140151D01*
X118997924Y-101322718D01*
X119120836Y-101485480D01*
X119271558Y-101622881D01*
X119444961Y-101730247D01*
X119444963Y-101730248D01*
X119635144Y-101803924D01*
X119835624Y-101841400D01*
X119835626Y-101841400D01*
X120039574Y-101841400D01*
X120039576Y-101841400D01*
X120240056Y-101803924D01*
X120430237Y-101730248D01*
X120603641Y-101622881D01*
X120754364Y-101485479D01*
X120877273Y-101322721D01*
X120877273Y-101322719D01*
X120877275Y-101322718D01*
X120922913Y-101231061D01*
X120968182Y-101140150D01*
X121023997Y-100943983D01*
X121042815Y-100740900D01*
X121042815Y-100740899D01*
X164552385Y-100740899D01*
X164571202Y-100943983D01*
X164627018Y-101140151D01*
X164717924Y-101322718D01*
X164840836Y-101485480D01*
X164991558Y-101622881D01*
X165164961Y-101730247D01*
X165164963Y-101730248D01*
X165355144Y-101803924D01*
X165555624Y-101841400D01*
X165555626Y-101841400D01*
X165759574Y-101841400D01*
X165759576Y-101841400D01*
X165960056Y-101803924D01*
X166150237Y-101730248D01*
X166323641Y-101622881D01*
X166474364Y-101485479D01*
X166597273Y-101322721D01*
X166597273Y-101322719D01*
X166597275Y-101322718D01*
X166642913Y-101231061D01*
X166688182Y-101140150D01*
X166743997Y-100943983D01*
X166762815Y-100740900D01*
X166743997Y-100537817D01*
X166688182Y-100341650D01*
X166687809Y-100340901D01*
X166597275Y-100159081D01*
X166474363Y-99996319D01*
X166323641Y-99858918D01*
X166150238Y-99751552D01*
X165960057Y-99677876D01*
X165893229Y-99665384D01*
X165759576Y-99640400D01*
X165555624Y-99640400D01*
X165455384Y-99659137D01*
X165355142Y-99677876D01*
X165164961Y-99751552D01*
X164991558Y-99858918D01*
X164840836Y-99996319D01*
X164717924Y-100159081D01*
X164627018Y-100341648D01*
X164571202Y-100537816D01*
X164552385Y-100740899D01*
X121042815Y-100740899D01*
X121023997Y-100537817D01*
X120968182Y-100341650D01*
X120967809Y-100340901D01*
X120877275Y-100159081D01*
X120754363Y-99996319D01*
X120603641Y-99858918D01*
X120430238Y-99751552D01*
X120240057Y-99677876D01*
X120173229Y-99665384D01*
X120039576Y-99640400D01*
X119835624Y-99640400D01*
X119735384Y-99659137D01*
X119635142Y-99677876D01*
X119444961Y-99751552D01*
X119271558Y-99858918D01*
X119120836Y-99996319D01*
X118997924Y-100159081D01*
X118907018Y-100341648D01*
X118851202Y-100537816D01*
X118832385Y-100740900D01*
X118537297Y-100740900D01*
X118537297Y-98200899D01*
X118832385Y-98200899D01*
X118851202Y-98403983D01*
X118907018Y-98600151D01*
X118997924Y-98782718D01*
X119120836Y-98945480D01*
X119271558Y-99082881D01*
X119444961Y-99190247D01*
X119444963Y-99190248D01*
X119635144Y-99263924D01*
X119835624Y-99301400D01*
X119835626Y-99301400D01*
X120039574Y-99301400D01*
X120039576Y-99301400D01*
X120240056Y-99263924D01*
X120430237Y-99190248D01*
X120603641Y-99082881D01*
X120754364Y-98945479D01*
X120877273Y-98782721D01*
X120877273Y-98782719D01*
X120877275Y-98782718D01*
X120922913Y-98691061D01*
X120968182Y-98600150D01*
X121023997Y-98403983D01*
X121042815Y-98200900D01*
X121042815Y-98200899D01*
X164552385Y-98200899D01*
X164571202Y-98403983D01*
X164627018Y-98600151D01*
X164717924Y-98782718D01*
X164840836Y-98945480D01*
X164991558Y-99082881D01*
X165164961Y-99190247D01*
X165164963Y-99190248D01*
X165355144Y-99263924D01*
X165555624Y-99301400D01*
X165555626Y-99301400D01*
X165759574Y-99301400D01*
X165759576Y-99301400D01*
X165960056Y-99263924D01*
X166150237Y-99190248D01*
X166323641Y-99082881D01*
X166474364Y-98945479D01*
X166597273Y-98782721D01*
X166597273Y-98782719D01*
X166597275Y-98782718D01*
X166642913Y-98691061D01*
X166688182Y-98600150D01*
X166743997Y-98403983D01*
X166762815Y-98200900D01*
X166743997Y-97997817D01*
X166688182Y-97801650D01*
X166687809Y-97800901D01*
X166597275Y-97619081D01*
X166474363Y-97456319D01*
X166323641Y-97318918D01*
X166150238Y-97211552D01*
X165960057Y-97137876D01*
X165893229Y-97125384D01*
X165759576Y-97100400D01*
X165555624Y-97100400D01*
X165455384Y-97119137D01*
X165355142Y-97137876D01*
X165164961Y-97211552D01*
X164991558Y-97318918D01*
X164840836Y-97456319D01*
X164717924Y-97619081D01*
X164627018Y-97801648D01*
X164571202Y-97997816D01*
X164552385Y-98200899D01*
X121042815Y-98200899D01*
X121023997Y-97997817D01*
X120968182Y-97801650D01*
X120967809Y-97800901D01*
X120877275Y-97619081D01*
X120754363Y-97456319D01*
X120603641Y-97318918D01*
X120430238Y-97211552D01*
X120240057Y-97137876D01*
X120173229Y-97125384D01*
X120039576Y-97100400D01*
X119835624Y-97100400D01*
X119735384Y-97119137D01*
X119635142Y-97137876D01*
X119444961Y-97211552D01*
X119271558Y-97318918D01*
X119120836Y-97456319D01*
X118997924Y-97619081D01*
X118907018Y-97801648D01*
X118851202Y-97997816D01*
X118832385Y-98200899D01*
X118537297Y-98200899D01*
X118537297Y-95660899D01*
X118832385Y-95660899D01*
X118851202Y-95863983D01*
X118907018Y-96060151D01*
X118997924Y-96242718D01*
X119120836Y-96405480D01*
X119271558Y-96542881D01*
X119444961Y-96650247D01*
X119444963Y-96650248D01*
X119635144Y-96723924D01*
X119835624Y-96761400D01*
X119835626Y-96761400D01*
X120039574Y-96761400D01*
X120039576Y-96761400D01*
X120240056Y-96723924D01*
X120258889Y-96716628D01*
X139077289Y-96716628D01*
X139096331Y-96873446D01*
X139152348Y-97021151D01*
X139242083Y-97151156D01*
X139242084Y-97151157D01*
X139242085Y-97151158D01*
X139360328Y-97255911D01*
X139500203Y-97329324D01*
X139653583Y-97367128D01*
X139811553Y-97367128D01*
X139964933Y-97329324D01*
X140104808Y-97255911D01*
X140223051Y-97151158D01*
X140312788Y-97021151D01*
X140368805Y-96873446D01*
X140387846Y-96716628D01*
X140368805Y-96559810D01*
X140312788Y-96412105D01*
X140267919Y-96347101D01*
X140223052Y-96282099D01*
X140178603Y-96242721D01*
X140104808Y-96177345D01*
X140079616Y-96164123D01*
X139964932Y-96103931D01*
X139811553Y-96066128D01*
X139653583Y-96066128D01*
X139500203Y-96103931D01*
X139360329Y-96177344D01*
X139242083Y-96282099D01*
X139152348Y-96412104D01*
X139096331Y-96559809D01*
X139077289Y-96716628D01*
X120258889Y-96716628D01*
X120430237Y-96650248D01*
X120603641Y-96542881D01*
X120754364Y-96405479D01*
X120877273Y-96242721D01*
X120877273Y-96242719D01*
X120877275Y-96242718D01*
X120965205Y-96066128D01*
X120968182Y-96060150D01*
X121023997Y-95863983D01*
X121024403Y-95859600D01*
X134599721Y-95859600D01*
X134618763Y-96016418D01*
X134674780Y-96164123D01*
X134764515Y-96294128D01*
X134764516Y-96294129D01*
X134764517Y-96294130D01*
X134882760Y-96398883D01*
X135022635Y-96472296D01*
X135176015Y-96510100D01*
X135333985Y-96510100D01*
X135487365Y-96472296D01*
X135627240Y-96398883D01*
X135745483Y-96294130D01*
X135835220Y-96164123D01*
X135891237Y-96016418D01*
X135910278Y-95859600D01*
X135891237Y-95702782D01*
X135868830Y-95643700D01*
X136619021Y-95643700D01*
X136638063Y-95800518D01*
X136694080Y-95948223D01*
X136783815Y-96078228D01*
X136783816Y-96078229D01*
X136783817Y-96078230D01*
X136902060Y-96182983D01*
X137041935Y-96256396D01*
X137195315Y-96294200D01*
X137353285Y-96294200D01*
X137506665Y-96256396D01*
X137646540Y-96182983D01*
X137764783Y-96078230D01*
X137854520Y-95948223D01*
X137910537Y-95800518D01*
X137929578Y-95643700D01*
X137910537Y-95486882D01*
X137854520Y-95339177D01*
X137828030Y-95300799D01*
X147629921Y-95300799D01*
X147648963Y-95457618D01*
X147704980Y-95605323D01*
X147794715Y-95735328D01*
X147794716Y-95735329D01*
X147794717Y-95735330D01*
X147912960Y-95840083D01*
X148052835Y-95913496D01*
X148206215Y-95951300D01*
X148364185Y-95951300D01*
X148517565Y-95913496D01*
X148657440Y-95840083D01*
X148775683Y-95735330D01*
X148827058Y-95660900D01*
X164552385Y-95660900D01*
X164571202Y-95863983D01*
X164627018Y-96060151D01*
X164717924Y-96242718D01*
X164840836Y-96405480D01*
X164991558Y-96542881D01*
X165164961Y-96650247D01*
X165164963Y-96650248D01*
X165355144Y-96723924D01*
X165555624Y-96761400D01*
X165555626Y-96761400D01*
X165759574Y-96761400D01*
X165759576Y-96761400D01*
X165960056Y-96723924D01*
X166150237Y-96650248D01*
X166323641Y-96542881D01*
X166474364Y-96405479D01*
X166597273Y-96242721D01*
X166597273Y-96242719D01*
X166597275Y-96242718D01*
X166685205Y-96066128D01*
X166688182Y-96060150D01*
X166743997Y-95863983D01*
X166762815Y-95660900D01*
X166743997Y-95457817D01*
X166743940Y-95457618D01*
X166721800Y-95379804D01*
X166688182Y-95261650D01*
X166662051Y-95209171D01*
X166597275Y-95079081D01*
X166474363Y-94916319D01*
X166323641Y-94778918D01*
X166150238Y-94671552D01*
X165960057Y-94597876D01*
X165893229Y-94585384D01*
X165759576Y-94560400D01*
X165555624Y-94560400D01*
X165455384Y-94579137D01*
X165355142Y-94597876D01*
X165164961Y-94671552D01*
X164991558Y-94778918D01*
X164840836Y-94916319D01*
X164717924Y-95079081D01*
X164627018Y-95261648D01*
X164571202Y-95457816D01*
X164552385Y-95660900D01*
X148827058Y-95660900D01*
X148865420Y-95605323D01*
X148921437Y-95457618D01*
X148940478Y-95300800D01*
X148921437Y-95143982D01*
X148865420Y-94996277D01*
X148775683Y-94866270D01*
X148657440Y-94761517D01*
X148644194Y-94754565D01*
X148517564Y-94688103D01*
X148364185Y-94650300D01*
X148206215Y-94650300D01*
X148052835Y-94688103D01*
X147912961Y-94761516D01*
X147794715Y-94866271D01*
X147704980Y-94996276D01*
X147648963Y-95143981D01*
X147629921Y-95300799D01*
X137828030Y-95300799D01*
X137764783Y-95209170D01*
X137646540Y-95104417D01*
X137598263Y-95079079D01*
X137506664Y-95031003D01*
X137353285Y-94993200D01*
X137195315Y-94993200D01*
X137041935Y-95031003D01*
X136902061Y-95104416D01*
X136783815Y-95209171D01*
X136694080Y-95339176D01*
X136638063Y-95486881D01*
X136619021Y-95643700D01*
X135868830Y-95643700D01*
X135835220Y-95555077D01*
X135745483Y-95425070D01*
X135627240Y-95320317D01*
X135590052Y-95300799D01*
X135487364Y-95246903D01*
X135333985Y-95209100D01*
X135176015Y-95209100D01*
X135022635Y-95246903D01*
X134882761Y-95320316D01*
X134764515Y-95425071D01*
X134674780Y-95555076D01*
X134618763Y-95702781D01*
X134599721Y-95859600D01*
X121024403Y-95859600D01*
X121042815Y-95660900D01*
X121023997Y-95457817D01*
X121023940Y-95457618D01*
X121001800Y-95379804D01*
X120968182Y-95261650D01*
X120942051Y-95209171D01*
X120877275Y-95079081D01*
X120754363Y-94916319D01*
X120603641Y-94778918D01*
X120430238Y-94671552D01*
X120240057Y-94597876D01*
X120173229Y-94585384D01*
X120039576Y-94560400D01*
X119835624Y-94560400D01*
X119735384Y-94579137D01*
X119635142Y-94597876D01*
X119444961Y-94671552D01*
X119271558Y-94778918D01*
X119120836Y-94916319D01*
X118997924Y-95079081D01*
X118907018Y-95261648D01*
X118851202Y-95457816D01*
X118832385Y-95660899D01*
X118537297Y-95660899D01*
X118537297Y-93120900D01*
X118832385Y-93120900D01*
X118851202Y-93323983D01*
X118907018Y-93520151D01*
X118997924Y-93702718D01*
X119120836Y-93865480D01*
X119271558Y-94002881D01*
X119444961Y-94110247D01*
X119444963Y-94110248D01*
X119635144Y-94183924D01*
X119835624Y-94221400D01*
X119835626Y-94221400D01*
X120039574Y-94221400D01*
X120039576Y-94221400D01*
X120240056Y-94183924D01*
X120430237Y-94110248D01*
X120603641Y-94002881D01*
X120754364Y-93865479D01*
X120877273Y-93702721D01*
X120877273Y-93702719D01*
X120877275Y-93702718D01*
X120951285Y-93554083D01*
X120968182Y-93520150D01*
X121023997Y-93323983D01*
X121042815Y-93120900D01*
X121032984Y-93014800D01*
X138714521Y-93014800D01*
X138733563Y-93171618D01*
X138789580Y-93319323D01*
X138879315Y-93449328D01*
X138879316Y-93449329D01*
X138879317Y-93449330D01*
X138997560Y-93554083D01*
X139137435Y-93627496D01*
X139290815Y-93665300D01*
X139448785Y-93665300D01*
X139602165Y-93627496D01*
X139742040Y-93554083D01*
X139860283Y-93449330D01*
X139950020Y-93319323D01*
X140006037Y-93171618D01*
X140012195Y-93120900D01*
X164552385Y-93120900D01*
X164571202Y-93323983D01*
X164627018Y-93520151D01*
X164717924Y-93702718D01*
X164840836Y-93865480D01*
X164991558Y-94002881D01*
X165164961Y-94110247D01*
X165164963Y-94110248D01*
X165355144Y-94183924D01*
X165555624Y-94221400D01*
X165555626Y-94221400D01*
X165759574Y-94221400D01*
X165759576Y-94221400D01*
X165960056Y-94183924D01*
X166150237Y-94110248D01*
X166323641Y-94002881D01*
X166474364Y-93865479D01*
X166597273Y-93702721D01*
X166597273Y-93702719D01*
X166597275Y-93702718D01*
X166671285Y-93554083D01*
X166688182Y-93520150D01*
X166743997Y-93323983D01*
X166762815Y-93120900D01*
X166743997Y-92917817D01*
X166688182Y-92721650D01*
X166682519Y-92710277D01*
X166597275Y-92539081D01*
X166474363Y-92376319D01*
X166323641Y-92238918D01*
X166150238Y-92131552D01*
X165960057Y-92057876D01*
X165893229Y-92045384D01*
X165759576Y-92020400D01*
X165555624Y-92020400D01*
X165455384Y-92039137D01*
X165355142Y-92057876D01*
X165164961Y-92131552D01*
X164991558Y-92238918D01*
X164840836Y-92376319D01*
X164717924Y-92539081D01*
X164627018Y-92721648D01*
X164571202Y-92917816D01*
X164552385Y-93120900D01*
X140012195Y-93120900D01*
X140025078Y-93014800D01*
X140006037Y-92857982D01*
X139950020Y-92710277D01*
X139860283Y-92580270D01*
X139742040Y-92475517D01*
X139728794Y-92468564D01*
X139602164Y-92402103D01*
X139448785Y-92364300D01*
X139290815Y-92364300D01*
X139137435Y-92402103D01*
X138997561Y-92475516D01*
X138879315Y-92580271D01*
X138789580Y-92710276D01*
X138733563Y-92857981D01*
X138714521Y-93014800D01*
X121032984Y-93014800D01*
X121023997Y-92917817D01*
X120968182Y-92721650D01*
X120962519Y-92710277D01*
X120877275Y-92539081D01*
X120754363Y-92376319D01*
X120603641Y-92238918D01*
X120430238Y-92131552D01*
X120240057Y-92057876D01*
X120173229Y-92045384D01*
X120039576Y-92020400D01*
X119835624Y-92020400D01*
X119735384Y-92039137D01*
X119635142Y-92057876D01*
X119444961Y-92131552D01*
X119271558Y-92238918D01*
X119120836Y-92376319D01*
X118997924Y-92539081D01*
X118907018Y-92721648D01*
X118851202Y-92917816D01*
X118832385Y-93120900D01*
X118537297Y-93120900D01*
X118537297Y-90580899D01*
X118832385Y-90580899D01*
X118851202Y-90783983D01*
X118907018Y-90980151D01*
X118997924Y-91162718D01*
X119120836Y-91325480D01*
X119271558Y-91462881D01*
X119444961Y-91570247D01*
X119444963Y-91570248D01*
X119635144Y-91643924D01*
X119835624Y-91681400D01*
X119835626Y-91681400D01*
X120039574Y-91681400D01*
X120039576Y-91681400D01*
X120240056Y-91643924D01*
X120430237Y-91570248D01*
X120603641Y-91462881D01*
X120754364Y-91325479D01*
X120877273Y-91162721D01*
X120877273Y-91162719D01*
X120877275Y-91162718D01*
X120946497Y-91023700D01*
X120968182Y-90980150D01*
X121023997Y-90783983D01*
X121042815Y-90580900D01*
X121023997Y-90377817D01*
X121022683Y-90373200D01*
X121022683Y-90373199D01*
X137241321Y-90373199D01*
X137260363Y-90530018D01*
X137316380Y-90677723D01*
X137406115Y-90807728D01*
X137406116Y-90807729D01*
X137406117Y-90807730D01*
X137524360Y-90912483D01*
X137664235Y-90985896D01*
X137817615Y-91023700D01*
X137975585Y-91023700D01*
X138128965Y-90985896D01*
X138268840Y-90912483D01*
X138268844Y-90912479D01*
X138270773Y-90911467D01*
X138339281Y-90897741D01*
X138386027Y-90911467D01*
X138387955Y-90912479D01*
X138387960Y-90912483D01*
X138527835Y-90985896D01*
X138681215Y-91023700D01*
X138839185Y-91023700D01*
X138992565Y-90985896D01*
X139132440Y-90912483D01*
X139250683Y-90807730D01*
X139340420Y-90677723D01*
X139377140Y-90580899D01*
X164552385Y-90580899D01*
X164571202Y-90783983D01*
X164627018Y-90980151D01*
X164717924Y-91162718D01*
X164840836Y-91325480D01*
X164991558Y-91462881D01*
X165164961Y-91570247D01*
X165164963Y-91570248D01*
X165355144Y-91643924D01*
X165555624Y-91681400D01*
X165555626Y-91681400D01*
X165759574Y-91681400D01*
X165759576Y-91681400D01*
X165960056Y-91643924D01*
X166150237Y-91570248D01*
X166323641Y-91462881D01*
X166474364Y-91325479D01*
X166597273Y-91162721D01*
X166597273Y-91162719D01*
X166597275Y-91162718D01*
X166666497Y-91023700D01*
X166688182Y-90980150D01*
X166743997Y-90783983D01*
X166762815Y-90580900D01*
X166743997Y-90377817D01*
X166742683Y-90373200D01*
X166688181Y-90181648D01*
X166597275Y-89999081D01*
X166474363Y-89836319D01*
X166323641Y-89698918D01*
X166150238Y-89591552D01*
X165960057Y-89517876D01*
X165893229Y-89505384D01*
X165759576Y-89480400D01*
X165555624Y-89480400D01*
X165455384Y-89499137D01*
X165355142Y-89517876D01*
X165164961Y-89591552D01*
X164991558Y-89698918D01*
X164840836Y-89836319D01*
X164717924Y-89999081D01*
X164627018Y-90181648D01*
X164571202Y-90377816D01*
X164552385Y-90580899D01*
X139377140Y-90580899D01*
X139396437Y-90530018D01*
X139415478Y-90373200D01*
X139396437Y-90216382D01*
X139340420Y-90068677D01*
X139250683Y-89938670D01*
X139132440Y-89833917D01*
X139119194Y-89826964D01*
X138992564Y-89760503D01*
X138839185Y-89722700D01*
X138681215Y-89722700D01*
X138527833Y-89760503D01*
X138386026Y-89834931D01*
X138317518Y-89848657D01*
X138270774Y-89834931D01*
X138128966Y-89760503D01*
X137975585Y-89722700D01*
X137817615Y-89722700D01*
X137664235Y-89760503D01*
X137524361Y-89833916D01*
X137406115Y-89938671D01*
X137316380Y-90068676D01*
X137260363Y-90216381D01*
X137241321Y-90373199D01*
X121022683Y-90373199D01*
X120968181Y-90181648D01*
X120877275Y-89999081D01*
X120754363Y-89836319D01*
X120603641Y-89698918D01*
X120430238Y-89591552D01*
X120240057Y-89517876D01*
X120173229Y-89505384D01*
X120039576Y-89480400D01*
X119835624Y-89480400D01*
X119735384Y-89499137D01*
X119635142Y-89517876D01*
X119444961Y-89591552D01*
X119271558Y-89698918D01*
X119120836Y-89836319D01*
X118997924Y-89999081D01*
X118907018Y-90181648D01*
X118851202Y-90377816D01*
X118832385Y-90580899D01*
X118537297Y-90580899D01*
X118537297Y-88040899D01*
X118832385Y-88040899D01*
X118851202Y-88243983D01*
X118907018Y-88440151D01*
X118997924Y-88622718D01*
X119120836Y-88785480D01*
X119271558Y-88922881D01*
X119444961Y-89030247D01*
X119444963Y-89030248D01*
X119635144Y-89103924D01*
X119835624Y-89141400D01*
X119835626Y-89141400D01*
X120039574Y-89141400D01*
X120039576Y-89141400D01*
X120240056Y-89103924D01*
X120430237Y-89030248D01*
X120603641Y-88922881D01*
X120754364Y-88785479D01*
X120877273Y-88622721D01*
X120877273Y-88622719D01*
X120877275Y-88622718D01*
X120922913Y-88531061D01*
X120968182Y-88440150D01*
X121023997Y-88243983D01*
X121042815Y-88040900D01*
X121023997Y-87837817D01*
X120968182Y-87641650D01*
X120967809Y-87640901D01*
X120877275Y-87459081D01*
X120754363Y-87296319D01*
X120603641Y-87158918D01*
X120430238Y-87051552D01*
X120240057Y-86977876D01*
X120173229Y-86965384D01*
X120039576Y-86940400D01*
X119835624Y-86940400D01*
X119735384Y-86959137D01*
X119635142Y-86977876D01*
X119444961Y-87051552D01*
X119271558Y-87158918D01*
X119120836Y-87296319D01*
X118997924Y-87459081D01*
X118907018Y-87641648D01*
X118851202Y-87837816D01*
X118832385Y-88040899D01*
X118537297Y-88040899D01*
X118537297Y-85500900D01*
X118832385Y-85500900D01*
X118851202Y-85703983D01*
X118907018Y-85900151D01*
X118997924Y-86082718D01*
X119120836Y-86245480D01*
X119271558Y-86382881D01*
X119444961Y-86490247D01*
X119444963Y-86490248D01*
X119635144Y-86563924D01*
X119835624Y-86601400D01*
X119835626Y-86601400D01*
X120039574Y-86601400D01*
X120039576Y-86601400D01*
X120240056Y-86563924D01*
X120430237Y-86490248D01*
X120603641Y-86382881D01*
X120754364Y-86245479D01*
X120877273Y-86082721D01*
X120877273Y-86082719D01*
X120877275Y-86082718D01*
X120922913Y-85991061D01*
X120968182Y-85900150D01*
X121023997Y-85703983D01*
X121042815Y-85500900D01*
X164552385Y-85500900D01*
X164571202Y-85703983D01*
X164627018Y-85900151D01*
X164717924Y-86082718D01*
X164840836Y-86245480D01*
X164991558Y-86382881D01*
X165164961Y-86490247D01*
X165164963Y-86490248D01*
X165355144Y-86563924D01*
X165555624Y-86601400D01*
X165555626Y-86601400D01*
X165759574Y-86601400D01*
X165759576Y-86601400D01*
X165960056Y-86563924D01*
X166150237Y-86490248D01*
X166323641Y-86382881D01*
X166474364Y-86245479D01*
X166597273Y-86082721D01*
X166597273Y-86082719D01*
X166597275Y-86082718D01*
X166642913Y-85991061D01*
X166688182Y-85900150D01*
X166743997Y-85703983D01*
X166762815Y-85500900D01*
X166743997Y-85297817D01*
X166688182Y-85101650D01*
X166687809Y-85100901D01*
X166597275Y-84919081D01*
X166474363Y-84756319D01*
X166323641Y-84618918D01*
X166150238Y-84511552D01*
X165960057Y-84437876D01*
X165857371Y-84418681D01*
X165759576Y-84400400D01*
X165555624Y-84400400D01*
X165457829Y-84418681D01*
X165355142Y-84437876D01*
X165164961Y-84511552D01*
X164991558Y-84618918D01*
X164840836Y-84756319D01*
X164717924Y-84919081D01*
X164627018Y-85101648D01*
X164571202Y-85297816D01*
X164552385Y-85500900D01*
X121042815Y-85500900D01*
X121023997Y-85297817D01*
X120968182Y-85101650D01*
X120967809Y-85100901D01*
X120877275Y-84919081D01*
X120754363Y-84756319D01*
X120603641Y-84618918D01*
X120430238Y-84511552D01*
X120240057Y-84437876D01*
X120137371Y-84418681D01*
X120039576Y-84400400D01*
X119835624Y-84400400D01*
X119737829Y-84418681D01*
X119635142Y-84437876D01*
X119444961Y-84511552D01*
X119271558Y-84618918D01*
X119120836Y-84756319D01*
X118997924Y-84919081D01*
X118907018Y-85101648D01*
X118851202Y-85297816D01*
X118832385Y-85500900D01*
X118537297Y-85500900D01*
X118537297Y-82960899D01*
X118832385Y-82960899D01*
X118851202Y-83163983D01*
X118907018Y-83360151D01*
X118997924Y-83542718D01*
X119120836Y-83705480D01*
X119271558Y-83842881D01*
X119444961Y-83950247D01*
X119444963Y-83950248D01*
X119635144Y-84023924D01*
X119835624Y-84061400D01*
X119835626Y-84061400D01*
X120039574Y-84061400D01*
X120039576Y-84061400D01*
X120240056Y-84023924D01*
X120430237Y-83950248D01*
X120603641Y-83842881D01*
X120754364Y-83705479D01*
X120877273Y-83542721D01*
X120877273Y-83542719D01*
X120877275Y-83542718D01*
X120922913Y-83451061D01*
X120968182Y-83360150D01*
X121023997Y-83163983D01*
X121042815Y-82960900D01*
X121023997Y-82757817D01*
X120968182Y-82561650D01*
X120967809Y-82560901D01*
X120877275Y-82379081D01*
X120754363Y-82216319D01*
X120603641Y-82078918D01*
X120430238Y-81971552D01*
X120240057Y-81897876D01*
X120173229Y-81885384D01*
X120039576Y-81860400D01*
X119835624Y-81860400D01*
X119735384Y-81879137D01*
X119635142Y-81897876D01*
X119444961Y-81971552D01*
X119271558Y-82078918D01*
X119120836Y-82216319D01*
X118997924Y-82379081D01*
X118907018Y-82561648D01*
X118851202Y-82757816D01*
X118832385Y-82960899D01*
X118537297Y-82960899D01*
X118537297Y-77880899D01*
X118832385Y-77880899D01*
X118851202Y-78083983D01*
X118907018Y-78280151D01*
X118997924Y-78462718D01*
X119120836Y-78625480D01*
X119271558Y-78762881D01*
X119439528Y-78866883D01*
X119444963Y-78870248D01*
X119635144Y-78943924D01*
X119835624Y-78981400D01*
X119835626Y-78981400D01*
X120039574Y-78981400D01*
X120039576Y-78981400D01*
X120240056Y-78943924D01*
X120430237Y-78870248D01*
X120603641Y-78762881D01*
X120754364Y-78625479D01*
X120877273Y-78462721D01*
X120877273Y-78462719D01*
X120877275Y-78462718D01*
X120922913Y-78371061D01*
X120968182Y-78280150D01*
X121023997Y-78083983D01*
X121042815Y-77880900D01*
X121023997Y-77677817D01*
X120968182Y-77481650D01*
X120967809Y-77480901D01*
X120877275Y-77299081D01*
X120754363Y-77136319D01*
X120603641Y-76998918D01*
X120430238Y-76891552D01*
X120240057Y-76817876D01*
X120173229Y-76805384D01*
X120039576Y-76780400D01*
X119835624Y-76780400D01*
X119735384Y-76799137D01*
X119635142Y-76817876D01*
X119444961Y-76891552D01*
X119271558Y-76998918D01*
X119120836Y-77136319D01*
X118997924Y-77299081D01*
X118907018Y-77481648D01*
X118851202Y-77677816D01*
X118832385Y-77880899D01*
X118537297Y-77880899D01*
X118537297Y-76215574D01*
X118837100Y-76215574D01*
X118851633Y-76288638D01*
X118851633Y-76288639D01*
X118851634Y-76288640D01*
X118906999Y-76371501D01*
X118989860Y-76426866D01*
X119026392Y-76434132D01*
X119062925Y-76441400D01*
X119062926Y-76441400D01*
X120812275Y-76441400D01*
X120836629Y-76436555D01*
X120885340Y-76426866D01*
X120968201Y-76371501D01*
X121023566Y-76288640D01*
X121038100Y-76215574D01*
X121038100Y-74466226D01*
X121023566Y-74393160D01*
X120968201Y-74310299D01*
X120885340Y-74254934D01*
X120885339Y-74254933D01*
X120885338Y-74254933D01*
X120812275Y-74240400D01*
X120812274Y-74240400D01*
X119062926Y-74240400D01*
X119062925Y-74240400D01*
X118989861Y-74254933D01*
X118906999Y-74310299D01*
X118851633Y-74393161D01*
X118837100Y-74466225D01*
X118837100Y-76215574D01*
X118537297Y-76215574D01*
X118537297Y-70328664D01*
X119883387Y-70328664D01*
X119913013Y-70597916D01*
X119913014Y-70597918D01*
X119976531Y-70840876D01*
X119981528Y-70859987D01*
X120087471Y-71109292D01*
X120228582Y-71340511D01*
X120401853Y-71548718D01*
X120401855Y-71548720D01*
X120603598Y-71729482D01*
X120829510Y-71878944D01*
X120935811Y-71928776D01*
X121074777Y-71993921D01*
X121334162Y-72071958D01*
X121334169Y-72071960D01*
X121602161Y-72111400D01*
X121602164Y-72111400D01*
X121802969Y-72111400D01*
X121805231Y-72111400D01*
X122007756Y-72096577D01*
X122272153Y-72037680D01*
X122525158Y-71940914D01*
X122761377Y-71808341D01*
X122975777Y-71642788D01*
X123163786Y-71447781D01*
X123321399Y-71227479D01*
X123363599Y-71145400D01*
X128325921Y-71145400D01*
X128344963Y-71302218D01*
X128400980Y-71449923D01*
X128490715Y-71579928D01*
X128490716Y-71579929D01*
X128490717Y-71579930D01*
X128608960Y-71684683D01*
X128748835Y-71758096D01*
X128902215Y-71795900D01*
X129060185Y-71795900D01*
X129213565Y-71758096D01*
X129353440Y-71684683D01*
X129471683Y-71579930D01*
X129561420Y-71449923D01*
X129617437Y-71302218D01*
X129636478Y-71145400D01*
X129617437Y-70988582D01*
X129561420Y-70840877D01*
X129471683Y-70710870D01*
X129353440Y-70606117D01*
X129337818Y-70597918D01*
X129213564Y-70532703D01*
X129060185Y-70494900D01*
X128902215Y-70494900D01*
X128748835Y-70532703D01*
X128608961Y-70606116D01*
X128490715Y-70710871D01*
X128400980Y-70840876D01*
X128344963Y-70988581D01*
X128325921Y-71145400D01*
X123363599Y-71145400D01*
X123445256Y-70986575D01*
X123532718Y-70730205D01*
X123581919Y-70463833D01*
X123591812Y-70193135D01*
X123562186Y-69923882D01*
X123493672Y-69661812D01*
X123387730Y-69412510D01*
X123246618Y-69181290D01*
X123246617Y-69181288D01*
X123073346Y-68973081D01*
X123009446Y-68915826D01*
X122871602Y-68792318D01*
X122645690Y-68642856D01*
X122645686Y-68642854D01*
X122400422Y-68527878D01*
X122141037Y-68449841D01*
X122141031Y-68449840D01*
X121873039Y-68410400D01*
X121669969Y-68410400D01*
X121667720Y-68410564D01*
X121667709Y-68410565D01*
X121467443Y-68425222D01*
X121203049Y-68484119D01*
X120950041Y-68580886D01*
X120713823Y-68713459D01*
X120499425Y-68879009D01*
X120311413Y-69074020D01*
X120153801Y-69294320D01*
X120029942Y-69535229D01*
X119942481Y-69791595D01*
X119893280Y-70057966D01*
X119883387Y-70328664D01*
X118537297Y-70328664D01*
X118537297Y-70264144D01*
X118537467Y-70257655D01*
X118544280Y-70127657D01*
X118554211Y-69950811D01*
X118554794Y-69943906D01*
X118561240Y-69886692D01*
X118561981Y-69881216D01*
X118581762Y-69756322D01*
X118608942Y-69596352D01*
X118610290Y-69589568D01*
X118618218Y-69554835D01*
X118619301Y-69550472D01*
X118642659Y-69463298D01*
X118656256Y-69412559D01*
X118690591Y-69293377D01*
X118703027Y-69250209D01*
X118705118Y-69243648D01*
X118707857Y-69235820D01*
X118709093Y-69232452D01*
X118766363Y-69083258D01*
X118767510Y-69080384D01*
X118832027Y-68924628D01*
X118836057Y-68915887D01*
X118911554Y-68767714D01*
X118913397Y-68764243D01*
X118994440Y-68617607D01*
X118998914Y-68610151D01*
X119089765Y-68470253D01*
X119092572Y-68466119D01*
X119189149Y-68330006D01*
X119193891Y-68323754D01*
X119299002Y-68193954D01*
X119302865Y-68189412D01*
X119413919Y-68065142D01*
X119418648Y-68060141D01*
X119536841Y-67941948D01*
X119541842Y-67937219D01*
X119666112Y-67826165D01*
X119670654Y-67822302D01*
X119800454Y-67717191D01*
X119806711Y-67712446D01*
X119942819Y-67615872D01*
X119946953Y-67613065D01*
X120086851Y-67522214D01*
X120094307Y-67517740D01*
X120240943Y-67436697D01*
X120244414Y-67434854D01*
X120392587Y-67359357D01*
X120401356Y-67355314D01*
X120557055Y-67290821D01*
X120559957Y-67289664D01*
X120709152Y-67232393D01*
X120712521Y-67231157D01*
X120720345Y-67228419D01*
X120726922Y-67226323D01*
X120762290Y-67216134D01*
X120889261Y-67179555D01*
X120901480Y-67176280D01*
X121027211Y-67142591D01*
X121031535Y-67141518D01*
X121066248Y-67133595D01*
X121073055Y-67132242D01*
X121233036Y-67105060D01*
X121357948Y-67085276D01*
X121363343Y-67084545D01*
X121420615Y-67078092D01*
X121427535Y-67077509D01*
X121448155Y-67076350D01*
X121604139Y-67067591D01*
X121734356Y-67060766D01*
X121740844Y-67060597D01*
X133124400Y-67060597D01*
X133191439Y-67080282D01*
G37*
%TD.AperFunction*%
%TD*%
M02*
