%TF.GenerationSoftware,KiCad,Pcbnew,7.0.2-6a45011f42~172~ubuntu20.04.1*%
%TF.CreationDate,2023-04-23T15:23:27+07:00*%
%TF.ProjectId,EZ-USB-FX2LP-dev-board,455a2d55-5342-42d4-9658-324c502d6465,rev?*%
%TF.SameCoordinates,Original*%
%TF.FileFunction,Copper,L3,Inr*%
%TF.FilePolarity,Positive*%
%FSLAX46Y46*%
G04 Gerber Fmt 4.6, Leading zero omitted, Abs format (unit mm)*
G04 Created by KiCad (PCBNEW 7.0.2-6a45011f42~172~ubuntu20.04.1) date 2023-04-23 15:23:27*
%MOMM*%
%LPD*%
G01*
G04 APERTURE LIST*
%TA.AperFunction,ComponentPad*%
%ADD10R,1.700000X1.700000*%
%TD*%
%TA.AperFunction,ComponentPad*%
%ADD11O,1.700000X1.700000*%
%TD*%
%TA.AperFunction,ComponentPad*%
%ADD12C,0.500000*%
%TD*%
%TA.AperFunction,ComponentPad*%
%ADD13C,1.700000*%
%TD*%
%TA.AperFunction,ComponentPad*%
%ADD14C,3.500000*%
%TD*%
%TA.AperFunction,ViaPad*%
%ADD15C,0.800000*%
%TD*%
%TA.AperFunction,Conductor*%
%ADD16C,1.000000*%
%TD*%
G04 APERTURE END LIST*
D10*
%TO.N,Net-(J2-Pin_1)*%
%TO.C,J2*%
X155059500Y-134426900D03*
D11*
%TO.N,/SDA*%
X157599500Y-134426900D03*
%TD*%
D10*
%TO.N,+3V3*%
%TO.C,J4*%
X165657600Y-75340900D03*
D11*
%TO.N,GND*%
X165657600Y-77880900D03*
%TO.N,/RDY1*%
X165657600Y-80420900D03*
%TO.N,/RDY0*%
X165657600Y-82960900D03*
%TO.N,/CLKOUT*%
X165657600Y-85500900D03*
%TO.N,GND*%
X165657600Y-88040900D03*
%TO.N,/PD7*%
X165657600Y-90580900D03*
%TO.N,/PD6*%
X165657600Y-93120900D03*
%TO.N,/PD5*%
X165657600Y-95660900D03*
%TO.N,/PD4*%
X165657600Y-98200900D03*
%TO.N,/PD3*%
X165657600Y-100740900D03*
%TO.N,/PD2*%
X165657600Y-103280900D03*
%TO.N,/PD1*%
X165657600Y-105820900D03*
%TO.N,/PD0*%
X165657600Y-108360900D03*
%TO.N,GND*%
X165657600Y-110900900D03*
%TO.N,/~{RESET}*%
X165657600Y-113440900D03*
%TO.N,/PA7*%
X165657600Y-115980900D03*
%TO.N,/PA6*%
X165657600Y-118520900D03*
%TO.N,/PA5*%
X165657600Y-121060900D03*
%TO.N,/PA4*%
X165657600Y-123600900D03*
%TO.N,/PA3*%
X165657600Y-126140900D03*
%TO.N,GND*%
X165657600Y-128680900D03*
%TD*%
D10*
%TO.N,+5V*%
%TO.C,J6*%
X119937600Y-75340900D03*
D11*
%TO.N,+3V3*%
X119937600Y-77880900D03*
%TO.N,GND*%
X119937600Y-80420900D03*
%TO.N,/IFCLK*%
X119937600Y-82960900D03*
%TO.N,/SCL*%
X119937600Y-85500900D03*
%TO.N,/SDA*%
X119937600Y-88040900D03*
%TO.N,/PB0*%
X119937600Y-90580900D03*
%TO.N,/PB1*%
X119937600Y-93120900D03*
%TO.N,/PB2*%
X119937600Y-95660900D03*
%TO.N,/PB3*%
X119937600Y-98200900D03*
%TO.N,/PB4*%
X119937600Y-100740900D03*
%TO.N,/PB5*%
X119937600Y-103280900D03*
%TO.N,/PB6*%
X119937600Y-105820900D03*
%TO.N,/PB7*%
X119937600Y-108360900D03*
%TO.N,GND*%
X119937600Y-110900900D03*
%TO.N,/CTL0*%
X119937600Y-113440900D03*
%TO.N,/CTL1*%
X119937600Y-115980900D03*
%TO.N,/CTL2*%
X119937600Y-118520900D03*
%TO.N,GND*%
X119937600Y-121060900D03*
%TO.N,/PA0*%
X119937600Y-123600900D03*
%TO.N,/PA1*%
X119937600Y-126140900D03*
%TO.N,/PA2*%
X119937600Y-128680900D03*
%TD*%
D12*
%TO.N,GND*%
%TO.C,U1*%
X145147600Y-97465900D03*
X143972600Y-97465900D03*
X142797600Y-97465900D03*
X141622600Y-97465900D03*
X140447600Y-97465900D03*
X145147600Y-98465900D03*
X143972600Y-98465900D03*
X142797600Y-98465900D03*
X141622600Y-98465900D03*
X140447600Y-98465900D03*
X145147600Y-99465900D03*
X143972600Y-99465900D03*
X142797600Y-99465900D03*
X141622600Y-99465900D03*
X140447600Y-99465900D03*
X145147600Y-100465900D03*
X143972600Y-100465900D03*
X142797600Y-100465900D03*
X141622600Y-100465900D03*
X140447600Y-100465900D03*
X145147600Y-101465900D03*
X143972600Y-101465900D03*
X142797600Y-101465900D03*
X141622600Y-101465900D03*
X140447600Y-101465900D03*
%TD*%
D10*
%TO.N,VBUS*%
%TO.C,J1*%
X141518000Y-80663800D03*
D13*
%TO.N,/D-*%
X144018000Y-80663800D03*
%TO.N,/D+*%
X144018000Y-78663800D03*
%TO.N,GND*%
X141518000Y-78663800D03*
D14*
X136748000Y-75953800D03*
X148788000Y-75953800D03*
%TD*%
D10*
%TO.N,GND*%
%TO.C,J3*%
X127899500Y-134426900D03*
D11*
%TO.N,Net-(D2-K)*%
X130439500Y-134426900D03*
%TD*%
D15*
%TO.N,GND*%
X164719000Y-96926400D03*
X164719000Y-119786400D03*
X129717800Y-129717800D03*
X119049800Y-84226400D03*
X150241000Y-69189600D03*
X138049000Y-103962200D03*
X131191000Y-89636600D03*
X153771600Y-87909400D03*
X164084000Y-80416400D03*
X119049800Y-122326400D03*
X164134800Y-88265000D03*
X138252200Y-94869000D03*
X150241000Y-81508600D03*
X119049800Y-104546400D03*
X135686800Y-69240400D03*
X145034000Y-77495400D03*
X138811000Y-123748800D03*
X164134800Y-83185000D03*
X153644600Y-90271600D03*
X164134800Y-85725000D03*
X128803400Y-122199400D03*
X145821400Y-78740000D03*
X140741400Y-107823000D03*
X141376400Y-92862400D03*
X166624000Y-84201000D03*
X119049800Y-99466400D03*
X126568200Y-78054200D03*
X164719000Y-102006400D03*
X150698200Y-86537800D03*
X164719000Y-91846400D03*
X119049800Y-91846400D03*
X144119600Y-88011000D03*
X129362200Y-111963200D03*
X143205200Y-92862400D03*
X158165800Y-111683800D03*
X131114800Y-70561200D03*
X148920200Y-115011200D03*
X164719000Y-94386400D03*
X139776200Y-80670400D03*
X151638000Y-102514400D03*
X142862300Y-129667000D03*
X164719000Y-107086400D03*
X151180800Y-104470200D03*
X119049800Y-96926400D03*
X152273000Y-95453200D03*
X152374600Y-86487000D03*
X159435800Y-109372400D03*
X164719000Y-117246400D03*
X119049800Y-127406400D03*
X150672800Y-91643200D03*
X164719000Y-122326400D03*
X149199600Y-91338400D03*
X147929600Y-84912200D03*
X166624000Y-81686400D03*
X164719000Y-124866400D03*
X164719000Y-104546400D03*
X119049800Y-89306400D03*
X135661400Y-81559400D03*
X143027400Y-81838800D03*
X166624000Y-86791800D03*
X146100800Y-84912200D03*
X119049800Y-102006400D03*
X158369000Y-125399800D03*
X145008600Y-81838800D03*
X146329400Y-116586000D03*
X153822400Y-84353400D03*
X140131800Y-77292200D03*
X128295400Y-96088200D03*
X145897600Y-80695800D03*
X164719000Y-114706400D03*
X146050000Y-107721400D03*
X143027400Y-77495400D03*
X128524000Y-103428800D03*
X142824200Y-72364600D03*
X158394400Y-79273400D03*
X147294600Y-79476600D03*
X164719000Y-99466400D03*
X164719000Y-109626400D03*
X145465800Y-89255600D03*
X152501600Y-91567000D03*
X146177000Y-121081800D03*
X119049800Y-107086400D03*
X119049800Y-129946400D03*
X164719000Y-112166400D03*
X119049800Y-86766400D03*
X119049800Y-124866400D03*
X119049800Y-94386400D03*
X154051000Y-70637400D03*
%TO.N,+3V3*%
X133416800Y-118322600D03*
X154254200Y-117779800D03*
X147777200Y-103936800D03*
X134416800Y-117322600D03*
X152672651Y-130524649D03*
X134416800Y-118322600D03*
X140047200Y-106087400D03*
X159512000Y-72110600D03*
X145338800Y-123393200D03*
X133416800Y-116322600D03*
X152666700Y-125831600D03*
X153949400Y-74650600D03*
X136601200Y-103098600D03*
X139369800Y-93014800D03*
X133416800Y-117322600D03*
X148285200Y-95300800D03*
X134416800Y-116322600D03*
X135255000Y-95859600D03*
%TO.N,+5V*%
X138760200Y-90373200D03*
X142646400Y-113436400D03*
X137896600Y-90373200D03*
X143865600Y-113436400D03*
%TO.N,/~{RESET}*%
X156192800Y-70637400D03*
X153695400Y-108762800D03*
%TO.N,/SDA*%
X139732568Y-96716628D03*
%TO.N,/SCL*%
X147662900Y-128371600D03*
X137274300Y-95643700D03*
%TO.N,/PA0*%
X139725400Y-127203200D03*
%TO.N,/PA1*%
X136525000Y-127203200D03*
%TO.N,/WAKEUP*%
X148048200Y-102446600D03*
X128981200Y-71145400D03*
%TD*%
D16*
%TO.N,+5V*%
X131241800Y-107619800D02*
X131241800Y-97028000D01*
X137058400Y-113436400D02*
X131241800Y-107619800D01*
X142646400Y-113436400D02*
X137058400Y-113436400D01*
X131241800Y-97028000D02*
X137896600Y-90373200D01*
%TD*%
%TA.AperFunction,Conductor*%
%TO.N,+5V*%
G36*
X145764439Y-112490885D02*
G01*
X145810194Y-112543689D01*
X145821400Y-112595200D01*
X145821400Y-115852400D01*
X145801715Y-115919439D01*
X145748911Y-115965194D01*
X145697400Y-115976400D01*
X141602000Y-115976400D01*
X141534961Y-115956715D01*
X141489206Y-115903911D01*
X141478000Y-115852400D01*
X141478000Y-112595200D01*
X141497685Y-112528161D01*
X141550489Y-112482406D01*
X141602000Y-112471200D01*
X145697400Y-112471200D01*
X145764439Y-112490885D01*
G37*
%TD.AperFunction*%
%TD*%
%TA.AperFunction,Conductor*%
%TO.N,+3V3*%
G36*
X133191439Y-67080282D02*
G01*
X133237194Y-67133086D01*
X133248400Y-67184597D01*
X133248400Y-82677000D01*
X136067800Y-85496400D01*
X145173700Y-85496400D01*
X145173700Y-84912200D01*
X145445521Y-84912200D01*
X145464563Y-85069018D01*
X145520580Y-85216723D01*
X145610315Y-85346728D01*
X145610316Y-85346729D01*
X145610317Y-85346730D01*
X145728560Y-85451483D01*
X145868435Y-85524896D01*
X146021815Y-85562700D01*
X146179785Y-85562700D01*
X146333165Y-85524896D01*
X146473040Y-85451483D01*
X146591283Y-85346730D01*
X146681020Y-85216723D01*
X146737037Y-85069018D01*
X146756078Y-84912200D01*
X147274321Y-84912200D01*
X147293363Y-85069018D01*
X147349380Y-85216723D01*
X147439115Y-85346728D01*
X147439116Y-85346729D01*
X147439117Y-85346730D01*
X147557360Y-85451483D01*
X147697235Y-85524896D01*
X147850615Y-85562700D01*
X148008585Y-85562700D01*
X148161965Y-85524896D01*
X148301840Y-85451483D01*
X148420083Y-85346730D01*
X148509820Y-85216723D01*
X148565837Y-85069018D01*
X148584878Y-84912200D01*
X148565837Y-84755382D01*
X148509820Y-84607677D01*
X148442549Y-84510218D01*
X148420084Y-84477671D01*
X148404930Y-84464246D01*
X148301840Y-84372917D01*
X148250635Y-84346042D01*
X148161964Y-84299503D01*
X148008585Y-84261700D01*
X147850615Y-84261700D01*
X147697235Y-84299503D01*
X147557361Y-84372916D01*
X147439115Y-84477671D01*
X147349380Y-84607676D01*
X147293363Y-84755381D01*
X147274321Y-84912200D01*
X146756078Y-84912200D01*
X146737037Y-84755382D01*
X146681020Y-84607677D01*
X146613749Y-84510218D01*
X146591284Y-84477671D01*
X146576130Y-84464246D01*
X146473040Y-84372917D01*
X146421835Y-84346042D01*
X146333164Y-84299503D01*
X146179785Y-84261700D01*
X146021815Y-84261700D01*
X145868435Y-84299503D01*
X145728561Y-84372916D01*
X145610315Y-84477671D01*
X145520580Y-84607676D01*
X145464563Y-84755381D01*
X145445521Y-84912200D01*
X145173700Y-84912200D01*
X145173700Y-84455000D01*
X136500162Y-84455000D01*
X136433123Y-84435315D01*
X136412481Y-84418681D01*
X134300719Y-82306919D01*
X134267234Y-82245596D01*
X134264400Y-82219238D01*
X134264400Y-81559399D01*
X135006121Y-81559399D01*
X135025163Y-81716218D01*
X135081180Y-81863923D01*
X135170915Y-81993928D01*
X135170916Y-81993929D01*
X135170917Y-81993930D01*
X135289160Y-82098683D01*
X135429035Y-82172096D01*
X135582415Y-82209900D01*
X135740385Y-82209900D01*
X135893765Y-82172096D01*
X136033640Y-82098683D01*
X136151883Y-81993930D01*
X136241620Y-81863923D01*
X136297637Y-81716218D01*
X136316678Y-81559400D01*
X136297637Y-81402582D01*
X136241620Y-81254877D01*
X136155652Y-81130330D01*
X136151884Y-81124871D01*
X136120531Y-81097095D01*
X136033640Y-81020117D01*
X136000495Y-81002721D01*
X135893764Y-80946703D01*
X135740385Y-80908900D01*
X135582415Y-80908900D01*
X135429035Y-80946703D01*
X135289161Y-81020116D01*
X135170915Y-81124871D01*
X135081180Y-81254876D01*
X135025163Y-81402581D01*
X135006121Y-81559399D01*
X134264400Y-81559399D01*
X134264400Y-80670400D01*
X139120921Y-80670400D01*
X139139963Y-80827218D01*
X139195980Y-80974923D01*
X139285715Y-81104928D01*
X139285716Y-81104929D01*
X139285717Y-81104930D01*
X139403960Y-81209683D01*
X139543835Y-81283096D01*
X139697215Y-81320900D01*
X139855185Y-81320900D01*
X140008565Y-81283096D01*
X140148440Y-81209683D01*
X140211276Y-81154015D01*
X140274506Y-81124296D01*
X140343770Y-81133480D01*
X140397073Y-81178652D01*
X140417493Y-81245471D01*
X140417500Y-81246833D01*
X140417500Y-81538474D01*
X140432033Y-81611538D01*
X140432033Y-81611539D01*
X140432034Y-81611540D01*
X140487399Y-81694401D01*
X140570260Y-81749766D01*
X140606792Y-81757032D01*
X140643325Y-81764300D01*
X140643326Y-81764300D01*
X142253221Y-81764300D01*
X142320260Y-81783985D01*
X142366015Y-81836789D01*
X142376317Y-81873353D01*
X142391163Y-81995618D01*
X142447180Y-82143323D01*
X142536915Y-82273328D01*
X142536916Y-82273329D01*
X142536917Y-82273330D01*
X142655160Y-82378083D01*
X142795035Y-82451496D01*
X142948415Y-82489300D01*
X143106385Y-82489300D01*
X143259765Y-82451496D01*
X143399640Y-82378083D01*
X143517883Y-82273330D01*
X143607620Y-82143323D01*
X143663637Y-81995618D01*
X143680767Y-81854533D01*
X143708389Y-81790357D01*
X143766323Y-81751300D01*
X143826644Y-81747592D01*
X143916024Y-81764300D01*
X143916026Y-81764300D01*
X144119973Y-81764300D01*
X144119976Y-81764300D01*
X144209354Y-81747592D01*
X144278866Y-81754623D01*
X144333544Y-81798120D01*
X144355232Y-81854534D01*
X144372363Y-81995618D01*
X144428380Y-82143323D01*
X144518115Y-82273328D01*
X144518116Y-82273329D01*
X144518117Y-82273330D01*
X144636360Y-82378083D01*
X144776235Y-82451496D01*
X144929615Y-82489300D01*
X145087585Y-82489300D01*
X145240965Y-82451496D01*
X145380840Y-82378083D01*
X145499083Y-82273330D01*
X145588820Y-82143323D01*
X145644837Y-81995618D01*
X145663878Y-81838800D01*
X145644837Y-81681982D01*
X145588820Y-81534277D01*
X145571096Y-81508599D01*
X149585721Y-81508599D01*
X149604763Y-81665418D01*
X149660780Y-81813123D01*
X149750515Y-81943128D01*
X149750516Y-81943129D01*
X149750517Y-81943130D01*
X149868760Y-82047883D01*
X150008635Y-82121296D01*
X150162015Y-82159100D01*
X150319985Y-82159100D01*
X150473365Y-82121296D01*
X150613240Y-82047883D01*
X150731483Y-81943130D01*
X150821220Y-81813123D01*
X150877237Y-81665418D01*
X150896278Y-81508600D01*
X150877237Y-81351782D01*
X150821220Y-81204077D01*
X150740512Y-81087151D01*
X150731484Y-81074071D01*
X150731070Y-81073704D01*
X150613240Y-80969317D01*
X150512615Y-80916504D01*
X150473364Y-80895903D01*
X150319985Y-80858100D01*
X150162015Y-80858100D01*
X150008635Y-80895903D01*
X149868761Y-80969316D01*
X149750515Y-81074071D01*
X149660780Y-81204076D01*
X149604763Y-81351781D01*
X149585721Y-81508599D01*
X145571096Y-81508599D01*
X145571094Y-81508596D01*
X145549211Y-81442241D01*
X145566677Y-81374590D01*
X145617945Y-81327120D01*
X145686738Y-81314903D01*
X145702812Y-81317757D01*
X145818615Y-81346300D01*
X145818616Y-81346300D01*
X145976585Y-81346300D01*
X146129965Y-81308496D01*
X146269840Y-81235083D01*
X146388083Y-81130330D01*
X146477820Y-81000323D01*
X146533837Y-80852618D01*
X146552878Y-80695800D01*
X146533837Y-80538982D01*
X146477820Y-80391277D01*
X146390347Y-80264550D01*
X146388084Y-80261271D01*
X146388083Y-80261270D01*
X146269840Y-80156517D01*
X146221443Y-80131116D01*
X146129964Y-80083103D01*
X145976585Y-80045300D01*
X145818615Y-80045300D01*
X145665235Y-80083103D01*
X145525361Y-80156516D01*
X145407115Y-80261271D01*
X145317379Y-80391277D01*
X145317157Y-80391864D01*
X145315095Y-80394585D01*
X145308827Y-80403668D01*
X145308427Y-80403392D01*
X145274978Y-80447566D01*
X145209379Y-80471621D01*
X145141189Y-80456393D01*
X145092058Y-80406715D01*
X145081950Y-80381824D01*
X145048582Y-80264549D01*
X144957675Y-80081981D01*
X144834763Y-79919219D01*
X144684043Y-79781820D01*
X144677417Y-79777718D01*
X144663704Y-79769226D01*
X144617068Y-79717200D01*
X144605964Y-79648219D01*
X144633916Y-79584184D01*
X144663703Y-79558373D01*
X144684041Y-79545781D01*
X144759929Y-79476600D01*
X146639321Y-79476600D01*
X146658363Y-79633418D01*
X146714380Y-79781123D01*
X146804115Y-79911128D01*
X146804116Y-79911129D01*
X146804117Y-79911130D01*
X146922360Y-80015883D01*
X147062235Y-80089296D01*
X147215615Y-80127100D01*
X147373585Y-80127100D01*
X147526965Y-80089296D01*
X147666840Y-80015883D01*
X147785083Y-79911130D01*
X147874820Y-79781123D01*
X147930837Y-79633418D01*
X147949878Y-79476600D01*
X147930837Y-79319782D01*
X147874820Y-79172077D01*
X147799565Y-79063051D01*
X147785084Y-79042071D01*
X147748491Y-79009653D01*
X147666840Y-78937317D01*
X147589677Y-78896818D01*
X147526964Y-78863903D01*
X147373585Y-78826100D01*
X147215615Y-78826100D01*
X147062235Y-78863903D01*
X146922361Y-78937316D01*
X146804115Y-79042071D01*
X146714380Y-79172076D01*
X146658363Y-79319781D01*
X146639321Y-79476600D01*
X144759929Y-79476600D01*
X144834764Y-79408379D01*
X144957673Y-79245621D01*
X145040984Y-79078308D01*
X145088484Y-79027075D01*
X145156147Y-79009653D01*
X145222487Y-79031578D01*
X145254032Y-79063143D01*
X145330915Y-79174528D01*
X145330916Y-79174529D01*
X145330917Y-79174530D01*
X145449160Y-79279283D01*
X145589035Y-79352696D01*
X145742415Y-79390500D01*
X145900385Y-79390500D01*
X146053765Y-79352696D01*
X146193640Y-79279283D01*
X146311883Y-79174530D01*
X146401620Y-79044523D01*
X146457637Y-78896818D01*
X146476678Y-78740000D01*
X146457637Y-78583182D01*
X146401620Y-78435477D01*
X146311883Y-78305470D01*
X146193640Y-78200717D01*
X146180394Y-78193765D01*
X146053764Y-78127303D01*
X145900385Y-78089500D01*
X145742415Y-78089500D01*
X145742413Y-78089500D01*
X145664539Y-78108693D01*
X145594737Y-78105623D01*
X145537676Y-78065303D01*
X145511471Y-78000533D01*
X145524444Y-77931878D01*
X145532809Y-77917867D01*
X145614220Y-77799923D01*
X145670237Y-77652218D01*
X145689278Y-77495400D01*
X145670237Y-77338582D01*
X145614220Y-77190877D01*
X145524483Y-77060870D01*
X145406240Y-76956117D01*
X145392994Y-76949165D01*
X145266364Y-76882703D01*
X145112985Y-76844900D01*
X144955015Y-76844900D01*
X144801635Y-76882703D01*
X144661761Y-76956116D01*
X144543515Y-77060871D01*
X144453780Y-77190876D01*
X144397763Y-77338581D01*
X144380852Y-77477854D01*
X144353230Y-77542032D01*
X144295296Y-77581088D01*
X144234972Y-77584796D01*
X144159335Y-77570657D01*
X144119976Y-77563300D01*
X143916024Y-77563300D01*
X143825863Y-77580153D01*
X143756349Y-77573123D01*
X143701670Y-77529625D01*
X143679984Y-77473214D01*
X143663637Y-77338582D01*
X143607620Y-77190877D01*
X143517883Y-77060870D01*
X143399640Y-76956117D01*
X143386394Y-76949165D01*
X143259764Y-76882703D01*
X143106385Y-76844900D01*
X142948415Y-76844900D01*
X142795035Y-76882703D01*
X142655161Y-76956116D01*
X142536915Y-77060871D01*
X142447180Y-77190876D01*
X142391163Y-77338581D01*
X142372121Y-77495399D01*
X142391163Y-77652218D01*
X142391719Y-77653684D01*
X142392374Y-77662196D01*
X142392978Y-77667164D01*
X142392759Y-77667190D01*
X142397086Y-77723348D01*
X142363938Y-77784854D01*
X142302800Y-77818675D01*
X142233082Y-77814073D01*
X142192239Y-77789292D01*
X142184041Y-77781818D01*
X142010638Y-77674452D01*
X141820457Y-77600776D01*
X141734970Y-77584796D01*
X141619976Y-77563300D01*
X141416024Y-77563300D01*
X141325863Y-77580154D01*
X141215542Y-77600776D01*
X141025361Y-77674452D01*
X140888214Y-77759370D01*
X140820853Y-77777925D01*
X140754154Y-77757117D01*
X140709293Y-77703552D01*
X140700513Y-77634236D01*
X140706995Y-77609972D01*
X140716543Y-77584796D01*
X140768037Y-77449018D01*
X140787078Y-77292200D01*
X140768037Y-77135382D01*
X140712020Y-76987677D01*
X140622283Y-76857670D01*
X140504040Y-76752917D01*
X140490794Y-76745965D01*
X140364164Y-76679503D01*
X140210785Y-76641700D01*
X140052815Y-76641700D01*
X139899435Y-76679503D01*
X139759561Y-76752916D01*
X139641315Y-76857671D01*
X139551580Y-76987676D01*
X139495563Y-77135381D01*
X139476521Y-77292200D01*
X139495563Y-77449018D01*
X139551580Y-77596723D01*
X139641315Y-77726728D01*
X139641316Y-77726729D01*
X139641317Y-77726730D01*
X139759560Y-77831483D01*
X139899435Y-77904896D01*
X140052815Y-77942700D01*
X140210785Y-77942700D01*
X140364165Y-77904896D01*
X140450248Y-77859715D01*
X140518753Y-77845990D01*
X140583806Y-77871481D01*
X140624751Y-77928097D01*
X140628588Y-77997861D01*
X140606827Y-78044238D01*
X140578324Y-78081981D01*
X140487418Y-78264548D01*
X140431602Y-78460716D01*
X140412785Y-78663799D01*
X140431602Y-78866883D01*
X140487418Y-79063051D01*
X140578326Y-79245621D01*
X140676240Y-79375281D01*
X140700932Y-79440642D01*
X140686367Y-79508977D01*
X140637169Y-79558589D01*
X140601479Y-79571624D01*
X140570261Y-79577833D01*
X140487399Y-79633199D01*
X140432033Y-79716061D01*
X140417500Y-79789125D01*
X140417500Y-80093966D01*
X140397815Y-80161005D01*
X140345011Y-80206760D01*
X140275853Y-80216704D01*
X140212297Y-80187679D01*
X140211274Y-80186782D01*
X140148441Y-80131118D01*
X140148440Y-80131117D01*
X140056958Y-80083103D01*
X140008564Y-80057703D01*
X139855185Y-80019900D01*
X139697215Y-80019900D01*
X139543835Y-80057703D01*
X139403961Y-80131116D01*
X139285715Y-80235871D01*
X139195980Y-80365876D01*
X139139963Y-80513581D01*
X139120921Y-80670400D01*
X134264400Y-80670400D01*
X134264400Y-75953800D01*
X134742389Y-75953800D01*
X134762804Y-76239229D01*
X134823629Y-76518841D01*
X134923634Y-76786963D01*
X135060772Y-77038113D01*
X135134290Y-77136321D01*
X135232261Y-77267195D01*
X135434605Y-77469539D01*
X135604503Y-77596723D01*
X135663686Y-77641027D01*
X135731062Y-77677817D01*
X135914839Y-77778167D01*
X136182954Y-77878169D01*
X136182957Y-77878169D01*
X136182958Y-77878170D01*
X136195508Y-77880900D01*
X136462572Y-77938996D01*
X136748000Y-77959410D01*
X137033428Y-77938996D01*
X137313046Y-77878169D01*
X137581161Y-77778167D01*
X137832315Y-77641026D01*
X138061395Y-77469539D01*
X138263739Y-77267195D01*
X138435226Y-77038115D01*
X138572367Y-76786961D01*
X138672369Y-76518846D01*
X138733196Y-76239228D01*
X138753610Y-75953800D01*
X146782389Y-75953800D01*
X146802804Y-76239229D01*
X146863629Y-76518841D01*
X146963634Y-76786963D01*
X147100772Y-77038113D01*
X147174290Y-77136321D01*
X147272261Y-77267195D01*
X147474605Y-77469539D01*
X147644503Y-77596723D01*
X147703686Y-77641027D01*
X147771062Y-77677817D01*
X147954839Y-77778167D01*
X148222954Y-77878169D01*
X148222957Y-77878169D01*
X148222958Y-77878170D01*
X148235508Y-77880900D01*
X148502572Y-77938996D01*
X148788000Y-77959410D01*
X149073428Y-77938996D01*
X149353046Y-77878169D01*
X149621161Y-77778167D01*
X149872315Y-77641026D01*
X150101395Y-77469539D01*
X150303739Y-77267195D01*
X150475226Y-77038115D01*
X150612367Y-76786961D01*
X150712369Y-76518846D01*
X150773196Y-76239228D01*
X150793610Y-75953800D01*
X150773196Y-75668372D01*
X150723738Y-75441017D01*
X150712370Y-75388758D01*
X150712369Y-75388754D01*
X150612367Y-75120639D01*
X150475226Y-74869485D01*
X150303739Y-74640405D01*
X150101395Y-74438061D01*
X149930725Y-74310299D01*
X149872313Y-74266572D01*
X149621163Y-74129434D01*
X149621162Y-74129433D01*
X149621161Y-74129433D01*
X149353046Y-74029431D01*
X149353041Y-74029429D01*
X149073429Y-73968604D01*
X148788000Y-73948189D01*
X148502570Y-73968604D01*
X148222958Y-74029429D01*
X147954836Y-74129434D01*
X147703686Y-74266572D01*
X147474602Y-74438063D01*
X147272263Y-74640402D01*
X147100772Y-74869486D01*
X146963634Y-75120636D01*
X146863629Y-75388758D01*
X146802804Y-75668370D01*
X146782389Y-75953800D01*
X138753610Y-75953800D01*
X138733196Y-75668372D01*
X138683738Y-75441017D01*
X138672370Y-75388758D01*
X138672369Y-75388754D01*
X138572367Y-75120639D01*
X138435226Y-74869485D01*
X138263739Y-74640405D01*
X138061395Y-74438061D01*
X137890725Y-74310299D01*
X137832313Y-74266572D01*
X137581163Y-74129434D01*
X137581162Y-74129433D01*
X137581161Y-74129433D01*
X137313046Y-74029431D01*
X137313041Y-74029429D01*
X137033429Y-73968604D01*
X136748000Y-73948189D01*
X136462570Y-73968604D01*
X136182958Y-74029429D01*
X135914836Y-74129434D01*
X135663686Y-74266572D01*
X135434602Y-74438063D01*
X135232263Y-74640402D01*
X135060772Y-74869486D01*
X134923634Y-75120636D01*
X134823629Y-75388758D01*
X134762804Y-75668370D01*
X134742389Y-75953800D01*
X134264400Y-75953800D01*
X134264400Y-72364600D01*
X142168921Y-72364600D01*
X142187963Y-72521418D01*
X142243980Y-72669123D01*
X142333715Y-72799128D01*
X142333716Y-72799129D01*
X142333717Y-72799130D01*
X142451960Y-72903883D01*
X142591835Y-72977296D01*
X142745215Y-73015100D01*
X142903185Y-73015100D01*
X143056565Y-72977296D01*
X143196440Y-72903883D01*
X143314683Y-72799130D01*
X143404420Y-72669123D01*
X143460437Y-72521418D01*
X143479478Y-72364600D01*
X143460437Y-72207782D01*
X143404420Y-72060077D01*
X143322168Y-71940914D01*
X143314684Y-71930071D01*
X143256973Y-71878944D01*
X143196440Y-71825317D01*
X143164095Y-71808341D01*
X143056564Y-71751903D01*
X142903185Y-71714100D01*
X142745215Y-71714100D01*
X142591835Y-71751903D01*
X142451961Y-71825316D01*
X142333715Y-71930071D01*
X142243980Y-72060076D01*
X142187963Y-72207781D01*
X142168921Y-72364600D01*
X134264400Y-72364600D01*
X134264400Y-69240400D01*
X135031521Y-69240400D01*
X135050563Y-69397218D01*
X135106580Y-69544923D01*
X135196315Y-69674928D01*
X135196316Y-69674929D01*
X135196317Y-69674930D01*
X135314560Y-69779683D01*
X135454435Y-69853096D01*
X135607815Y-69890900D01*
X135765785Y-69890900D01*
X135919165Y-69853096D01*
X136059040Y-69779683D01*
X136177283Y-69674930D01*
X136267020Y-69544923D01*
X136323037Y-69397218D01*
X136342078Y-69240400D01*
X136335910Y-69189599D01*
X149585721Y-69189599D01*
X149604763Y-69346418D01*
X149660780Y-69494123D01*
X149750515Y-69624128D01*
X149750516Y-69624129D01*
X149750517Y-69624130D01*
X149868760Y-69728883D01*
X150008635Y-69802296D01*
X150162015Y-69840100D01*
X150319985Y-69840100D01*
X150473365Y-69802296D01*
X150613240Y-69728883D01*
X150731483Y-69624130D01*
X150821220Y-69494123D01*
X150877237Y-69346418D01*
X150896278Y-69189600D01*
X150877237Y-69032782D01*
X150821220Y-68885077D01*
X150757193Y-68792318D01*
X150731484Y-68755071D01*
X150684513Y-68713459D01*
X150613240Y-68650317D01*
X150550917Y-68617607D01*
X150473364Y-68576903D01*
X150319985Y-68539100D01*
X150162015Y-68539100D01*
X150008635Y-68576903D01*
X149868761Y-68650316D01*
X149750515Y-68755071D01*
X149660780Y-68885076D01*
X149604763Y-69032781D01*
X149585721Y-69189599D01*
X136335910Y-69189599D01*
X136323037Y-69083582D01*
X136267020Y-68935877D01*
X136177283Y-68805870D01*
X136059040Y-68701117D01*
X136045794Y-68694165D01*
X135919164Y-68627703D01*
X135765785Y-68589900D01*
X135607815Y-68589900D01*
X135454435Y-68627703D01*
X135314561Y-68701116D01*
X135196315Y-68805871D01*
X135106580Y-68935876D01*
X135050563Y-69083581D01*
X135031521Y-69240400D01*
X134264400Y-69240400D01*
X134264400Y-67184597D01*
X134284085Y-67117558D01*
X134336889Y-67071803D01*
X134388400Y-67060597D01*
X151158400Y-67060597D01*
X151225439Y-67080282D01*
X151271194Y-67133086D01*
X151282400Y-67184597D01*
X151282400Y-82193837D01*
X151262715Y-82260876D01*
X151246081Y-82281518D01*
X149072600Y-84454999D01*
X149072600Y-84455000D01*
X149072600Y-85496400D01*
X149453600Y-85496400D01*
X150596600Y-84353400D01*
X153167121Y-84353400D01*
X153186163Y-84510218D01*
X153242180Y-84657923D01*
X153331915Y-84787928D01*
X153331916Y-84787929D01*
X153331917Y-84787930D01*
X153450160Y-84892683D01*
X153590035Y-84966096D01*
X153743415Y-85003900D01*
X153901385Y-85003900D01*
X154054765Y-84966096D01*
X154194640Y-84892683D01*
X154312883Y-84787930D01*
X154402620Y-84657923D01*
X154458637Y-84510218D01*
X154477678Y-84353400D01*
X154476971Y-84347581D01*
X154468416Y-84277119D01*
X154458637Y-84196582D01*
X154402620Y-84048877D01*
X154312883Y-83918870D01*
X154194640Y-83814117D01*
X154163353Y-83797696D01*
X154054764Y-83740703D01*
X153901385Y-83702900D01*
X153743415Y-83702900D01*
X153590035Y-83740703D01*
X153450161Y-83814116D01*
X153331915Y-83918871D01*
X153242180Y-84048876D01*
X153186163Y-84196581D01*
X153167121Y-84353400D01*
X150596600Y-84353400D01*
X152298400Y-82651600D01*
X152298400Y-79273400D01*
X157739121Y-79273400D01*
X157758163Y-79430218D01*
X157814180Y-79577923D01*
X157903915Y-79707928D01*
X157903916Y-79707929D01*
X157903917Y-79707930D01*
X158022160Y-79812683D01*
X158162035Y-79886096D01*
X158315415Y-79923900D01*
X158473385Y-79923900D01*
X158626765Y-79886096D01*
X158766640Y-79812683D01*
X158884883Y-79707930D01*
X158974620Y-79577923D01*
X159030637Y-79430218D01*
X159049678Y-79273400D01*
X159030637Y-79116582D01*
X158974620Y-78968877D01*
X158884883Y-78838870D01*
X158766640Y-78734117D01*
X158753394Y-78727164D01*
X158626764Y-78660703D01*
X158473385Y-78622900D01*
X158315415Y-78622900D01*
X158162035Y-78660703D01*
X158022161Y-78734116D01*
X157903915Y-78838871D01*
X157814180Y-78968876D01*
X157758163Y-79116581D01*
X157739121Y-79273400D01*
X152298400Y-79273400D01*
X152298400Y-77880899D01*
X164552385Y-77880899D01*
X164571202Y-78083983D01*
X164627018Y-78280151D01*
X164717924Y-78462718D01*
X164840836Y-78625480D01*
X164991558Y-78762881D01*
X165164961Y-78870247D01*
X165164963Y-78870248D01*
X165355144Y-78943924D01*
X165555624Y-78981400D01*
X165555626Y-78981400D01*
X165759574Y-78981400D01*
X165759576Y-78981400D01*
X165960056Y-78943924D01*
X166150237Y-78870248D01*
X166323641Y-78762881D01*
X166474364Y-78625479D01*
X166597273Y-78462721D01*
X166597273Y-78462719D01*
X166597275Y-78462718D01*
X166645643Y-78365580D01*
X166688182Y-78280150D01*
X166743997Y-78083983D01*
X166762815Y-77880900D01*
X166743997Y-77677817D01*
X166742073Y-77671056D01*
X166711414Y-77563300D01*
X166688182Y-77481650D01*
X166683980Y-77473211D01*
X166597275Y-77299081D01*
X166474363Y-77136319D01*
X166323641Y-76998918D01*
X166150238Y-76891552D01*
X165960057Y-76817876D01*
X165893229Y-76805384D01*
X165759576Y-76780400D01*
X165555624Y-76780400D01*
X165455384Y-76799137D01*
X165355142Y-76817876D01*
X165164961Y-76891552D01*
X164991558Y-76998918D01*
X164840836Y-77136319D01*
X164717924Y-77299081D01*
X164627018Y-77481648D01*
X164571202Y-77677816D01*
X164552385Y-77880899D01*
X152298400Y-77880899D01*
X152298400Y-76215524D01*
X164557600Y-76215524D01*
X164572104Y-76288443D01*
X164627360Y-76371139D01*
X164710056Y-76426395D01*
X164782975Y-76440900D01*
X165407600Y-76440900D01*
X165407600Y-75776401D01*
X165515285Y-75825580D01*
X165621837Y-75840900D01*
X165693363Y-75840900D01*
X165799915Y-75825580D01*
X165907600Y-75776401D01*
X165907600Y-76440900D01*
X166532225Y-76440900D01*
X166605143Y-76426395D01*
X166687839Y-76371139D01*
X166743095Y-76288443D01*
X166757600Y-76215524D01*
X166757600Y-75590900D01*
X166091286Y-75590900D01*
X166117093Y-75550744D01*
X166157600Y-75412789D01*
X166157600Y-75269011D01*
X166117093Y-75131056D01*
X166091286Y-75090900D01*
X166757600Y-75090900D01*
X166757600Y-74466275D01*
X166743095Y-74393356D01*
X166687839Y-74310660D01*
X166605143Y-74255404D01*
X166532225Y-74240900D01*
X165907600Y-74240900D01*
X165907600Y-74905398D01*
X165799915Y-74856220D01*
X165693363Y-74840900D01*
X165621837Y-74840900D01*
X165515285Y-74856220D01*
X165407600Y-74905398D01*
X165407600Y-74240900D01*
X164782975Y-74240900D01*
X164710056Y-74255404D01*
X164627360Y-74310660D01*
X164572104Y-74393356D01*
X164557600Y-74466275D01*
X164557600Y-75090900D01*
X165223914Y-75090900D01*
X165198107Y-75131056D01*
X165157600Y-75269011D01*
X165157600Y-75412789D01*
X165198107Y-75550744D01*
X165223914Y-75590900D01*
X164557600Y-75590900D01*
X164557600Y-76215524D01*
X152298400Y-76215524D01*
X152298400Y-70637400D01*
X153395721Y-70637400D01*
X153414763Y-70794218D01*
X153470780Y-70941923D01*
X153560515Y-71071928D01*
X153560516Y-71071929D01*
X153560517Y-71071930D01*
X153678760Y-71176683D01*
X153818635Y-71250096D01*
X153972015Y-71287900D01*
X154129985Y-71287900D01*
X154283365Y-71250096D01*
X154423240Y-71176683D01*
X154541483Y-71071930D01*
X154631220Y-70941923D01*
X154687237Y-70794218D01*
X154706278Y-70637400D01*
X155537521Y-70637400D01*
X155556563Y-70794218D01*
X155612580Y-70941923D01*
X155702315Y-71071928D01*
X155702316Y-71071929D01*
X155702317Y-71071930D01*
X155820560Y-71176683D01*
X155960435Y-71250096D01*
X156113815Y-71287900D01*
X156271785Y-71287900D01*
X156425165Y-71250096D01*
X156565040Y-71176683D01*
X156683283Y-71071930D01*
X156773020Y-70941923D01*
X156829037Y-70794218D01*
X156848078Y-70637400D01*
X156829037Y-70480582D01*
X156773020Y-70332877D01*
X156770112Y-70328664D01*
X162003387Y-70328664D01*
X162033013Y-70597916D01*
X162033014Y-70597918D01*
X162101528Y-70859988D01*
X162207470Y-71109290D01*
X162207471Y-71109292D01*
X162348582Y-71340511D01*
X162521853Y-71548718D01*
X162521855Y-71548720D01*
X162723598Y-71729482D01*
X162949510Y-71878944D01*
X163055811Y-71928776D01*
X163194777Y-71993921D01*
X163454162Y-72071958D01*
X163454169Y-72071960D01*
X163722161Y-72111400D01*
X163722164Y-72111400D01*
X163922969Y-72111400D01*
X163925231Y-72111400D01*
X164127756Y-72096577D01*
X164392153Y-72037680D01*
X164645158Y-71940914D01*
X164881377Y-71808341D01*
X165095777Y-71642788D01*
X165283786Y-71447781D01*
X165441399Y-71227479D01*
X165565256Y-70986575D01*
X165652718Y-70730205D01*
X165701919Y-70463833D01*
X165711812Y-70193135D01*
X165682186Y-69923882D01*
X165613672Y-69661812D01*
X165507730Y-69412510D01*
X165404654Y-69243614D01*
X165366617Y-69181288D01*
X165193346Y-68973081D01*
X165129446Y-68915826D01*
X164991602Y-68792318D01*
X164765690Y-68642856D01*
X164733366Y-68627703D01*
X164520422Y-68527878D01*
X164261037Y-68449841D01*
X164261031Y-68449840D01*
X163993039Y-68410400D01*
X163789969Y-68410400D01*
X163787720Y-68410564D01*
X163787709Y-68410565D01*
X163587443Y-68425222D01*
X163323049Y-68484119D01*
X163070041Y-68580886D01*
X162833823Y-68713459D01*
X162619425Y-68879009D01*
X162431413Y-69074020D01*
X162273801Y-69294320D01*
X162149942Y-69535229D01*
X162062481Y-69791595D01*
X162013280Y-70057966D01*
X162003387Y-70328664D01*
X156770112Y-70328664D01*
X156720423Y-70256677D01*
X156683284Y-70202871D01*
X156598447Y-70127713D01*
X156565040Y-70098117D01*
X156488540Y-70057966D01*
X156425164Y-70024703D01*
X156271785Y-69986900D01*
X156113815Y-69986900D01*
X155960435Y-70024703D01*
X155820561Y-70098116D01*
X155702315Y-70202871D01*
X155612580Y-70332876D01*
X155556563Y-70480581D01*
X155537521Y-70637400D01*
X154706278Y-70637400D01*
X154687237Y-70480582D01*
X154631220Y-70332877D01*
X154578623Y-70256677D01*
X154541484Y-70202871D01*
X154456647Y-70127713D01*
X154423240Y-70098117D01*
X154346740Y-70057966D01*
X154283364Y-70024703D01*
X154129985Y-69986900D01*
X153972015Y-69986900D01*
X153818635Y-70024703D01*
X153678761Y-70098116D01*
X153560515Y-70202871D01*
X153470780Y-70332876D01*
X153414763Y-70480581D01*
X153395721Y-70637400D01*
X152298400Y-70637400D01*
X152298400Y-67184596D01*
X152318085Y-67117558D01*
X152370889Y-67071803D01*
X152422400Y-67060597D01*
X163854355Y-67060597D01*
X163860843Y-67060766D01*
X163991179Y-67067597D01*
X164052461Y-67071039D01*
X164167676Y-67077510D01*
X164174588Y-67078092D01*
X164231862Y-67084546D01*
X164237267Y-67085279D01*
X164362203Y-67105066D01*
X164506534Y-67129589D01*
X164522155Y-67132244D01*
X164528940Y-67133593D01*
X164563652Y-67141516D01*
X164568026Y-67142601D01*
X164705925Y-67179551D01*
X164868268Y-67226321D01*
X164874877Y-67228427D01*
X164882631Y-67231140D01*
X164886071Y-67232402D01*
X165035201Y-67289648D01*
X165038130Y-67290817D01*
X165172496Y-67346473D01*
X165193825Y-67355308D01*
X165202654Y-67359378D01*
X165291416Y-67404604D01*
X165350634Y-67434777D01*
X165354320Y-67436734D01*
X165421377Y-67473795D01*
X165500867Y-67517728D01*
X165508414Y-67522257D01*
X165648171Y-67613016D01*
X165652391Y-67615882D01*
X165788485Y-67712446D01*
X165794766Y-67717209D01*
X165924513Y-67822276D01*
X165929103Y-67826182D01*
X166053338Y-67937204D01*
X166058393Y-67941983D01*
X166176514Y-68060104D01*
X166181278Y-68065143D01*
X166292315Y-68189393D01*
X166292317Y-68189395D01*
X166296223Y-68193986D01*
X166401287Y-68323729D01*
X166406051Y-68330010D01*
X166502625Y-68466119D01*
X166505490Y-68470339D01*
X166596238Y-68610078D01*
X166600771Y-68617632D01*
X166681765Y-68764180D01*
X166683722Y-68767866D01*
X166759111Y-68915826D01*
X166763187Y-68924667D01*
X166827673Y-69080347D01*
X166828876Y-69083363D01*
X166886076Y-69232373D01*
X166887355Y-69235860D01*
X166890068Y-69243614D01*
X166892179Y-69250237D01*
X166938958Y-69412609D01*
X166975884Y-69550418D01*
X166976992Y-69554889D01*
X166984899Y-69589532D01*
X166986256Y-69596353D01*
X167013455Y-69756436D01*
X167033211Y-69881171D01*
X167033956Y-69886677D01*
X167040403Y-69943895D01*
X167040988Y-69950826D01*
X167050919Y-70127657D01*
X167057732Y-70257658D01*
X167057902Y-70264147D01*
X167057902Y-80974357D01*
X167038217Y-81041396D01*
X166985413Y-81087151D01*
X166916255Y-81097095D01*
X166876277Y-81084154D01*
X166856365Y-81073704D01*
X166744459Y-81046122D01*
X166684079Y-81010966D01*
X166652290Y-80948747D01*
X166659186Y-80879218D01*
X166663134Y-80870453D01*
X166672856Y-80850928D01*
X166688182Y-80820150D01*
X166743997Y-80623983D01*
X166762815Y-80420900D01*
X166743997Y-80217817D01*
X166743680Y-80216704D01*
X166688181Y-80021648D01*
X166597275Y-79839081D01*
X166474363Y-79676319D01*
X166323641Y-79538918D01*
X166150238Y-79431552D01*
X165960057Y-79357876D01*
X165893229Y-79345384D01*
X165759576Y-79320400D01*
X165555624Y-79320400D01*
X165455384Y-79339137D01*
X165355142Y-79357876D01*
X165164961Y-79431552D01*
X164991558Y-79538918D01*
X164840836Y-79676319D01*
X164717926Y-79839079D01*
X164696800Y-79881507D01*
X164649297Y-79932744D01*
X164581634Y-79950165D01*
X164515294Y-79928239D01*
X164503583Y-79919059D01*
X164456240Y-79877117D01*
X164442994Y-79870164D01*
X164316364Y-79803703D01*
X164162985Y-79765900D01*
X164005015Y-79765900D01*
X163851635Y-79803703D01*
X163711761Y-79877116D01*
X163593515Y-79981871D01*
X163503780Y-80111876D01*
X163447763Y-80259581D01*
X163428721Y-80416400D01*
X163447763Y-80573218D01*
X163503780Y-80720923D01*
X163593515Y-80850928D01*
X163593516Y-80850929D01*
X163593517Y-80850930D01*
X163711760Y-80955683D01*
X163851635Y-81029096D01*
X164005015Y-81066900D01*
X164162985Y-81066900D01*
X164316365Y-81029096D01*
X164456240Y-80955683D01*
X164500467Y-80916501D01*
X164563695Y-80886782D01*
X164632959Y-80895965D01*
X164686262Y-80941137D01*
X164693690Y-80954048D01*
X164717924Y-81002718D01*
X164840836Y-81165480D01*
X164991558Y-81302881D01*
X165107373Y-81374590D01*
X165164963Y-81410248D01*
X165355144Y-81483924D01*
X165555624Y-81521400D01*
X165555626Y-81521400D01*
X165759578Y-81521400D01*
X165797481Y-81514314D01*
X165827809Y-81508645D01*
X165897323Y-81515675D01*
X165952002Y-81559172D01*
X165974485Y-81625326D01*
X165973690Y-81645479D01*
X165968721Y-81686399D01*
X165974808Y-81736529D01*
X165963347Y-81805453D01*
X165916443Y-81857238D01*
X165848987Y-81875445D01*
X165828928Y-81873364D01*
X165778422Y-81863923D01*
X165759576Y-81860400D01*
X165555624Y-81860400D01*
X165475140Y-81875445D01*
X165355142Y-81897876D01*
X165164961Y-81971552D01*
X164991558Y-82078918D01*
X164840836Y-82216319D01*
X164717924Y-82379081D01*
X164625435Y-82564827D01*
X164577932Y-82616065D01*
X164510270Y-82633486D01*
X164456809Y-82619353D01*
X164419956Y-82600011D01*
X164367165Y-82572304D01*
X164367162Y-82572303D01*
X164213785Y-82534500D01*
X164055815Y-82534500D01*
X163902435Y-82572303D01*
X163762561Y-82645716D01*
X163644315Y-82750471D01*
X163554580Y-82880476D01*
X163498563Y-83028181D01*
X163479521Y-83184999D01*
X163498563Y-83341818D01*
X163554580Y-83489523D01*
X163644315Y-83619528D01*
X163644316Y-83619529D01*
X163644317Y-83619530D01*
X163762560Y-83724283D01*
X163902435Y-83797696D01*
X164055815Y-83835500D01*
X164213785Y-83835500D01*
X164367165Y-83797696D01*
X164507040Y-83724283D01*
X164615175Y-83628484D01*
X164678405Y-83598764D01*
X164747668Y-83607948D01*
X164796353Y-83646574D01*
X164840836Y-83705480D01*
X164991558Y-83842881D01*
X165114287Y-83918871D01*
X165164963Y-83950248D01*
X165355144Y-84023924D01*
X165555624Y-84061400D01*
X165555626Y-84061400D01*
X165759578Y-84061400D01*
X165798295Y-84054162D01*
X165824652Y-84049235D01*
X165894167Y-84056265D01*
X165948846Y-84099762D01*
X165971329Y-84165916D01*
X165970534Y-84186067D01*
X165968721Y-84200997D01*
X165977964Y-84277119D01*
X165966503Y-84346042D01*
X165919599Y-84397828D01*
X165852144Y-84416035D01*
X165832085Y-84413954D01*
X165759576Y-84400400D01*
X165555624Y-84400400D01*
X165471984Y-84416035D01*
X165355142Y-84437876D01*
X165164961Y-84511552D01*
X164991558Y-84618918D01*
X164840836Y-84756319D01*
X164717924Y-84919081D01*
X164625435Y-85104827D01*
X164577932Y-85156065D01*
X164510270Y-85173486D01*
X164456809Y-85159353D01*
X164419956Y-85140011D01*
X164367165Y-85112304D01*
X164367162Y-85112303D01*
X164213785Y-85074500D01*
X164055815Y-85074500D01*
X163902435Y-85112303D01*
X163762561Y-85185716D01*
X163644315Y-85290471D01*
X163554580Y-85420476D01*
X163498563Y-85568181D01*
X163479521Y-85725000D01*
X163498563Y-85881818D01*
X163554580Y-86029523D01*
X163644315Y-86159528D01*
X163644316Y-86159529D01*
X163644317Y-86159530D01*
X163762560Y-86264283D01*
X163902435Y-86337696D01*
X164055815Y-86375500D01*
X164213785Y-86375500D01*
X164367165Y-86337696D01*
X164507040Y-86264283D01*
X164615175Y-86168484D01*
X164678405Y-86138764D01*
X164747668Y-86147948D01*
X164796353Y-86186574D01*
X164840836Y-86245480D01*
X164991558Y-86382881D01*
X165164961Y-86490247D01*
X165164963Y-86490248D01*
X165355144Y-86563924D01*
X165555624Y-86601400D01*
X165555626Y-86601400D01*
X165759578Y-86601400D01*
X165796769Y-86594447D01*
X165830965Y-86588055D01*
X165900479Y-86595085D01*
X165955158Y-86638582D01*
X165977641Y-86704736D01*
X165976846Y-86724889D01*
X165968721Y-86791802D01*
X165971652Y-86815941D01*
X165960191Y-86884864D01*
X165913286Y-86936649D01*
X165845830Y-86954855D01*
X165825772Y-86952774D01*
X165801443Y-86948226D01*
X165759576Y-86940400D01*
X165555624Y-86940400D01*
X165455384Y-86959137D01*
X165355142Y-86977876D01*
X165164961Y-87051552D01*
X164991558Y-87158918D01*
X164840836Y-87296319D01*
X164717924Y-87459081D01*
X164625435Y-87644827D01*
X164577932Y-87696065D01*
X164510270Y-87713486D01*
X164456809Y-87699353D01*
X164419956Y-87680011D01*
X164367165Y-87652304D01*
X164367162Y-87652303D01*
X164213785Y-87614500D01*
X164055815Y-87614500D01*
X163902435Y-87652303D01*
X163762561Y-87725716D01*
X163644315Y-87830471D01*
X163554580Y-87960476D01*
X163498563Y-88108181D01*
X163479521Y-88265000D01*
X163498563Y-88421818D01*
X163554580Y-88569523D01*
X163644315Y-88699528D01*
X163644316Y-88699529D01*
X163644317Y-88699530D01*
X163762560Y-88804283D01*
X163902435Y-88877696D01*
X164055815Y-88915500D01*
X164213785Y-88915500D01*
X164367165Y-88877696D01*
X164507040Y-88804283D01*
X164615175Y-88708484D01*
X164678405Y-88678764D01*
X164747668Y-88687948D01*
X164796353Y-88726574D01*
X164840836Y-88785480D01*
X164991558Y-88922881D01*
X165093661Y-88986100D01*
X165164963Y-89030248D01*
X165355144Y-89103924D01*
X165555624Y-89141400D01*
X165555626Y-89141400D01*
X165759574Y-89141400D01*
X165759576Y-89141400D01*
X165960056Y-89103924D01*
X166150237Y-89030248D01*
X166323641Y-88922881D01*
X166373207Y-88877696D01*
X166474363Y-88785480D01*
X166488230Y-88767117D01*
X166597273Y-88622721D01*
X166597273Y-88622719D01*
X166597275Y-88622718D01*
X166685504Y-88445528D01*
X166688182Y-88440150D01*
X166743997Y-88243983D01*
X166762815Y-88040900D01*
X166743997Y-87837817D01*
X166743575Y-87836335D01*
X166688182Y-87641650D01*
X166670407Y-87605953D01*
X166658146Y-87537168D01*
X166685019Y-87472673D01*
X166742495Y-87432945D01*
X166751717Y-87430288D01*
X166856365Y-87404496D01*
X166876276Y-87394045D01*
X166944783Y-87380320D01*
X167009836Y-87405811D01*
X167050781Y-87462427D01*
X167057902Y-87503842D01*
X167057902Y-133757653D01*
X167057732Y-133764142D01*
X167050920Y-133894134D01*
X167040988Y-134070974D01*
X167040403Y-134077903D01*
X167033957Y-134135116D01*
X167033210Y-134140631D01*
X167013457Y-134265347D01*
X166986255Y-134425451D01*
X166984898Y-134432271D01*
X166976993Y-134466900D01*
X166975878Y-134471396D01*
X166938962Y-134609174D01*
X166892174Y-134771577D01*
X166890067Y-134778186D01*
X166887357Y-134785931D01*
X166886079Y-134789416D01*
X166828881Y-134938421D01*
X166827678Y-134941436D01*
X166763185Y-135097135D01*
X166759109Y-135105977D01*
X166683733Y-135253910D01*
X166681776Y-135257596D01*
X166600764Y-135404177D01*
X166596231Y-135411731D01*
X166505500Y-135551444D01*
X166502635Y-135555664D01*
X166406045Y-135691795D01*
X166401281Y-135698076D01*
X166296240Y-135827791D01*
X166292334Y-135832382D01*
X166181276Y-135956657D01*
X166176497Y-135961711D01*
X166058411Y-136079797D01*
X166053357Y-136084576D01*
X165929082Y-136195634D01*
X165924491Y-136199540D01*
X165794776Y-136304581D01*
X165788495Y-136309345D01*
X165652364Y-136405935D01*
X165648144Y-136408800D01*
X165508431Y-136499531D01*
X165500877Y-136504064D01*
X165354296Y-136585076D01*
X165350610Y-136587033D01*
X165202677Y-136662409D01*
X165193835Y-136666485D01*
X165038136Y-136730978D01*
X165035121Y-136732181D01*
X164886116Y-136789379D01*
X164882637Y-136790655D01*
X164874899Y-136793363D01*
X164868268Y-136795477D01*
X164705875Y-136842262D01*
X164568089Y-136879181D01*
X164563608Y-136880292D01*
X164528972Y-136888198D01*
X164522149Y-136889555D01*
X164362048Y-136916757D01*
X164237327Y-136936511D01*
X164231818Y-136937257D01*
X164174602Y-136943703D01*
X164167673Y-136944288D01*
X163990835Y-136954220D01*
X163860843Y-136961033D01*
X163854354Y-136961203D01*
X121740848Y-136961203D01*
X121734357Y-136961033D01*
X121604358Y-136954219D01*
X121427525Y-136944288D01*
X121420596Y-136943703D01*
X121363382Y-136937257D01*
X121357868Y-136936510D01*
X121233137Y-136916755D01*
X121125751Y-136898510D01*
X121073043Y-136889554D01*
X121066242Y-136888201D01*
X121031596Y-136880294D01*
X121027097Y-136879178D01*
X120889309Y-136842258D01*
X120726930Y-136795477D01*
X120720319Y-136793370D01*
X120712557Y-136790654D01*
X120709073Y-136789376D01*
X120560063Y-136732176D01*
X120557061Y-136730978D01*
X120501756Y-136708070D01*
X120401367Y-136666487D01*
X120392526Y-136662411D01*
X120244566Y-136587022D01*
X120240880Y-136585065D01*
X120094332Y-136504071D01*
X120086778Y-136499538D01*
X119947039Y-136408790D01*
X119942819Y-136405925D01*
X119806710Y-136309351D01*
X119800429Y-136304587D01*
X119670686Y-136199523D01*
X119666095Y-136195617D01*
X119541840Y-136084576D01*
X119536804Y-136079814D01*
X119418683Y-135961693D01*
X119413904Y-135956638D01*
X119302882Y-135832403D01*
X119298976Y-135827813D01*
X119193909Y-135698066D01*
X119189146Y-135691785D01*
X119092582Y-135555691D01*
X119089716Y-135551471D01*
X118998957Y-135411714D01*
X118994424Y-135404160D01*
X118913434Y-135257620D01*
X118911477Y-135253934D01*
X118869464Y-135171479D01*
X118836078Y-135105954D01*
X118832013Y-135097135D01*
X118767510Y-134941412D01*
X118766348Y-134938501D01*
X118709102Y-134789371D01*
X118707836Y-134785918D01*
X118705130Y-134778184D01*
X118703019Y-134771560D01*
X118656251Y-134609224D01*
X118619310Y-134471360D01*
X118618200Y-134466880D01*
X118617079Y-134461972D01*
X118610296Y-134432254D01*
X118608943Y-134425452D01*
X118608943Y-134425451D01*
X118581755Y-134265434D01*
X118561976Y-134140553D01*
X118561239Y-134135099D01*
X118554795Y-134077906D01*
X118554210Y-134070976D01*
X118548193Y-133963833D01*
X118544289Y-133894314D01*
X118540848Y-133828664D01*
X119883387Y-133828664D01*
X119913013Y-134097916D01*
X119945928Y-134223816D01*
X119981528Y-134359988D01*
X120087421Y-134609174D01*
X120087471Y-134609292D01*
X120228582Y-134840511D01*
X120401853Y-135048718D01*
X120401855Y-135048720D01*
X120603598Y-135229482D01*
X120829510Y-135378944D01*
X120909087Y-135416248D01*
X121074777Y-135493921D01*
X121280093Y-135555691D01*
X121334169Y-135571960D01*
X121602161Y-135611400D01*
X121602164Y-135611400D01*
X121802969Y-135611400D01*
X121805231Y-135611400D01*
X122007756Y-135596577D01*
X122272153Y-135537680D01*
X122525158Y-135440914D01*
X122761377Y-135308341D01*
X122770141Y-135301574D01*
X126799000Y-135301574D01*
X126813533Y-135374638D01*
X126813533Y-135374639D01*
X126813534Y-135374640D01*
X126868899Y-135457501D01*
X126951760Y-135512866D01*
X126988292Y-135520133D01*
X127024825Y-135527400D01*
X127024826Y-135527400D01*
X128774175Y-135527400D01*
X128798529Y-135522555D01*
X128847240Y-135512866D01*
X128930101Y-135457501D01*
X128985466Y-135374640D01*
X129000000Y-135301574D01*
X129000000Y-134426900D01*
X129334285Y-134426900D01*
X129353102Y-134629983D01*
X129408918Y-134826151D01*
X129499824Y-135008718D01*
X129622736Y-135171480D01*
X129773458Y-135308881D01*
X129946861Y-135416247D01*
X129946863Y-135416248D01*
X130137044Y-135489924D01*
X130337524Y-135527400D01*
X130337526Y-135527400D01*
X130541474Y-135527400D01*
X130541476Y-135527400D01*
X130741956Y-135489924D01*
X130932137Y-135416248D01*
X131105541Y-135308881D01*
X131113556Y-135301574D01*
X153959000Y-135301574D01*
X153973533Y-135374638D01*
X153973533Y-135374639D01*
X153973534Y-135374640D01*
X154028899Y-135457501D01*
X154111760Y-135512866D01*
X154148292Y-135520133D01*
X154184825Y-135527400D01*
X154184826Y-135527400D01*
X155934175Y-135527400D01*
X155958529Y-135522555D01*
X156007240Y-135512866D01*
X156090101Y-135457501D01*
X156145466Y-135374640D01*
X156160000Y-135301574D01*
X156160000Y-134426900D01*
X156494285Y-134426900D01*
X156513102Y-134629983D01*
X156568918Y-134826151D01*
X156659824Y-135008718D01*
X156782736Y-135171480D01*
X156933458Y-135308881D01*
X157106861Y-135416247D01*
X157106863Y-135416248D01*
X157297044Y-135489924D01*
X157497524Y-135527400D01*
X157497526Y-135527400D01*
X157701474Y-135527400D01*
X157701476Y-135527400D01*
X157901956Y-135489924D01*
X158092137Y-135416248D01*
X158265541Y-135308881D01*
X158416264Y-135171479D01*
X158539173Y-135008721D01*
X158539173Y-135008719D01*
X158539175Y-135008718D01*
X158622931Y-134840511D01*
X158630082Y-134826150D01*
X158685897Y-134629983D01*
X158704715Y-134426900D01*
X158685897Y-134223817D01*
X158630082Y-134027650D01*
X158580798Y-133928673D01*
X158539175Y-133845081D01*
X158526777Y-133828664D01*
X162003387Y-133828664D01*
X162033013Y-134097916D01*
X162065928Y-134223816D01*
X162101528Y-134359988D01*
X162207421Y-134609174D01*
X162207471Y-134609292D01*
X162348582Y-134840511D01*
X162521853Y-135048718D01*
X162521855Y-135048720D01*
X162723598Y-135229482D01*
X162949510Y-135378944D01*
X163029087Y-135416248D01*
X163194777Y-135493921D01*
X163400093Y-135555691D01*
X163454169Y-135571960D01*
X163722161Y-135611400D01*
X163722164Y-135611400D01*
X163922969Y-135611400D01*
X163925231Y-135611400D01*
X164127756Y-135596577D01*
X164392153Y-135537680D01*
X164645158Y-135440914D01*
X164881377Y-135308341D01*
X165095777Y-135142788D01*
X165283786Y-134947781D01*
X165441399Y-134727479D01*
X165565256Y-134486575D01*
X165652718Y-134230205D01*
X165701919Y-133963833D01*
X165711812Y-133693135D01*
X165682186Y-133423882D01*
X165613672Y-133161812D01*
X165507730Y-132912510D01*
X165366618Y-132681290D01*
X165366617Y-132681288D01*
X165193346Y-132473081D01*
X165088359Y-132379012D01*
X164991602Y-132292318D01*
X164765690Y-132142856D01*
X164765686Y-132142854D01*
X164520422Y-132027878D01*
X164261037Y-131949841D01*
X164261031Y-131949840D01*
X163993039Y-131910400D01*
X163789969Y-131910400D01*
X163787720Y-131910564D01*
X163787709Y-131910565D01*
X163587443Y-131925222D01*
X163323049Y-131984119D01*
X163070041Y-132080886D01*
X162833823Y-132213459D01*
X162619425Y-132379009D01*
X162431413Y-132574020D01*
X162273801Y-132794320D01*
X162149942Y-133035229D01*
X162062481Y-133291595D01*
X162013280Y-133557966D01*
X162003387Y-133828664D01*
X158526777Y-133828664D01*
X158416263Y-133682319D01*
X158265541Y-133544918D01*
X158092138Y-133437552D01*
X157901957Y-133363876D01*
X157779226Y-133340934D01*
X157701476Y-133326400D01*
X157497524Y-133326400D01*
X157419779Y-133340933D01*
X157297042Y-133363876D01*
X157106861Y-133437552D01*
X156933458Y-133544918D01*
X156782736Y-133682319D01*
X156659824Y-133845081D01*
X156568918Y-134027648D01*
X156513102Y-134223816D01*
X156494285Y-134426900D01*
X156160000Y-134426900D01*
X156160000Y-133552226D01*
X156145466Y-133479160D01*
X156090101Y-133396299D01*
X156007240Y-133340934D01*
X156007239Y-133340933D01*
X156007238Y-133340933D01*
X155934175Y-133326400D01*
X155934174Y-133326400D01*
X154184826Y-133326400D01*
X154184825Y-133326400D01*
X154111761Y-133340933D01*
X154028899Y-133396299D01*
X153973533Y-133479161D01*
X153959000Y-133552225D01*
X153959000Y-135301574D01*
X131113556Y-135301574D01*
X131256264Y-135171479D01*
X131379173Y-135008721D01*
X131379173Y-135008719D01*
X131379175Y-135008718D01*
X131462931Y-134840511D01*
X131470082Y-134826150D01*
X131525897Y-134629983D01*
X131544715Y-134426900D01*
X131525897Y-134223817D01*
X131470082Y-134027650D01*
X131420798Y-133928673D01*
X131379175Y-133845081D01*
X131256263Y-133682319D01*
X131105541Y-133544918D01*
X130932138Y-133437552D01*
X130741957Y-133363876D01*
X130619226Y-133340934D01*
X130541476Y-133326400D01*
X130337524Y-133326400D01*
X130259779Y-133340933D01*
X130137042Y-133363876D01*
X129946861Y-133437552D01*
X129773458Y-133544918D01*
X129622736Y-133682319D01*
X129499824Y-133845081D01*
X129408918Y-134027648D01*
X129353102Y-134223816D01*
X129334285Y-134426900D01*
X129000000Y-134426900D01*
X129000000Y-133552226D01*
X128985466Y-133479160D01*
X128930101Y-133396299D01*
X128847240Y-133340934D01*
X128847239Y-133340933D01*
X128847238Y-133340933D01*
X128774175Y-133326400D01*
X128774174Y-133326400D01*
X127024826Y-133326400D01*
X127024825Y-133326400D01*
X126951761Y-133340933D01*
X126868899Y-133396299D01*
X126813533Y-133479161D01*
X126799000Y-133552225D01*
X126799000Y-135301574D01*
X122770141Y-135301574D01*
X122975777Y-135142788D01*
X123163786Y-134947781D01*
X123321399Y-134727479D01*
X123445256Y-134486575D01*
X123532718Y-134230205D01*
X123581919Y-133963833D01*
X123591812Y-133693135D01*
X123562186Y-133423882D01*
X123493672Y-133161812D01*
X123387730Y-132912510D01*
X123246618Y-132681290D01*
X123246617Y-132681288D01*
X123073346Y-132473081D01*
X122968359Y-132379012D01*
X122871602Y-132292318D01*
X122645690Y-132142856D01*
X122645686Y-132142854D01*
X122400422Y-132027878D01*
X122141037Y-131949841D01*
X122141031Y-131949840D01*
X121873039Y-131910400D01*
X121669969Y-131910400D01*
X121667720Y-131910564D01*
X121667709Y-131910565D01*
X121467443Y-131925222D01*
X121203049Y-131984119D01*
X120950041Y-132080886D01*
X120713823Y-132213459D01*
X120499425Y-132379009D01*
X120311413Y-132574020D01*
X120153801Y-132794320D01*
X120029942Y-133035229D01*
X119942481Y-133291595D01*
X119893280Y-133557966D01*
X119883387Y-133828664D01*
X118540848Y-133828664D01*
X118537467Y-133764142D01*
X118537297Y-133757655D01*
X118537297Y-130617188D01*
X118556982Y-130550149D01*
X118609786Y-130504394D01*
X118678944Y-130494450D01*
X118718920Y-130507390D01*
X118817435Y-130559096D01*
X118970815Y-130596900D01*
X119128785Y-130596900D01*
X119282165Y-130559096D01*
X119422040Y-130485683D01*
X119540283Y-130380930D01*
X119630020Y-130250923D01*
X119686037Y-130103218D01*
X119705078Y-129946400D01*
X119705078Y-129946398D01*
X119701915Y-129920346D01*
X119713376Y-129851422D01*
X119760280Y-129799637D01*
X119825011Y-129781400D01*
X120039574Y-129781400D01*
X120039576Y-129781400D01*
X120240056Y-129743924D01*
X120307490Y-129717800D01*
X129062521Y-129717800D01*
X129081563Y-129874618D01*
X129137580Y-130022323D01*
X129227315Y-130152328D01*
X129227316Y-130152329D01*
X129227317Y-130152330D01*
X129345560Y-130257083D01*
X129485435Y-130330496D01*
X129638815Y-130368300D01*
X129796785Y-130368300D01*
X129950165Y-130330496D01*
X130090040Y-130257083D01*
X130208283Y-130152330D01*
X130298020Y-130022323D01*
X130354037Y-129874618D01*
X130373078Y-129717800D01*
X130366910Y-129667000D01*
X142207021Y-129667000D01*
X142226063Y-129823818D01*
X142282080Y-129971523D01*
X142371815Y-130101528D01*
X142371816Y-130101529D01*
X142371817Y-130101530D01*
X142490060Y-130206283D01*
X142629935Y-130279696D01*
X142783315Y-130317500D01*
X142941285Y-130317500D01*
X143094665Y-130279696D01*
X143234540Y-130206283D01*
X143352783Y-130101530D01*
X143442520Y-129971523D01*
X143498537Y-129823818D01*
X143517578Y-129667000D01*
X143498537Y-129510182D01*
X143442520Y-129362477D01*
X143352783Y-129232470D01*
X143234540Y-129127717D01*
X143143910Y-129080150D01*
X143094664Y-129054303D01*
X142941285Y-129016500D01*
X142783315Y-129016500D01*
X142629935Y-129054303D01*
X142490061Y-129127716D01*
X142371815Y-129232471D01*
X142282080Y-129362476D01*
X142226063Y-129510181D01*
X142207021Y-129667000D01*
X130366910Y-129667000D01*
X130354037Y-129560982D01*
X130298020Y-129413277D01*
X130208283Y-129283270D01*
X130090040Y-129178517D01*
X130031341Y-129147709D01*
X129950164Y-129105103D01*
X129796785Y-129067300D01*
X129638815Y-129067300D01*
X129485435Y-129105103D01*
X129345561Y-129178516D01*
X129227315Y-129283271D01*
X129137580Y-129413276D01*
X129081563Y-129560981D01*
X129062521Y-129717800D01*
X120307490Y-129717800D01*
X120430237Y-129670248D01*
X120603641Y-129562881D01*
X120624604Y-129543771D01*
X120754363Y-129425480D01*
X120754364Y-129425479D01*
X120877273Y-129262721D01*
X120877273Y-129262719D01*
X120877275Y-129262718D01*
X120934542Y-129147709D01*
X120968182Y-129080150D01*
X121023997Y-128883983D01*
X121042815Y-128680900D01*
X121023997Y-128477817D01*
X120993775Y-128371600D01*
X147007621Y-128371600D01*
X147026663Y-128528418D01*
X147082680Y-128676123D01*
X147172415Y-128806128D01*
X147172416Y-128806129D01*
X147172417Y-128806130D01*
X147290660Y-128910883D01*
X147430535Y-128984296D01*
X147583915Y-129022100D01*
X147741885Y-129022100D01*
X147895265Y-128984296D01*
X148035140Y-128910883D01*
X148153383Y-128806130D01*
X148239823Y-128680899D01*
X164552385Y-128680899D01*
X164571202Y-128883983D01*
X164627018Y-129080151D01*
X164717924Y-129262718D01*
X164840836Y-129425480D01*
X164991558Y-129562881D01*
X165119142Y-129641877D01*
X165164963Y-129670248D01*
X165355144Y-129743924D01*
X165555624Y-129781400D01*
X165555626Y-129781400D01*
X165759574Y-129781400D01*
X165759576Y-129781400D01*
X165960056Y-129743924D01*
X166150237Y-129670248D01*
X166323641Y-129562881D01*
X166344604Y-129543771D01*
X166474363Y-129425480D01*
X166474364Y-129425479D01*
X166597273Y-129262721D01*
X166597273Y-129262719D01*
X166597275Y-129262718D01*
X166654542Y-129147709D01*
X166688182Y-129080150D01*
X166743997Y-128883983D01*
X166762815Y-128680900D01*
X166743997Y-128477817D01*
X166688182Y-128281650D01*
X166654886Y-128214782D01*
X166597275Y-128099081D01*
X166474363Y-127936319D01*
X166323641Y-127798918D01*
X166150238Y-127691552D01*
X165960057Y-127617876D01*
X165893229Y-127605384D01*
X165759576Y-127580400D01*
X165555624Y-127580400D01*
X165455384Y-127599138D01*
X165355142Y-127617876D01*
X165164961Y-127691552D01*
X164991558Y-127798918D01*
X164840836Y-127936319D01*
X164717924Y-128099081D01*
X164627018Y-128281648D01*
X164571202Y-128477816D01*
X164552385Y-128680899D01*
X148239823Y-128680899D01*
X148243120Y-128676123D01*
X148299137Y-128528418D01*
X148318178Y-128371600D01*
X148299137Y-128214782D01*
X148243120Y-128067077D01*
X148174313Y-127967392D01*
X148153384Y-127937071D01*
X148153383Y-127937070D01*
X148035140Y-127832317D01*
X147990767Y-127809028D01*
X147895264Y-127758903D01*
X147741885Y-127721100D01*
X147583915Y-127721100D01*
X147430535Y-127758903D01*
X147290661Y-127832316D01*
X147172415Y-127937071D01*
X147082680Y-128067076D01*
X147026663Y-128214781D01*
X147007621Y-128371600D01*
X120993775Y-128371600D01*
X120968182Y-128281650D01*
X120934886Y-128214782D01*
X120877275Y-128099081D01*
X120754363Y-127936319D01*
X120603641Y-127798918D01*
X120430238Y-127691552D01*
X120240057Y-127617876D01*
X120173229Y-127605384D01*
X120039576Y-127580400D01*
X119835624Y-127580400D01*
X119824134Y-127580400D01*
X119824134Y-127576074D01*
X119776932Y-127571197D01*
X119722349Y-127527581D01*
X119700010Y-127461378D01*
X119700815Y-127441505D01*
X119705078Y-127406400D01*
X119703478Y-127393226D01*
X119701915Y-127380346D01*
X119713376Y-127311422D01*
X119760280Y-127259637D01*
X119825011Y-127241400D01*
X120039574Y-127241400D01*
X120039576Y-127241400D01*
X120240056Y-127203924D01*
X120241925Y-127203200D01*
X135869721Y-127203200D01*
X135888763Y-127360018D01*
X135944780Y-127507723D01*
X136034515Y-127637728D01*
X136034516Y-127637729D01*
X136034517Y-127637730D01*
X136152760Y-127742483D01*
X136292635Y-127815896D01*
X136446015Y-127853700D01*
X136603985Y-127853700D01*
X136757365Y-127815896D01*
X136897240Y-127742483D01*
X137015483Y-127637730D01*
X137105220Y-127507723D01*
X137161237Y-127360018D01*
X137180278Y-127203200D01*
X137180278Y-127203199D01*
X139070121Y-127203199D01*
X139089163Y-127360018D01*
X139145180Y-127507723D01*
X139234915Y-127637728D01*
X139234916Y-127637729D01*
X139234917Y-127637730D01*
X139353160Y-127742483D01*
X139493035Y-127815896D01*
X139646415Y-127853700D01*
X139804385Y-127853700D01*
X139957765Y-127815896D01*
X140097640Y-127742483D01*
X140215883Y-127637730D01*
X140305620Y-127507723D01*
X140361637Y-127360018D01*
X140380678Y-127203200D01*
X140361637Y-127046382D01*
X140305620Y-126898677D01*
X140233163Y-126793704D01*
X140215884Y-126768671D01*
X140184637Y-126740989D01*
X140097640Y-126663917D01*
X140084394Y-126656964D01*
X139957764Y-126590503D01*
X139804385Y-126552700D01*
X139646415Y-126552700D01*
X139493035Y-126590503D01*
X139353161Y-126663916D01*
X139234915Y-126768671D01*
X139145180Y-126898676D01*
X139089163Y-127046381D01*
X139070121Y-127203199D01*
X137180278Y-127203199D01*
X137161237Y-127046382D01*
X137105220Y-126898677D01*
X137032763Y-126793704D01*
X137015484Y-126768671D01*
X136984237Y-126740989D01*
X136897240Y-126663917D01*
X136883994Y-126656965D01*
X136757364Y-126590503D01*
X136603985Y-126552700D01*
X136446015Y-126552700D01*
X136292635Y-126590503D01*
X136152761Y-126663916D01*
X136034515Y-126768671D01*
X135944780Y-126898676D01*
X135888763Y-127046381D01*
X135869721Y-127203200D01*
X120241925Y-127203200D01*
X120430237Y-127130248D01*
X120603641Y-127022881D01*
X120624604Y-127003771D01*
X120754363Y-126885480D01*
X120768230Y-126867117D01*
X120877273Y-126722721D01*
X120877273Y-126722719D01*
X120877275Y-126722718D01*
X120943109Y-126590503D01*
X120968182Y-126540150D01*
X121023997Y-126343983D01*
X121042815Y-126140900D01*
X121023997Y-125937817D01*
X120968182Y-125741650D01*
X120967809Y-125740901D01*
X120877275Y-125559081D01*
X120756991Y-125399799D01*
X157713721Y-125399799D01*
X157732763Y-125556618D01*
X157788780Y-125704323D01*
X157878515Y-125834328D01*
X157878516Y-125834329D01*
X157878517Y-125834330D01*
X157996760Y-125939083D01*
X158136635Y-126012496D01*
X158290015Y-126050300D01*
X158447985Y-126050300D01*
X158601365Y-126012496D01*
X158741240Y-125939083D01*
X158859483Y-125834330D01*
X158949220Y-125704323D01*
X159005237Y-125556618D01*
X159024278Y-125399800D01*
X159005237Y-125242982D01*
X158949220Y-125095277D01*
X158859483Y-124965270D01*
X158747879Y-124866399D01*
X164063721Y-124866399D01*
X164082763Y-125023218D01*
X164138780Y-125170923D01*
X164228515Y-125300928D01*
X164228516Y-125300929D01*
X164228517Y-125300930D01*
X164346760Y-125405683D01*
X164486635Y-125479096D01*
X164577770Y-125501558D01*
X164638151Y-125536713D01*
X164669940Y-125598932D01*
X164663045Y-125668461D01*
X164659097Y-125677226D01*
X164627016Y-125741652D01*
X164571202Y-125937816D01*
X164552385Y-126140900D01*
X164571202Y-126343983D01*
X164627018Y-126540151D01*
X164717924Y-126722718D01*
X164840836Y-126885480D01*
X164991558Y-127022881D01*
X165029514Y-127046382D01*
X165164963Y-127130248D01*
X165355144Y-127203924D01*
X165555624Y-127241400D01*
X165555626Y-127241400D01*
X165759574Y-127241400D01*
X165759576Y-127241400D01*
X165960056Y-127203924D01*
X166150237Y-127130248D01*
X166323641Y-127022881D01*
X166344604Y-127003771D01*
X166474363Y-126885480D01*
X166488230Y-126867117D01*
X166597273Y-126722721D01*
X166597273Y-126722719D01*
X166597275Y-126722718D01*
X166663109Y-126590503D01*
X166688182Y-126540150D01*
X166743997Y-126343983D01*
X166762815Y-126140900D01*
X166743997Y-125937817D01*
X166688182Y-125741650D01*
X166687809Y-125740901D01*
X166597275Y-125559081D01*
X166474363Y-125396319D01*
X166323641Y-125258918D01*
X166150238Y-125151552D01*
X165960057Y-125077876D01*
X165893229Y-125065384D01*
X165759576Y-125040400D01*
X165555624Y-125040400D01*
X165555623Y-125040400D01*
X165514716Y-125048046D01*
X165445201Y-125041014D01*
X165390523Y-124997515D01*
X165368042Y-124931361D01*
X165368837Y-124911210D01*
X165374278Y-124866400D01*
X165369955Y-124830798D01*
X165381415Y-124761875D01*
X165428319Y-124710088D01*
X165495774Y-124691881D01*
X165515831Y-124693961D01*
X165555624Y-124701400D01*
X165555626Y-124701400D01*
X165759574Y-124701400D01*
X165759576Y-124701400D01*
X165960056Y-124663924D01*
X166150237Y-124590248D01*
X166323641Y-124482881D01*
X166379596Y-124431871D01*
X166474363Y-124345480D01*
X166488231Y-124327116D01*
X166597273Y-124182721D01*
X166597273Y-124182719D01*
X166597275Y-124182718D01*
X166661705Y-124053323D01*
X166688182Y-124000150D01*
X166743997Y-123803983D01*
X166762815Y-123600900D01*
X166743997Y-123397817D01*
X166688182Y-123201650D01*
X166656103Y-123137226D01*
X166597275Y-123019081D01*
X166474363Y-122856319D01*
X166323641Y-122718918D01*
X166150238Y-122611552D01*
X165960057Y-122537876D01*
X165893229Y-122525384D01*
X165759576Y-122500400D01*
X165555624Y-122500400D01*
X165555623Y-122500400D01*
X165514716Y-122508046D01*
X165445201Y-122501014D01*
X165390523Y-122457515D01*
X165368042Y-122391361D01*
X165368837Y-122371210D01*
X165374278Y-122326400D01*
X165369955Y-122290798D01*
X165381415Y-122221875D01*
X165428319Y-122170088D01*
X165495774Y-122151881D01*
X165515831Y-122153961D01*
X165555624Y-122161400D01*
X165555626Y-122161400D01*
X165759574Y-122161400D01*
X165759576Y-122161400D01*
X165960056Y-122123924D01*
X166150237Y-122050248D01*
X166323641Y-121942881D01*
X166379596Y-121891871D01*
X166474363Y-121805480D01*
X166488231Y-121787116D01*
X166597273Y-121642721D01*
X166597273Y-121642719D01*
X166597275Y-121642718D01*
X166660209Y-121516328D01*
X166688182Y-121460150D01*
X166743997Y-121263983D01*
X166762815Y-121060900D01*
X166743997Y-120857817D01*
X166688182Y-120661650D01*
X166656103Y-120597226D01*
X166597275Y-120479081D01*
X166474363Y-120316319D01*
X166323641Y-120178918D01*
X166150238Y-120071552D01*
X165960057Y-119997876D01*
X165893229Y-119985384D01*
X165759576Y-119960400D01*
X165555624Y-119960400D01*
X165555623Y-119960400D01*
X165514716Y-119968046D01*
X165445201Y-119961014D01*
X165390523Y-119917515D01*
X165368042Y-119851361D01*
X165368837Y-119831210D01*
X165374278Y-119786400D01*
X165369955Y-119750798D01*
X165381415Y-119681875D01*
X165428319Y-119630088D01*
X165495774Y-119611881D01*
X165515831Y-119613961D01*
X165555624Y-119621400D01*
X165555626Y-119621400D01*
X165759574Y-119621400D01*
X165759576Y-119621400D01*
X165960056Y-119583924D01*
X166150237Y-119510248D01*
X166323641Y-119402881D01*
X166379596Y-119351871D01*
X166474363Y-119265480D01*
X166597275Y-119102718D01*
X166660095Y-118976557D01*
X166688182Y-118920150D01*
X166743997Y-118723983D01*
X166762815Y-118520900D01*
X166743997Y-118317817D01*
X166688182Y-118121650D01*
X166656103Y-118057226D01*
X166597275Y-117939081D01*
X166474363Y-117776319D01*
X166323641Y-117638918D01*
X166150238Y-117531552D01*
X165960057Y-117457876D01*
X165893229Y-117445384D01*
X165759576Y-117420400D01*
X165555624Y-117420400D01*
X165555623Y-117420400D01*
X165514716Y-117428046D01*
X165445201Y-117421014D01*
X165390523Y-117377515D01*
X165368042Y-117311361D01*
X165368837Y-117291210D01*
X165374278Y-117246400D01*
X165369955Y-117210798D01*
X165381415Y-117141875D01*
X165428319Y-117090088D01*
X165495774Y-117071881D01*
X165515831Y-117073961D01*
X165555624Y-117081400D01*
X165555626Y-117081400D01*
X165759574Y-117081400D01*
X165759576Y-117081400D01*
X165960056Y-117043924D01*
X166150237Y-116970248D01*
X166323641Y-116862881D01*
X166379596Y-116811871D01*
X166474363Y-116725480D01*
X166572217Y-116595900D01*
X166597273Y-116562721D01*
X166597273Y-116562719D01*
X166597275Y-116562718D01*
X166663767Y-116429182D01*
X166688182Y-116380150D01*
X166743997Y-116183983D01*
X166762815Y-115980900D01*
X166743997Y-115777817D01*
X166688182Y-115581650D01*
X166656103Y-115517226D01*
X166597275Y-115399081D01*
X166474363Y-115236319D01*
X166323641Y-115098918D01*
X166150238Y-114991552D01*
X165960057Y-114917876D01*
X165893229Y-114905384D01*
X165759576Y-114880400D01*
X165555624Y-114880400D01*
X165555623Y-114880400D01*
X165514716Y-114888046D01*
X165445201Y-114881014D01*
X165390523Y-114837515D01*
X165368042Y-114771361D01*
X165368837Y-114751210D01*
X165374278Y-114706400D01*
X165369955Y-114670798D01*
X165381415Y-114601875D01*
X165428319Y-114550088D01*
X165495774Y-114531881D01*
X165515831Y-114533961D01*
X165555624Y-114541400D01*
X165555626Y-114541400D01*
X165759574Y-114541400D01*
X165759576Y-114541400D01*
X165960056Y-114503924D01*
X166150237Y-114430248D01*
X166323641Y-114322881D01*
X166379596Y-114271871D01*
X166474363Y-114185480D01*
X166498395Y-114153657D01*
X166597273Y-114022721D01*
X166597273Y-114022719D01*
X166597275Y-114022718D01*
X166660095Y-113896557D01*
X166688182Y-113840150D01*
X166743997Y-113643983D01*
X166762815Y-113440900D01*
X166743997Y-113237817D01*
X166688182Y-113041650D01*
X166656103Y-112977226D01*
X166597275Y-112859081D01*
X166474363Y-112696319D01*
X166323641Y-112558918D01*
X166150238Y-112451552D01*
X165960057Y-112377876D01*
X165893229Y-112365384D01*
X165759576Y-112340400D01*
X165555624Y-112340400D01*
X165555623Y-112340400D01*
X165514716Y-112348046D01*
X165445201Y-112341014D01*
X165390523Y-112297515D01*
X165368042Y-112231361D01*
X165368837Y-112211210D01*
X165374278Y-112166400D01*
X165369955Y-112130798D01*
X165381415Y-112061875D01*
X165428319Y-112010088D01*
X165495774Y-111991881D01*
X165515831Y-111993961D01*
X165555624Y-112001400D01*
X165555626Y-112001400D01*
X165759574Y-112001400D01*
X165759576Y-112001400D01*
X165960056Y-111963924D01*
X166150237Y-111890248D01*
X166323641Y-111782881D01*
X166379596Y-111731871D01*
X166474363Y-111645480D01*
X166562574Y-111528670D01*
X166597273Y-111482721D01*
X166597273Y-111482719D01*
X166597275Y-111482718D01*
X166663109Y-111350503D01*
X166688182Y-111300150D01*
X166743997Y-111103983D01*
X166762815Y-110900900D01*
X166743997Y-110697817D01*
X166688182Y-110501650D01*
X166656103Y-110437226D01*
X166597275Y-110319081D01*
X166474363Y-110156319D01*
X166323641Y-110018918D01*
X166150238Y-109911552D01*
X165960057Y-109837876D01*
X165893229Y-109825384D01*
X165759576Y-109800400D01*
X165555624Y-109800400D01*
X165555623Y-109800400D01*
X165514716Y-109808046D01*
X165445201Y-109801014D01*
X165390523Y-109757515D01*
X165368042Y-109691361D01*
X165368837Y-109671210D01*
X165374278Y-109626400D01*
X165369955Y-109590798D01*
X165381415Y-109521875D01*
X165428319Y-109470088D01*
X165495774Y-109451881D01*
X165515831Y-109453961D01*
X165555624Y-109461400D01*
X165555626Y-109461400D01*
X165759574Y-109461400D01*
X165759576Y-109461400D01*
X165960056Y-109423924D01*
X166150237Y-109350248D01*
X166323641Y-109242881D01*
X166379596Y-109191871D01*
X166474363Y-109105480D01*
X166488231Y-109087116D01*
X166597273Y-108942721D01*
X166597273Y-108942719D01*
X166597275Y-108942718D01*
X166686862Y-108762800D01*
X166688182Y-108760150D01*
X166743997Y-108563983D01*
X166762815Y-108360900D01*
X166743997Y-108157817D01*
X166741802Y-108150104D01*
X166693351Y-107979818D01*
X166688182Y-107961650D01*
X166677563Y-107940324D01*
X166597275Y-107779081D01*
X166474363Y-107616319D01*
X166323641Y-107478918D01*
X166150238Y-107371552D01*
X165960057Y-107297876D01*
X165885440Y-107283928D01*
X165759576Y-107260400D01*
X165555624Y-107260400D01*
X165555623Y-107260400D01*
X165514716Y-107268046D01*
X165445201Y-107261014D01*
X165390523Y-107217515D01*
X165368042Y-107151361D01*
X165368837Y-107131210D01*
X165374278Y-107086400D01*
X165369955Y-107050798D01*
X165381415Y-106981875D01*
X165428319Y-106930088D01*
X165495774Y-106911881D01*
X165515831Y-106913961D01*
X165555624Y-106921400D01*
X165555626Y-106921400D01*
X165759574Y-106921400D01*
X165759576Y-106921400D01*
X165960056Y-106883924D01*
X166150237Y-106810248D01*
X166323641Y-106702881D01*
X166379596Y-106651871D01*
X166474363Y-106565480D01*
X166488231Y-106547116D01*
X166597273Y-106402721D01*
X166597273Y-106402719D01*
X166597275Y-106402718D01*
X166660095Y-106276557D01*
X166688182Y-106220150D01*
X166743997Y-106023983D01*
X166762815Y-105820900D01*
X166743997Y-105617817D01*
X166688182Y-105421650D01*
X166656103Y-105357226D01*
X166597275Y-105239081D01*
X166474363Y-105076319D01*
X166323641Y-104938918D01*
X166150238Y-104831552D01*
X165960057Y-104757876D01*
X165893229Y-104745384D01*
X165759576Y-104720400D01*
X165555624Y-104720400D01*
X165555623Y-104720400D01*
X165514716Y-104728046D01*
X165445201Y-104721014D01*
X165390523Y-104677515D01*
X165368042Y-104611361D01*
X165368837Y-104591210D01*
X165374278Y-104546400D01*
X165369955Y-104510798D01*
X165381415Y-104441875D01*
X165428319Y-104390088D01*
X165495774Y-104371881D01*
X165515831Y-104373961D01*
X165555624Y-104381400D01*
X165555626Y-104381400D01*
X165759574Y-104381400D01*
X165759576Y-104381400D01*
X165960056Y-104343924D01*
X166150237Y-104270248D01*
X166323641Y-104162881D01*
X166344604Y-104143771D01*
X166474363Y-104025480D01*
X166488231Y-104007116D01*
X166597273Y-103862721D01*
X166597273Y-103862719D01*
X166597275Y-103862718D01*
X166661705Y-103733323D01*
X166688182Y-103680150D01*
X166743997Y-103483983D01*
X166762815Y-103280900D01*
X166743997Y-103077817D01*
X166688182Y-102881650D01*
X166656103Y-102817226D01*
X166597275Y-102699081D01*
X166474363Y-102536319D01*
X166323641Y-102398918D01*
X166150238Y-102291552D01*
X165960057Y-102217876D01*
X165893229Y-102205384D01*
X165759576Y-102180400D01*
X165555624Y-102180400D01*
X165555623Y-102180400D01*
X165514716Y-102188046D01*
X165445201Y-102181014D01*
X165390523Y-102137515D01*
X165368042Y-102071361D01*
X165368837Y-102051210D01*
X165374278Y-102006400D01*
X165371114Y-101980346D01*
X165369955Y-101970797D01*
X165381415Y-101901875D01*
X165428319Y-101850088D01*
X165495774Y-101831881D01*
X165515831Y-101833961D01*
X165555624Y-101841400D01*
X165555626Y-101841400D01*
X165759574Y-101841400D01*
X165759576Y-101841400D01*
X165960056Y-101803924D01*
X166150237Y-101730248D01*
X166323641Y-101622881D01*
X166379596Y-101571871D01*
X166474363Y-101485480D01*
X166489149Y-101465900D01*
X166597273Y-101322721D01*
X166597273Y-101322719D01*
X166597275Y-101322718D01*
X166660095Y-101196557D01*
X166688182Y-101140150D01*
X166743997Y-100943983D01*
X166762815Y-100740900D01*
X166743997Y-100537817D01*
X166688182Y-100341650D01*
X166656103Y-100277226D01*
X166597275Y-100159081D01*
X166474363Y-99996319D01*
X166323641Y-99858918D01*
X166150238Y-99751552D01*
X165960057Y-99677876D01*
X165893229Y-99665384D01*
X165759576Y-99640400D01*
X165555624Y-99640400D01*
X165555623Y-99640400D01*
X165514716Y-99648046D01*
X165445201Y-99641014D01*
X165390523Y-99597515D01*
X165368042Y-99531361D01*
X165368837Y-99511210D01*
X165374278Y-99466400D01*
X165369955Y-99430798D01*
X165381415Y-99361875D01*
X165428319Y-99310088D01*
X165495774Y-99291881D01*
X165515831Y-99293961D01*
X165555624Y-99301400D01*
X165555626Y-99301400D01*
X165759574Y-99301400D01*
X165759576Y-99301400D01*
X165960056Y-99263924D01*
X166150237Y-99190248D01*
X166323641Y-99082881D01*
X166379596Y-99031871D01*
X166474363Y-98945480D01*
X166489185Y-98925853D01*
X166597273Y-98782721D01*
X166597273Y-98782719D01*
X166597275Y-98782718D01*
X166660095Y-98656557D01*
X166688182Y-98600150D01*
X166743997Y-98403983D01*
X166762815Y-98200900D01*
X166743997Y-97997817D01*
X166734915Y-97965899D01*
X166701382Y-97848042D01*
X166688182Y-97801650D01*
X166656103Y-97737226D01*
X166597275Y-97619081D01*
X166474363Y-97456319D01*
X166323641Y-97318918D01*
X166150238Y-97211552D01*
X165960057Y-97137876D01*
X165893229Y-97125384D01*
X165759576Y-97100400D01*
X165555624Y-97100400D01*
X165555623Y-97100400D01*
X165514716Y-97108046D01*
X165445201Y-97101014D01*
X165390523Y-97057515D01*
X165368042Y-96991361D01*
X165368837Y-96971210D01*
X165369543Y-96965400D01*
X165374278Y-96926400D01*
X165369955Y-96890797D01*
X165381415Y-96821875D01*
X165428319Y-96770088D01*
X165495774Y-96751881D01*
X165515831Y-96753961D01*
X165555624Y-96761400D01*
X165555626Y-96761400D01*
X165759574Y-96761400D01*
X165759576Y-96761400D01*
X165960056Y-96723924D01*
X166150237Y-96650248D01*
X166323641Y-96542881D01*
X166379596Y-96491871D01*
X166474363Y-96405480D01*
X166488231Y-96387116D01*
X166597273Y-96242721D01*
X166597273Y-96242719D01*
X166597275Y-96242718D01*
X166666497Y-96103700D01*
X166688182Y-96060150D01*
X166743997Y-95863983D01*
X166762815Y-95660900D01*
X166743997Y-95457817D01*
X166742683Y-95453200D01*
X166721800Y-95379804D01*
X166688182Y-95261650D01*
X166662051Y-95209171D01*
X166597275Y-95079081D01*
X166474363Y-94916319D01*
X166323641Y-94778918D01*
X166150238Y-94671552D01*
X165960057Y-94597876D01*
X165893229Y-94585384D01*
X165759576Y-94560400D01*
X165555624Y-94560400D01*
X165555623Y-94560400D01*
X165514716Y-94568046D01*
X165445201Y-94561014D01*
X165390523Y-94517515D01*
X165368042Y-94451361D01*
X165368837Y-94431210D01*
X165374278Y-94386400D01*
X165369955Y-94350798D01*
X165381415Y-94281875D01*
X165428319Y-94230088D01*
X165495774Y-94211881D01*
X165515831Y-94213961D01*
X165555624Y-94221400D01*
X165555626Y-94221400D01*
X165759574Y-94221400D01*
X165759576Y-94221400D01*
X165960056Y-94183924D01*
X166150237Y-94110248D01*
X166323641Y-94002881D01*
X166379596Y-93951871D01*
X166474363Y-93865480D01*
X166488231Y-93847116D01*
X166597273Y-93702721D01*
X166597273Y-93702719D01*
X166597275Y-93702718D01*
X166660095Y-93576557D01*
X166688182Y-93520150D01*
X166743997Y-93323983D01*
X166762815Y-93120900D01*
X166743997Y-92917817D01*
X166688182Y-92721650D01*
X166656103Y-92657226D01*
X166597275Y-92539081D01*
X166474363Y-92376319D01*
X166323641Y-92238918D01*
X166150238Y-92131552D01*
X165960057Y-92057876D01*
X165893229Y-92045384D01*
X165759576Y-92020400D01*
X165555624Y-92020400D01*
X165555623Y-92020400D01*
X165514716Y-92028046D01*
X165445201Y-92021014D01*
X165390523Y-91977515D01*
X165368042Y-91911361D01*
X165368837Y-91891210D01*
X165370480Y-91877683D01*
X165374278Y-91846400D01*
X165369955Y-91810797D01*
X165381415Y-91741875D01*
X165428319Y-91690088D01*
X165495774Y-91671881D01*
X165515831Y-91673961D01*
X165555624Y-91681400D01*
X165555626Y-91681400D01*
X165759574Y-91681400D01*
X165759576Y-91681400D01*
X165960056Y-91643924D01*
X166150237Y-91570248D01*
X166323641Y-91462881D01*
X166379596Y-91411871D01*
X166474363Y-91325480D01*
X166488231Y-91307116D01*
X166597273Y-91162721D01*
X166597273Y-91162719D01*
X166597275Y-91162718D01*
X166656117Y-91044545D01*
X166688182Y-90980150D01*
X166743997Y-90783983D01*
X166762815Y-90580900D01*
X166743997Y-90377817D01*
X166688182Y-90181650D01*
X166654886Y-90114782D01*
X166597275Y-89999081D01*
X166474363Y-89836319D01*
X166323641Y-89698918D01*
X166150238Y-89591552D01*
X165960057Y-89517876D01*
X165893229Y-89505384D01*
X165759576Y-89480400D01*
X165555624Y-89480400D01*
X165455384Y-89499137D01*
X165355142Y-89517876D01*
X165164961Y-89591552D01*
X164991558Y-89698918D01*
X164840836Y-89836319D01*
X164717924Y-89999081D01*
X164627018Y-90181648D01*
X164571202Y-90377816D01*
X164552385Y-90580899D01*
X164571202Y-90783983D01*
X164627016Y-90980147D01*
X164655105Y-91036557D01*
X164667365Y-91105343D01*
X164640491Y-91169838D01*
X164583015Y-91209565D01*
X164573779Y-91212225D01*
X164486635Y-91233703D01*
X164346761Y-91307116D01*
X164228515Y-91411871D01*
X164138780Y-91541876D01*
X164082763Y-91689581D01*
X164063721Y-91846400D01*
X164082763Y-92003218D01*
X164138780Y-92150923D01*
X164228515Y-92280928D01*
X164228516Y-92280929D01*
X164228517Y-92280930D01*
X164346760Y-92385683D01*
X164486635Y-92459096D01*
X164577770Y-92481558D01*
X164638151Y-92516713D01*
X164669940Y-92578932D01*
X164663045Y-92648461D01*
X164659097Y-92657226D01*
X164627016Y-92721652D01*
X164571202Y-92917816D01*
X164552385Y-93120900D01*
X164571202Y-93323983D01*
X164627016Y-93520147D01*
X164655105Y-93576557D01*
X164667365Y-93645343D01*
X164640491Y-93709838D01*
X164583015Y-93749565D01*
X164573779Y-93752225D01*
X164486635Y-93773703D01*
X164346761Y-93847116D01*
X164228515Y-93951871D01*
X164138780Y-94081876D01*
X164082763Y-94229581D01*
X164063721Y-94386400D01*
X164082763Y-94543218D01*
X164138780Y-94690923D01*
X164228515Y-94820928D01*
X164228516Y-94820929D01*
X164228517Y-94820930D01*
X164346760Y-94925683D01*
X164486635Y-94999096D01*
X164577770Y-95021558D01*
X164638151Y-95056713D01*
X164669940Y-95118932D01*
X164663045Y-95188461D01*
X164659097Y-95197226D01*
X164627016Y-95261652D01*
X164571202Y-95457816D01*
X164552385Y-95660900D01*
X164571202Y-95863983D01*
X164627016Y-96060147D01*
X164655105Y-96116557D01*
X164667365Y-96185343D01*
X164640491Y-96249838D01*
X164583015Y-96289565D01*
X164573779Y-96292225D01*
X164486635Y-96313703D01*
X164346761Y-96387116D01*
X164228515Y-96491871D01*
X164138780Y-96621876D01*
X164082763Y-96769581D01*
X164063721Y-96926399D01*
X164082763Y-97083218D01*
X164138780Y-97230923D01*
X164228515Y-97360928D01*
X164228516Y-97360929D01*
X164228517Y-97360930D01*
X164346760Y-97465683D01*
X164486635Y-97539096D01*
X164577770Y-97561558D01*
X164638151Y-97596713D01*
X164669940Y-97658932D01*
X164663045Y-97728461D01*
X164659097Y-97737226D01*
X164627016Y-97801652D01*
X164571202Y-97997816D01*
X164552385Y-98200899D01*
X164571202Y-98403983D01*
X164627016Y-98600147D01*
X164655105Y-98656557D01*
X164667365Y-98725343D01*
X164640491Y-98789838D01*
X164583015Y-98829565D01*
X164573779Y-98832225D01*
X164486635Y-98853703D01*
X164346761Y-98927116D01*
X164228515Y-99031871D01*
X164138780Y-99161876D01*
X164082763Y-99309581D01*
X164063721Y-99466400D01*
X164082763Y-99623218D01*
X164138780Y-99770923D01*
X164228515Y-99900928D01*
X164228516Y-99900929D01*
X164228517Y-99900930D01*
X164346760Y-100005683D01*
X164486635Y-100079096D01*
X164577770Y-100101558D01*
X164638151Y-100136713D01*
X164669940Y-100198932D01*
X164663045Y-100268461D01*
X164659097Y-100277226D01*
X164627016Y-100341652D01*
X164571202Y-100537816D01*
X164552385Y-100740899D01*
X164571202Y-100943983D01*
X164627016Y-101140147D01*
X164655105Y-101196557D01*
X164667365Y-101265343D01*
X164640491Y-101329838D01*
X164583015Y-101369565D01*
X164573779Y-101372225D01*
X164486635Y-101393703D01*
X164346761Y-101467116D01*
X164228515Y-101571871D01*
X164138780Y-101701876D01*
X164082763Y-101849581D01*
X164063721Y-102006399D01*
X164082763Y-102163218D01*
X164138780Y-102310923D01*
X164228515Y-102440928D01*
X164228516Y-102440929D01*
X164228517Y-102440930D01*
X164346760Y-102545683D01*
X164486635Y-102619096D01*
X164577770Y-102641558D01*
X164638151Y-102676713D01*
X164669940Y-102738932D01*
X164663045Y-102808461D01*
X164659097Y-102817226D01*
X164627016Y-102881652D01*
X164571202Y-103077816D01*
X164552385Y-103280899D01*
X164571202Y-103483983D01*
X164627016Y-103680147D01*
X164655105Y-103736557D01*
X164667365Y-103805343D01*
X164640491Y-103869838D01*
X164583015Y-103909565D01*
X164573779Y-103912225D01*
X164486635Y-103933703D01*
X164346761Y-104007116D01*
X164228515Y-104111871D01*
X164138780Y-104241876D01*
X164082763Y-104389581D01*
X164063721Y-104546400D01*
X164082763Y-104703218D01*
X164138780Y-104850923D01*
X164228515Y-104980928D01*
X164228516Y-104980929D01*
X164228517Y-104980930D01*
X164346760Y-105085683D01*
X164486635Y-105159096D01*
X164577770Y-105181558D01*
X164638151Y-105216713D01*
X164669940Y-105278932D01*
X164663045Y-105348461D01*
X164659097Y-105357226D01*
X164627016Y-105421652D01*
X164571202Y-105617816D01*
X164552385Y-105820900D01*
X164571202Y-106023983D01*
X164627016Y-106220147D01*
X164655105Y-106276557D01*
X164667365Y-106345343D01*
X164640491Y-106409838D01*
X164583015Y-106449565D01*
X164573779Y-106452225D01*
X164486635Y-106473703D01*
X164346761Y-106547116D01*
X164228515Y-106651871D01*
X164138780Y-106781876D01*
X164082763Y-106929581D01*
X164063721Y-107086399D01*
X164082763Y-107243218D01*
X164138780Y-107390923D01*
X164228515Y-107520928D01*
X164228516Y-107520929D01*
X164228517Y-107520930D01*
X164346760Y-107625683D01*
X164486635Y-107699096D01*
X164577770Y-107721558D01*
X164638151Y-107756713D01*
X164669940Y-107818932D01*
X164663045Y-107888461D01*
X164659097Y-107897226D01*
X164627016Y-107961652D01*
X164571202Y-108157816D01*
X164552385Y-108360899D01*
X164571202Y-108563983D01*
X164627016Y-108760147D01*
X164655105Y-108816557D01*
X164667365Y-108885343D01*
X164640491Y-108949838D01*
X164583015Y-108989565D01*
X164573779Y-108992225D01*
X164486635Y-109013703D01*
X164346761Y-109087116D01*
X164228515Y-109191871D01*
X164138780Y-109321876D01*
X164082763Y-109469581D01*
X164063721Y-109626400D01*
X164082763Y-109783218D01*
X164138780Y-109930923D01*
X164228515Y-110060928D01*
X164228516Y-110060929D01*
X164228517Y-110060930D01*
X164346760Y-110165683D01*
X164486635Y-110239096D01*
X164577770Y-110261558D01*
X164638151Y-110296713D01*
X164669940Y-110358932D01*
X164663045Y-110428461D01*
X164659097Y-110437226D01*
X164627016Y-110501652D01*
X164571202Y-110697816D01*
X164552385Y-110900899D01*
X164571202Y-111103983D01*
X164627016Y-111300147D01*
X164655105Y-111356557D01*
X164667365Y-111425343D01*
X164640491Y-111489838D01*
X164583015Y-111529565D01*
X164573779Y-111532225D01*
X164486635Y-111553703D01*
X164346761Y-111627116D01*
X164228515Y-111731871D01*
X164138780Y-111861876D01*
X164082763Y-112009581D01*
X164063721Y-112166400D01*
X164082763Y-112323218D01*
X164138780Y-112470923D01*
X164228515Y-112600928D01*
X164228516Y-112600929D01*
X164228517Y-112600930D01*
X164346760Y-112705683D01*
X164486635Y-112779096D01*
X164577770Y-112801558D01*
X164638151Y-112836713D01*
X164669940Y-112898932D01*
X164663045Y-112968461D01*
X164659097Y-112977226D01*
X164627016Y-113041652D01*
X164571202Y-113237816D01*
X164552385Y-113440900D01*
X164571202Y-113643983D01*
X164627016Y-113840147D01*
X164655105Y-113896557D01*
X164667365Y-113965343D01*
X164640491Y-114029838D01*
X164583015Y-114069565D01*
X164573779Y-114072225D01*
X164486635Y-114093703D01*
X164346761Y-114167116D01*
X164228515Y-114271871D01*
X164138780Y-114401876D01*
X164082763Y-114549581D01*
X164063721Y-114706399D01*
X164082763Y-114863218D01*
X164138780Y-115010923D01*
X164228515Y-115140928D01*
X164228516Y-115140929D01*
X164228517Y-115140930D01*
X164346760Y-115245683D01*
X164486635Y-115319096D01*
X164577770Y-115341558D01*
X164638151Y-115376713D01*
X164669940Y-115438932D01*
X164663045Y-115508461D01*
X164659097Y-115517226D01*
X164627016Y-115581652D01*
X164571202Y-115777816D01*
X164552385Y-115980900D01*
X164571202Y-116183983D01*
X164627016Y-116380147D01*
X164655105Y-116436557D01*
X164667365Y-116505343D01*
X164640491Y-116569838D01*
X164583015Y-116609565D01*
X164573779Y-116612225D01*
X164486635Y-116633703D01*
X164346761Y-116707116D01*
X164228515Y-116811871D01*
X164138780Y-116941876D01*
X164082763Y-117089581D01*
X164063721Y-117246400D01*
X164082763Y-117403218D01*
X164138780Y-117550923D01*
X164228515Y-117680928D01*
X164228516Y-117680929D01*
X164228517Y-117680930D01*
X164346760Y-117785683D01*
X164486635Y-117859096D01*
X164577770Y-117881558D01*
X164638151Y-117916713D01*
X164669940Y-117978932D01*
X164663045Y-118048461D01*
X164659097Y-118057226D01*
X164627016Y-118121652D01*
X164571202Y-118317816D01*
X164552385Y-118520899D01*
X164571202Y-118723983D01*
X164627016Y-118920147D01*
X164655105Y-118976557D01*
X164667365Y-119045343D01*
X164640491Y-119109838D01*
X164583015Y-119149565D01*
X164573779Y-119152225D01*
X164486635Y-119173703D01*
X164346761Y-119247116D01*
X164228515Y-119351871D01*
X164138780Y-119481876D01*
X164082763Y-119629581D01*
X164063721Y-119786399D01*
X164082763Y-119943218D01*
X164138780Y-120090923D01*
X164228515Y-120220928D01*
X164228516Y-120220929D01*
X164228517Y-120220930D01*
X164346760Y-120325683D01*
X164486635Y-120399096D01*
X164577770Y-120421558D01*
X164638151Y-120456713D01*
X164669940Y-120518932D01*
X164663045Y-120588461D01*
X164659097Y-120597226D01*
X164627016Y-120661652D01*
X164571202Y-120857816D01*
X164552385Y-121060899D01*
X164571202Y-121263983D01*
X164627016Y-121460147D01*
X164655105Y-121516557D01*
X164667365Y-121585343D01*
X164640491Y-121649838D01*
X164583015Y-121689565D01*
X164573779Y-121692225D01*
X164486635Y-121713703D01*
X164346761Y-121787116D01*
X164228515Y-121891871D01*
X164138780Y-122021876D01*
X164082763Y-122169581D01*
X164063721Y-122326400D01*
X164082763Y-122483218D01*
X164138780Y-122630923D01*
X164228515Y-122760928D01*
X164228516Y-122760929D01*
X164228517Y-122760930D01*
X164346760Y-122865683D01*
X164486635Y-122939096D01*
X164577770Y-122961558D01*
X164638151Y-122996713D01*
X164669940Y-123058932D01*
X164663045Y-123128461D01*
X164659097Y-123137226D01*
X164627016Y-123201652D01*
X164571202Y-123397816D01*
X164552385Y-123600899D01*
X164571202Y-123803983D01*
X164627016Y-124000147D01*
X164655105Y-124056557D01*
X164667365Y-124125343D01*
X164640491Y-124189838D01*
X164583015Y-124229565D01*
X164573779Y-124232225D01*
X164486635Y-124253703D01*
X164346761Y-124327116D01*
X164228515Y-124431871D01*
X164138780Y-124561876D01*
X164082763Y-124709581D01*
X164063721Y-124866399D01*
X158747879Y-124866399D01*
X158741240Y-124860517D01*
X158684616Y-124830798D01*
X158601364Y-124787103D01*
X158447985Y-124749300D01*
X158290015Y-124749300D01*
X158136635Y-124787103D01*
X157996761Y-124860516D01*
X157878515Y-124965271D01*
X157788780Y-125095276D01*
X157732763Y-125242981D01*
X157713721Y-125399799D01*
X120756991Y-125399799D01*
X120754363Y-125396319D01*
X120603641Y-125258918D01*
X120430238Y-125151552D01*
X120240057Y-125077876D01*
X120173229Y-125065384D01*
X120039576Y-125040400D01*
X119835624Y-125040400D01*
X119824134Y-125040400D01*
X119824134Y-125036074D01*
X119776932Y-125031197D01*
X119722349Y-124987581D01*
X119700010Y-124921378D01*
X119700815Y-124901505D01*
X119705078Y-124866400D01*
X119703478Y-124853226D01*
X119701915Y-124840346D01*
X119713376Y-124771422D01*
X119760280Y-124719637D01*
X119825011Y-124701400D01*
X120039574Y-124701400D01*
X120039576Y-124701400D01*
X120240056Y-124663924D01*
X120430237Y-124590248D01*
X120603641Y-124482881D01*
X120659596Y-124431871D01*
X120754363Y-124345480D01*
X120768231Y-124327116D01*
X120877273Y-124182721D01*
X120877273Y-124182719D01*
X120877275Y-124182718D01*
X120941705Y-124053323D01*
X120968182Y-124000150D01*
X121023997Y-123803983D01*
X121029110Y-123748800D01*
X138155721Y-123748800D01*
X138174763Y-123905618D01*
X138230780Y-124053323D01*
X138320515Y-124183328D01*
X138320516Y-124183329D01*
X138320517Y-124183330D01*
X138438760Y-124288083D01*
X138578635Y-124361496D01*
X138732015Y-124399300D01*
X138889985Y-124399300D01*
X139043365Y-124361496D01*
X139183240Y-124288083D01*
X139301483Y-124183330D01*
X139391220Y-124053323D01*
X139447237Y-123905618D01*
X139466278Y-123748800D01*
X139447237Y-123591982D01*
X139391220Y-123444277D01*
X139301483Y-123314270D01*
X139183240Y-123209517D01*
X139168247Y-123201648D01*
X139043364Y-123136103D01*
X138889985Y-123098300D01*
X138732015Y-123098300D01*
X138578635Y-123136103D01*
X138438761Y-123209516D01*
X138320515Y-123314271D01*
X138230780Y-123444276D01*
X138174763Y-123591981D01*
X138155721Y-123748800D01*
X121029110Y-123748800D01*
X121042815Y-123600900D01*
X121023997Y-123397817D01*
X120968182Y-123201650D01*
X120936103Y-123137226D01*
X120877275Y-123019081D01*
X120754363Y-122856319D01*
X120603641Y-122718918D01*
X120430238Y-122611552D01*
X120240057Y-122537876D01*
X120173229Y-122525384D01*
X120039576Y-122500400D01*
X119835624Y-122500400D01*
X119824134Y-122500400D01*
X119824134Y-122496074D01*
X119776932Y-122491197D01*
X119722349Y-122447581D01*
X119700010Y-122381378D01*
X119700815Y-122361505D01*
X119705078Y-122326400D01*
X119703478Y-122313226D01*
X119701915Y-122300346D01*
X119713376Y-122231422D01*
X119742381Y-122199399D01*
X128148121Y-122199399D01*
X128167163Y-122356218D01*
X128223180Y-122503923D01*
X128312915Y-122633928D01*
X128312916Y-122633929D01*
X128312917Y-122633930D01*
X128431160Y-122738683D01*
X128571035Y-122812096D01*
X128724415Y-122849900D01*
X128882385Y-122849900D01*
X129035765Y-122812096D01*
X129175640Y-122738683D01*
X129293883Y-122633930D01*
X129383620Y-122503923D01*
X129439637Y-122356218D01*
X129458678Y-122199400D01*
X129439637Y-122042582D01*
X129383620Y-121894877D01*
X129293883Y-121764870D01*
X129175640Y-121660117D01*
X129142495Y-121642721D01*
X129035764Y-121586703D01*
X128882385Y-121548900D01*
X128724415Y-121548900D01*
X128571035Y-121586703D01*
X128431161Y-121660116D01*
X128312915Y-121764871D01*
X128223180Y-121894876D01*
X128167163Y-122042581D01*
X128148121Y-122199399D01*
X119742381Y-122199399D01*
X119760280Y-122179637D01*
X119825011Y-122161400D01*
X120039574Y-122161400D01*
X120039576Y-122161400D01*
X120240056Y-122123924D01*
X120430237Y-122050248D01*
X120603641Y-121942881D01*
X120659596Y-121891871D01*
X120754363Y-121805480D01*
X120768231Y-121787116D01*
X120877273Y-121642721D01*
X120877273Y-121642719D01*
X120877275Y-121642718D01*
X120940209Y-121516328D01*
X120968182Y-121460150D01*
X121023997Y-121263983D01*
X121040878Y-121081800D01*
X145521721Y-121081800D01*
X145540763Y-121238618D01*
X145596780Y-121386323D01*
X145686515Y-121516328D01*
X145686516Y-121516329D01*
X145686517Y-121516330D01*
X145804760Y-121621083D01*
X145944635Y-121694496D01*
X146098015Y-121732300D01*
X146255985Y-121732300D01*
X146409365Y-121694496D01*
X146549240Y-121621083D01*
X146667483Y-121516330D01*
X146757220Y-121386323D01*
X146813237Y-121238618D01*
X146832278Y-121081800D01*
X146813237Y-120924982D01*
X146757220Y-120777277D01*
X146677409Y-120661650D01*
X146667484Y-120647271D01*
X146610994Y-120597226D01*
X146549240Y-120542517D01*
X146504303Y-120518932D01*
X146409364Y-120469103D01*
X146255985Y-120431300D01*
X146098015Y-120431300D01*
X145944635Y-120469103D01*
X145804761Y-120542516D01*
X145686515Y-120647271D01*
X145596780Y-120777276D01*
X145540763Y-120924981D01*
X145521721Y-121081800D01*
X121040878Y-121081800D01*
X121042815Y-121060900D01*
X121023997Y-120857817D01*
X120968182Y-120661650D01*
X120936103Y-120597226D01*
X120877275Y-120479081D01*
X120754363Y-120316319D01*
X120603641Y-120178918D01*
X120430238Y-120071552D01*
X120240057Y-119997876D01*
X120173229Y-119985384D01*
X120039576Y-119960400D01*
X119835624Y-119960400D01*
X119735384Y-119979137D01*
X119635142Y-119997876D01*
X119444961Y-120071552D01*
X119271558Y-120178918D01*
X119120836Y-120316319D01*
X118997924Y-120479081D01*
X118907018Y-120661648D01*
X118851202Y-120857816D01*
X118832385Y-121060900D01*
X118851202Y-121263983D01*
X118907016Y-121460147D01*
X118940658Y-121527709D01*
X118952918Y-121596495D01*
X118926044Y-121660989D01*
X118868568Y-121700717D01*
X118859332Y-121703377D01*
X118817433Y-121713704D01*
X118718923Y-121765407D01*
X118650415Y-121779133D01*
X118585362Y-121753641D01*
X118544417Y-121697025D01*
X118537297Y-121655611D01*
X118537297Y-118520899D01*
X118832385Y-118520899D01*
X118851202Y-118723983D01*
X118907018Y-118920151D01*
X118997924Y-119102718D01*
X119120836Y-119265480D01*
X119271558Y-119402881D01*
X119399142Y-119481877D01*
X119444963Y-119510248D01*
X119635144Y-119583924D01*
X119835624Y-119621400D01*
X119835626Y-119621400D01*
X120039574Y-119621400D01*
X120039576Y-119621400D01*
X120240056Y-119583924D01*
X120430237Y-119510248D01*
X120603641Y-119402881D01*
X120659596Y-119351871D01*
X120754363Y-119265480D01*
X120877275Y-119102718D01*
X120940095Y-118976557D01*
X120968182Y-118920150D01*
X121023997Y-118723983D01*
X121042815Y-118520900D01*
X121023997Y-118317817D01*
X120968182Y-118121650D01*
X120936103Y-118057226D01*
X120877275Y-117939081D01*
X120754363Y-117776319D01*
X120603641Y-117638918D01*
X120430238Y-117531552D01*
X120240057Y-117457876D01*
X120173229Y-117445384D01*
X120039576Y-117420400D01*
X119835624Y-117420400D01*
X119735384Y-117439137D01*
X119635142Y-117457876D01*
X119444961Y-117531552D01*
X119271558Y-117638918D01*
X119120836Y-117776319D01*
X118997924Y-117939081D01*
X118907018Y-118121648D01*
X118851202Y-118317816D01*
X118832385Y-118520899D01*
X118537297Y-118520899D01*
X118537297Y-115980899D01*
X118832385Y-115980899D01*
X118851202Y-116183983D01*
X118907018Y-116380151D01*
X118997924Y-116562718D01*
X119120836Y-116725480D01*
X119271558Y-116862881D01*
X119399142Y-116941877D01*
X119444963Y-116970248D01*
X119635144Y-117043924D01*
X119835624Y-117081400D01*
X119835626Y-117081400D01*
X120039574Y-117081400D01*
X120039576Y-117081400D01*
X120240056Y-117043924D01*
X120430237Y-116970248D01*
X120603641Y-116862881D01*
X120659596Y-116811871D01*
X120754363Y-116725480D01*
X120852217Y-116595900D01*
X120877273Y-116562721D01*
X120877273Y-116562719D01*
X120877275Y-116562718D01*
X120943767Y-116429182D01*
X120968182Y-116380150D01*
X121023997Y-116183983D01*
X121042815Y-115980900D01*
X121023997Y-115777817D01*
X120968182Y-115581650D01*
X120936103Y-115517226D01*
X120877275Y-115399081D01*
X120754363Y-115236319D01*
X120603641Y-115098918D01*
X120430238Y-114991552D01*
X120240057Y-114917876D01*
X120173229Y-114905384D01*
X120039576Y-114880400D01*
X119835624Y-114880400D01*
X119735384Y-114899137D01*
X119635142Y-114917876D01*
X119444961Y-114991552D01*
X119271558Y-115098918D01*
X119120836Y-115236319D01*
X118997924Y-115399081D01*
X118907018Y-115581648D01*
X118851202Y-115777816D01*
X118832385Y-115980899D01*
X118537297Y-115980899D01*
X118537297Y-113440900D01*
X118832385Y-113440900D01*
X118851202Y-113643983D01*
X118907018Y-113840151D01*
X118997924Y-114022718D01*
X119120836Y-114185480D01*
X119271558Y-114322881D01*
X119399142Y-114401877D01*
X119444963Y-114430248D01*
X119635144Y-114503924D01*
X119835624Y-114541400D01*
X119835626Y-114541400D01*
X120039574Y-114541400D01*
X120039576Y-114541400D01*
X120240056Y-114503924D01*
X120430237Y-114430248D01*
X120603641Y-114322881D01*
X120659596Y-114271871D01*
X120754363Y-114185480D01*
X120778395Y-114153657D01*
X120877273Y-114022721D01*
X120877273Y-114022719D01*
X120877275Y-114022718D01*
X120940095Y-113896557D01*
X120968182Y-113840150D01*
X121023997Y-113643983D01*
X121042815Y-113440900D01*
X121023997Y-113237817D01*
X120968182Y-113041650D01*
X120936103Y-112977226D01*
X120877275Y-112859081D01*
X120754363Y-112696319D01*
X120603641Y-112558918D01*
X120430238Y-112451552D01*
X120240057Y-112377876D01*
X120173229Y-112365384D01*
X120039576Y-112340400D01*
X119835624Y-112340400D01*
X119735384Y-112359137D01*
X119635142Y-112377876D01*
X119444961Y-112451552D01*
X119271558Y-112558918D01*
X119120836Y-112696319D01*
X118997924Y-112859081D01*
X118907018Y-113041648D01*
X118851202Y-113237816D01*
X118832385Y-113440900D01*
X118537297Y-113440900D01*
X118537297Y-110900899D01*
X118832385Y-110900899D01*
X118851202Y-111103983D01*
X118907018Y-111300151D01*
X118997924Y-111482718D01*
X119120836Y-111645480D01*
X119271558Y-111782881D01*
X119399142Y-111861877D01*
X119444963Y-111890248D01*
X119635144Y-111963924D01*
X119835624Y-112001400D01*
X119835626Y-112001400D01*
X120039574Y-112001400D01*
X120039576Y-112001400D01*
X120240056Y-111963924D01*
X120241925Y-111963200D01*
X128706921Y-111963200D01*
X128725963Y-112120018D01*
X128781980Y-112267723D01*
X128871715Y-112397728D01*
X128871716Y-112397729D01*
X128871717Y-112397730D01*
X128989960Y-112502483D01*
X129129835Y-112575896D01*
X129283215Y-112613700D01*
X129441185Y-112613700D01*
X129594565Y-112575896D01*
X129734440Y-112502483D01*
X129852683Y-112397730D01*
X129942420Y-112267723D01*
X129998437Y-112120018D01*
X130017478Y-111963200D01*
X129998437Y-111806382D01*
X129942420Y-111658677D01*
X129852683Y-111528670D01*
X129734440Y-111423917D01*
X129649385Y-111379276D01*
X129594564Y-111350503D01*
X129441185Y-111312700D01*
X129283215Y-111312700D01*
X129129835Y-111350503D01*
X128989961Y-111423916D01*
X128871715Y-111528671D01*
X128781980Y-111658676D01*
X128725963Y-111806381D01*
X128706921Y-111963200D01*
X120241925Y-111963200D01*
X120430237Y-111890248D01*
X120603641Y-111782881D01*
X120659596Y-111731871D01*
X120754363Y-111645480D01*
X120842574Y-111528670D01*
X120877273Y-111482721D01*
X120877273Y-111482719D01*
X120877275Y-111482718D01*
X120943109Y-111350503D01*
X120968182Y-111300150D01*
X121023997Y-111103983D01*
X121042815Y-110900900D01*
X121023997Y-110697817D01*
X120968182Y-110501650D01*
X120936103Y-110437226D01*
X120877275Y-110319081D01*
X120754363Y-110156319D01*
X120603641Y-110018918D01*
X120430238Y-109911552D01*
X120240057Y-109837876D01*
X120173229Y-109825384D01*
X120039576Y-109800400D01*
X119835624Y-109800400D01*
X119735384Y-109819137D01*
X119635142Y-109837876D01*
X119444961Y-109911552D01*
X119271558Y-110018918D01*
X119120836Y-110156319D01*
X118997924Y-110319081D01*
X118907018Y-110501648D01*
X118851202Y-110697816D01*
X118832385Y-110900899D01*
X118537297Y-110900899D01*
X118537297Y-107757188D01*
X118556982Y-107690149D01*
X118609786Y-107644394D01*
X118678944Y-107634450D01*
X118718920Y-107647390D01*
X118817435Y-107699096D01*
X118849886Y-107707094D01*
X118863322Y-107710406D01*
X118923704Y-107745561D01*
X118955493Y-107807780D01*
X118948598Y-107877309D01*
X118944650Y-107886074D01*
X118907016Y-107961652D01*
X118851202Y-108157816D01*
X118832385Y-108360899D01*
X118851202Y-108563983D01*
X118907018Y-108760151D01*
X118997924Y-108942718D01*
X119120836Y-109105480D01*
X119271558Y-109242881D01*
X119399142Y-109321877D01*
X119444963Y-109350248D01*
X119635144Y-109423924D01*
X119835624Y-109461400D01*
X119835626Y-109461400D01*
X120039574Y-109461400D01*
X120039576Y-109461400D01*
X120240056Y-109423924D01*
X120430237Y-109350248D01*
X120603641Y-109242881D01*
X120659596Y-109191871D01*
X120754363Y-109105480D01*
X120768231Y-109087116D01*
X120877273Y-108942721D01*
X120877273Y-108942719D01*
X120877275Y-108942718D01*
X120966862Y-108762800D01*
X120968182Y-108760150D01*
X121023997Y-108563983D01*
X121042815Y-108360900D01*
X121023997Y-108157817D01*
X121021802Y-108150104D01*
X120973351Y-107979818D01*
X120968182Y-107961650D01*
X120957563Y-107940324D01*
X120877275Y-107779081D01*
X120754363Y-107616319D01*
X120734069Y-107597819D01*
X130486510Y-107597819D01*
X130490828Y-107647168D01*
X130491300Y-107657975D01*
X130491300Y-107663509D01*
X130491716Y-107667072D01*
X130491717Y-107667082D01*
X130494898Y-107694296D01*
X130495264Y-107697882D01*
X130501909Y-107773841D01*
X130506129Y-107792871D01*
X130506558Y-107794051D01*
X130506559Y-107794055D01*
X130532213Y-107864542D01*
X130533382Y-107867907D01*
X130557380Y-107940324D01*
X130565875Y-107957872D01*
X130607779Y-108021584D01*
X130609689Y-108024582D01*
X130649088Y-108088456D01*
X130649752Y-108089532D01*
X130662053Y-108104630D01*
X130662968Y-108105493D01*
X130662970Y-108105496D01*
X130710251Y-108150103D01*
X130717509Y-108156951D01*
X130720096Y-108159464D01*
X136482667Y-113922034D01*
X136494448Y-113935666D01*
X136508789Y-113954929D01*
X136546739Y-113986773D01*
X136554714Y-113994081D01*
X136558624Y-113997991D01*
X136561456Y-114000230D01*
X136582941Y-114017218D01*
X136585704Y-114019469D01*
X136643186Y-114067702D01*
X136643188Y-114067703D01*
X136644150Y-114068510D01*
X136660580Y-114078978D01*
X136661722Y-114079510D01*
X136661723Y-114079511D01*
X136729750Y-114111232D01*
X136732927Y-114112771D01*
X136799967Y-114146440D01*
X136801102Y-114147010D01*
X136819485Y-114153399D01*
X136820722Y-114153654D01*
X136820728Y-114153657D01*
X136894252Y-114168837D01*
X136897686Y-114169599D01*
X136943966Y-114180568D01*
X136971906Y-114187191D01*
X136991279Y-114189170D01*
X136992541Y-114189133D01*
X136992545Y-114189134D01*
X137064934Y-114187027D01*
X137067532Y-114186952D01*
X137071138Y-114186900D01*
X141098500Y-114186900D01*
X141165539Y-114206585D01*
X141211294Y-114259389D01*
X141222500Y-114310899D01*
X141222500Y-115852400D01*
X141228339Y-115906713D01*
X141229044Y-115909956D01*
X141229045Y-115909959D01*
X141239195Y-115956618D01*
X141239200Y-115956639D01*
X141239545Y-115958224D01*
X141245766Y-115980900D01*
X141246782Y-115984600D01*
X141296109Y-116071225D01*
X141296112Y-116071228D01*
X141341867Y-116124032D01*
X141374641Y-116155657D01*
X141462976Y-116201865D01*
X141514237Y-116216917D01*
X141530015Y-116221550D01*
X141602000Y-116231900D01*
X145588337Y-116231900D01*
X145655376Y-116251585D01*
X145701131Y-116304389D01*
X145711075Y-116373547D01*
X145704279Y-116399870D01*
X145693163Y-116429179D01*
X145674121Y-116586000D01*
X145693163Y-116742818D01*
X145749180Y-116890523D01*
X145838915Y-117020528D01*
X145838916Y-117020529D01*
X145838917Y-117020530D01*
X145957160Y-117125283D01*
X146097035Y-117198696D01*
X146250415Y-117236500D01*
X146408385Y-117236500D01*
X146561765Y-117198696D01*
X146701640Y-117125283D01*
X146819883Y-117020530D01*
X146909620Y-116890523D01*
X146965637Y-116742818D01*
X146984678Y-116586000D01*
X146965637Y-116429182D01*
X146909620Y-116281477D01*
X146819883Y-116151470D01*
X146701640Y-116046717D01*
X146617856Y-116002743D01*
X146561764Y-115973303D01*
X146408385Y-115935500D01*
X146250415Y-115935500D01*
X146250414Y-115935500D01*
X146230574Y-115940390D01*
X146160772Y-115937320D01*
X146103710Y-115897000D01*
X146077505Y-115832231D01*
X146076900Y-115819993D01*
X146076900Y-115011199D01*
X148264921Y-115011199D01*
X148283963Y-115168018D01*
X148339980Y-115315723D01*
X148429715Y-115445728D01*
X148429716Y-115445729D01*
X148429717Y-115445730D01*
X148547960Y-115550483D01*
X148687835Y-115623896D01*
X148841215Y-115661700D01*
X148999185Y-115661700D01*
X149152565Y-115623896D01*
X149292440Y-115550483D01*
X149410683Y-115445730D01*
X149500420Y-115315723D01*
X149556437Y-115168018D01*
X149575478Y-115011200D01*
X149556437Y-114854382D01*
X149500420Y-114706677D01*
X149410683Y-114576670D01*
X149292440Y-114471917D01*
X149279194Y-114464965D01*
X149152564Y-114398503D01*
X148999185Y-114360700D01*
X148841215Y-114360700D01*
X148687835Y-114398503D01*
X148547961Y-114471916D01*
X148429715Y-114576671D01*
X148339980Y-114706676D01*
X148283963Y-114854381D01*
X148264921Y-115011199D01*
X146076900Y-115011199D01*
X146076900Y-112598510D01*
X146076900Y-112598509D01*
X146076900Y-112595200D01*
X146071061Y-112540887D01*
X146059855Y-112489376D01*
X146052619Y-112463002D01*
X146040136Y-112441081D01*
X146003290Y-112376374D01*
X145959345Y-112325659D01*
X145959343Y-112325657D01*
X145957533Y-112323568D01*
X145924759Y-112291943D01*
X145836424Y-112245735D01*
X145816832Y-112239982D01*
X145769384Y-112226049D01*
X145697400Y-112215700D01*
X141602000Y-112215700D01*
X141598720Y-112216052D01*
X141598712Y-112216053D01*
X141550987Y-112221184D01*
X141550982Y-112221184D01*
X141547687Y-112221539D01*
X141544446Y-112222243D01*
X141544440Y-112222245D01*
X141497781Y-112232395D01*
X141497751Y-112232402D01*
X141496176Y-112232745D01*
X141494613Y-112233173D01*
X141494600Y-112233177D01*
X141477496Y-112237869D01*
X141469802Y-112239981D01*
X141469801Y-112239981D01*
X141469799Y-112239982D01*
X141383174Y-112289309D01*
X141332459Y-112333254D01*
X141332445Y-112333267D01*
X141330368Y-112335067D01*
X141317844Y-112348046D01*
X141298742Y-112367842D01*
X141252535Y-112456175D01*
X141232849Y-112523216D01*
X141224751Y-112579546D01*
X141195727Y-112643102D01*
X141136949Y-112680877D01*
X141102013Y-112685900D01*
X137420629Y-112685900D01*
X137353590Y-112666215D01*
X137332948Y-112649581D01*
X136367166Y-111683799D01*
X157510521Y-111683799D01*
X157529563Y-111840618D01*
X157585580Y-111988323D01*
X157675315Y-112118328D01*
X157675316Y-112118329D01*
X157675317Y-112118330D01*
X157793560Y-112223083D01*
X157933435Y-112296496D01*
X158086815Y-112334300D01*
X158244785Y-112334300D01*
X158398165Y-112296496D01*
X158538040Y-112223083D01*
X158656283Y-112118330D01*
X158746020Y-111988323D01*
X158802037Y-111840618D01*
X158821078Y-111683800D01*
X158802037Y-111526982D01*
X158746020Y-111379277D01*
X158700065Y-111312700D01*
X158656284Y-111249271D01*
X158656283Y-111249270D01*
X158538040Y-111144517D01*
X158460810Y-111103983D01*
X158398164Y-111071103D01*
X158244785Y-111033300D01*
X158086815Y-111033300D01*
X157933435Y-111071103D01*
X157793561Y-111144516D01*
X157675315Y-111249271D01*
X157585580Y-111379276D01*
X157529563Y-111526981D01*
X157510521Y-111683799D01*
X136367166Y-111683799D01*
X134702285Y-110018918D01*
X133446168Y-108762800D01*
X153040121Y-108762800D01*
X153059163Y-108919618D01*
X153115180Y-109067323D01*
X153204915Y-109197328D01*
X153204916Y-109197329D01*
X153204917Y-109197330D01*
X153323160Y-109302083D01*
X153463035Y-109375496D01*
X153616415Y-109413300D01*
X153774385Y-109413300D01*
X153927765Y-109375496D01*
X153933666Y-109372399D01*
X158780521Y-109372399D01*
X158799563Y-109529218D01*
X158855580Y-109676923D01*
X158945315Y-109806928D01*
X158945316Y-109806929D01*
X158945317Y-109806930D01*
X159063560Y-109911683D01*
X159203435Y-109985096D01*
X159356815Y-110022900D01*
X159514785Y-110022900D01*
X159668165Y-109985096D01*
X159808040Y-109911683D01*
X159926283Y-109806930D01*
X160016020Y-109676923D01*
X160072037Y-109529218D01*
X160091078Y-109372400D01*
X160072037Y-109215582D01*
X160016020Y-109067877D01*
X159934544Y-108949838D01*
X159926284Y-108937871D01*
X159926283Y-108937870D01*
X159808040Y-108833117D01*
X159776488Y-108816557D01*
X159668164Y-108759703D01*
X159514785Y-108721900D01*
X159356815Y-108721900D01*
X159203435Y-108759703D01*
X159063561Y-108833116D01*
X158945315Y-108937871D01*
X158855580Y-109067876D01*
X158799563Y-109215581D01*
X158780521Y-109372399D01*
X153933666Y-109372399D01*
X154067640Y-109302083D01*
X154185883Y-109197330D01*
X154275620Y-109067323D01*
X154331637Y-108919618D01*
X154350678Y-108762800D01*
X154331637Y-108605982D01*
X154275620Y-108458277D01*
X154230751Y-108393273D01*
X154185884Y-108328271D01*
X154106033Y-108257530D01*
X154067640Y-108223517D01*
X154054394Y-108216564D01*
X153927764Y-108150103D01*
X153774385Y-108112300D01*
X153616415Y-108112300D01*
X153463035Y-108150103D01*
X153323161Y-108223516D01*
X153204915Y-108328271D01*
X153115180Y-108458276D01*
X153059163Y-108605981D01*
X153040121Y-108762800D01*
X133446168Y-108762800D01*
X132506368Y-107823000D01*
X140086121Y-107823000D01*
X140105163Y-107979818D01*
X140161180Y-108127523D01*
X140250915Y-108257528D01*
X140250916Y-108257529D01*
X140250917Y-108257530D01*
X140369160Y-108362283D01*
X140509035Y-108435696D01*
X140662415Y-108473500D01*
X140820385Y-108473500D01*
X140973765Y-108435696D01*
X141113640Y-108362283D01*
X141231883Y-108257530D01*
X141321620Y-108127523D01*
X141377637Y-107979818D01*
X141396678Y-107823000D01*
X141384342Y-107721400D01*
X145394721Y-107721400D01*
X145413763Y-107878218D01*
X145469780Y-108025923D01*
X145559515Y-108155928D01*
X145559516Y-108155929D01*
X145559517Y-108155930D01*
X145677760Y-108260683D01*
X145817635Y-108334096D01*
X145971015Y-108371900D01*
X146128985Y-108371900D01*
X146282365Y-108334096D01*
X146422240Y-108260683D01*
X146540483Y-108155930D01*
X146630220Y-108025923D01*
X146686237Y-107878218D01*
X146705278Y-107721400D01*
X146686237Y-107564582D01*
X146630220Y-107416877D01*
X146540483Y-107286870D01*
X146422240Y-107182117D01*
X146363640Y-107151361D01*
X146282364Y-107108703D01*
X146128985Y-107070900D01*
X145971015Y-107070900D01*
X145817635Y-107108703D01*
X145677761Y-107182116D01*
X145559515Y-107286871D01*
X145469780Y-107416876D01*
X145413763Y-107564581D01*
X145394721Y-107721400D01*
X141384342Y-107721400D01*
X141377637Y-107666182D01*
X141321620Y-107518477D01*
X141231883Y-107388470D01*
X141113640Y-107283717D01*
X141063822Y-107257570D01*
X140973764Y-107210303D01*
X140820385Y-107172500D01*
X140662415Y-107172500D01*
X140509035Y-107210303D01*
X140369161Y-107283716D01*
X140250915Y-107388471D01*
X140161180Y-107518476D01*
X140105163Y-107666181D01*
X140086121Y-107823000D01*
X132506368Y-107823000D01*
X132028616Y-107345248D01*
X131995133Y-107283928D01*
X131992300Y-107257579D01*
X131992300Y-103962199D01*
X137393721Y-103962199D01*
X137412763Y-104119018D01*
X137468780Y-104266723D01*
X137558515Y-104396728D01*
X137558516Y-104396729D01*
X137558517Y-104396730D01*
X137676760Y-104501483D01*
X137816635Y-104574896D01*
X137970015Y-104612700D01*
X138127985Y-104612700D01*
X138281365Y-104574896D01*
X138421240Y-104501483D01*
X138456552Y-104470200D01*
X150525521Y-104470200D01*
X150544563Y-104627018D01*
X150600580Y-104774723D01*
X150690315Y-104904728D01*
X150690316Y-104904729D01*
X150690317Y-104904730D01*
X150808560Y-105009483D01*
X150948435Y-105082896D01*
X151101815Y-105120700D01*
X151259785Y-105120700D01*
X151413165Y-105082896D01*
X151553040Y-105009483D01*
X151671283Y-104904730D01*
X151761020Y-104774723D01*
X151817037Y-104627018D01*
X151836078Y-104470200D01*
X151817037Y-104313382D01*
X151761020Y-104165677D01*
X151716151Y-104100673D01*
X151671284Y-104035671D01*
X151659781Y-104025480D01*
X151553040Y-103930917D01*
X151486322Y-103895900D01*
X151413164Y-103857503D01*
X151259785Y-103819700D01*
X151101815Y-103819700D01*
X150948435Y-103857503D01*
X150808561Y-103930916D01*
X150690315Y-104035671D01*
X150600580Y-104165676D01*
X150544563Y-104313381D01*
X150525521Y-104470200D01*
X138456552Y-104470200D01*
X138539483Y-104396730D01*
X138629220Y-104266723D01*
X138685237Y-104119018D01*
X138704278Y-103962200D01*
X138685237Y-103805382D01*
X138629220Y-103657677D01*
X138539483Y-103527670D01*
X138421240Y-103422917D01*
X138407994Y-103415964D01*
X138281364Y-103349503D01*
X138127985Y-103311700D01*
X137970015Y-103311700D01*
X137816635Y-103349503D01*
X137676761Y-103422916D01*
X137558515Y-103527671D01*
X137468780Y-103657676D01*
X137412763Y-103805381D01*
X137393721Y-103962199D01*
X131992300Y-103962199D01*
X131992300Y-102446600D01*
X147392921Y-102446600D01*
X147411963Y-102603418D01*
X147467980Y-102751123D01*
X147557715Y-102881128D01*
X147557716Y-102881129D01*
X147557717Y-102881130D01*
X147675960Y-102985883D01*
X147815835Y-103059296D01*
X147969215Y-103097100D01*
X148127185Y-103097100D01*
X148280565Y-103059296D01*
X148420440Y-102985883D01*
X148538683Y-102881130D01*
X148628420Y-102751123D01*
X148684437Y-102603418D01*
X148695246Y-102514400D01*
X150982721Y-102514400D01*
X151001763Y-102671218D01*
X151057780Y-102818923D01*
X151147515Y-102948928D01*
X151147516Y-102948929D01*
X151147517Y-102948930D01*
X151265760Y-103053683D01*
X151405635Y-103127096D01*
X151559015Y-103164900D01*
X151716985Y-103164900D01*
X151870365Y-103127096D01*
X152010240Y-103053683D01*
X152128483Y-102948930D01*
X152218220Y-102818923D01*
X152274237Y-102671218D01*
X152293278Y-102514400D01*
X152274237Y-102357582D01*
X152218220Y-102209877D01*
X152128483Y-102079870D01*
X152010240Y-101975117D01*
X151993631Y-101966400D01*
X151870364Y-101901703D01*
X151716985Y-101863900D01*
X151559015Y-101863900D01*
X151405635Y-101901703D01*
X151265761Y-101975116D01*
X151147515Y-102079871D01*
X151057780Y-102209876D01*
X151001763Y-102357581D01*
X150982721Y-102514400D01*
X148695246Y-102514400D01*
X148703478Y-102446600D01*
X148684437Y-102289782D01*
X148628420Y-102142077D01*
X148565699Y-102051210D01*
X148538684Y-102012071D01*
X148532278Y-102006396D01*
X148420440Y-101907317D01*
X148310435Y-101849581D01*
X148280564Y-101833903D01*
X148127185Y-101796100D01*
X147969215Y-101796100D01*
X147815835Y-101833903D01*
X147675961Y-101907316D01*
X147557715Y-102012071D01*
X147467980Y-102142076D01*
X147411963Y-102289781D01*
X147392921Y-102446600D01*
X131992300Y-102446600D01*
X131992300Y-97390228D01*
X132011985Y-97323190D01*
X132028619Y-97302548D01*
X132614539Y-96716628D01*
X139077289Y-96716628D01*
X139096331Y-96873446D01*
X139152348Y-97021151D01*
X139242083Y-97151156D01*
X139242084Y-97151157D01*
X139242085Y-97151158D01*
X139360328Y-97255911D01*
X139480376Y-97318918D01*
X139500203Y-97329324D01*
X139653583Y-97367128D01*
X139820305Y-97367128D01*
X139887344Y-97386813D01*
X139933099Y-97439617D01*
X139943043Y-97473481D01*
X139962434Y-97608357D01*
X140022223Y-97739274D01*
X140116471Y-97848043D01*
X140137542Y-97861585D01*
X140183297Y-97914390D01*
X140193240Y-97983548D01*
X140164214Y-98047104D01*
X140137542Y-98070215D01*
X140116471Y-98083756D01*
X140022223Y-98192525D01*
X139962434Y-98323442D01*
X139941953Y-98465900D01*
X139962434Y-98608357D01*
X140022223Y-98739274D01*
X140116471Y-98848043D01*
X140137542Y-98861585D01*
X140183297Y-98914390D01*
X140193240Y-98983548D01*
X140164214Y-99047104D01*
X140137542Y-99070215D01*
X140116471Y-99083756D01*
X140022223Y-99192525D01*
X139962434Y-99323442D01*
X139941953Y-99465900D01*
X139962434Y-99608357D01*
X140022223Y-99739274D01*
X140116471Y-99848043D01*
X140137542Y-99861585D01*
X140183297Y-99914390D01*
X140193240Y-99983548D01*
X140164214Y-100047104D01*
X140137542Y-100070215D01*
X140116471Y-100083756D01*
X140022223Y-100192525D01*
X139962434Y-100323442D01*
X139941953Y-100465900D01*
X139962434Y-100608357D01*
X140022223Y-100739274D01*
X140116471Y-100848043D01*
X140137542Y-100861585D01*
X140183297Y-100914390D01*
X140193240Y-100983548D01*
X140164214Y-101047104D01*
X140137542Y-101070215D01*
X140116471Y-101083756D01*
X140022223Y-101192525D01*
X139962434Y-101323442D01*
X139941953Y-101465900D01*
X139962434Y-101608357D01*
X140022223Y-101739274D01*
X140110716Y-101841400D01*
X140116472Y-101848043D01*
X140237547Y-101925853D01*
X140375639Y-101966400D01*
X140519561Y-101966400D01*
X140657653Y-101925853D01*
X140778728Y-101848043D01*
X140872977Y-101739273D01*
X140922305Y-101631259D01*
X140968061Y-101578455D01*
X141035100Y-101558771D01*
X141102140Y-101578456D01*
X141147894Y-101631259D01*
X141197223Y-101739274D01*
X141285716Y-101841400D01*
X141291472Y-101848043D01*
X141412547Y-101925853D01*
X141550639Y-101966400D01*
X141694561Y-101966400D01*
X141832653Y-101925853D01*
X141953728Y-101848043D01*
X142047977Y-101739273D01*
X142097305Y-101631259D01*
X142143061Y-101578455D01*
X142210100Y-101558771D01*
X142277140Y-101578456D01*
X142322894Y-101631259D01*
X142372223Y-101739274D01*
X142460716Y-101841400D01*
X142466472Y-101848043D01*
X142587547Y-101925853D01*
X142725639Y-101966400D01*
X142869561Y-101966400D01*
X143007653Y-101925853D01*
X143128728Y-101848043D01*
X143222977Y-101739273D01*
X143272305Y-101631259D01*
X143318061Y-101578455D01*
X143385100Y-101558771D01*
X143452140Y-101578456D01*
X143497894Y-101631259D01*
X143547223Y-101739274D01*
X143635716Y-101841400D01*
X143641472Y-101848043D01*
X143762547Y-101925853D01*
X143900639Y-101966400D01*
X144044561Y-101966400D01*
X144182653Y-101925853D01*
X144303728Y-101848043D01*
X144397977Y-101739273D01*
X144447305Y-101631259D01*
X144493061Y-101578455D01*
X144560100Y-101558771D01*
X144627140Y-101578456D01*
X144672894Y-101631259D01*
X144722223Y-101739274D01*
X144810716Y-101841400D01*
X144816472Y-101848043D01*
X144937547Y-101925853D01*
X145075639Y-101966400D01*
X145219561Y-101966400D01*
X145357653Y-101925853D01*
X145478728Y-101848043D01*
X145572977Y-101739273D01*
X145632765Y-101608357D01*
X145653247Y-101465900D01*
X145635288Y-101340989D01*
X145632765Y-101323442D01*
X145572976Y-101192525D01*
X145478729Y-101083757D01*
X145457658Y-101070216D01*
X145411902Y-101017413D01*
X145401958Y-100948255D01*
X145430982Y-100884699D01*
X145457658Y-100861584D01*
X145464290Y-100857321D01*
X145478728Y-100848043D01*
X145572977Y-100739273D01*
X145632765Y-100608357D01*
X145653247Y-100465900D01*
X145632765Y-100323443D01*
X145622305Y-100300540D01*
X145572976Y-100192525D01*
X145478729Y-100083757D01*
X145457658Y-100070216D01*
X145411902Y-100017413D01*
X145401958Y-99948255D01*
X145430982Y-99884699D01*
X145457658Y-99861584D01*
X145464290Y-99857321D01*
X145478728Y-99848043D01*
X145572977Y-99739273D01*
X145632765Y-99608357D01*
X145653247Y-99465900D01*
X145632765Y-99323443D01*
X145626434Y-99309581D01*
X145572976Y-99192525D01*
X145478729Y-99083757D01*
X145457658Y-99070216D01*
X145411902Y-99017413D01*
X145401958Y-98948255D01*
X145430982Y-98884699D01*
X145457658Y-98861584D01*
X145469921Y-98853703D01*
X145478728Y-98848043D01*
X145572977Y-98739273D01*
X145632765Y-98608357D01*
X145653247Y-98465900D01*
X145632765Y-98323443D01*
X145622305Y-98300540D01*
X145572976Y-98192525D01*
X145478729Y-98083757D01*
X145457658Y-98070216D01*
X145411902Y-98017413D01*
X145401958Y-97948255D01*
X145430982Y-97884699D01*
X145457658Y-97861584D01*
X145464290Y-97857321D01*
X145478728Y-97848043D01*
X145572977Y-97739273D01*
X145632765Y-97608357D01*
X145653247Y-97465900D01*
X145632765Y-97323443D01*
X145632649Y-97323190D01*
X145572976Y-97192525D01*
X145478729Y-97083758D01*
X145478728Y-97083757D01*
X145357653Y-97005947D01*
X145219561Y-96965400D01*
X145075639Y-96965400D01*
X144937547Y-97005947D01*
X144816470Y-97083758D01*
X144722223Y-97192525D01*
X144672894Y-97300540D01*
X144627139Y-97353344D01*
X144560099Y-97373028D01*
X144493060Y-97353343D01*
X144447306Y-97300540D01*
X144397976Y-97192525D01*
X144303729Y-97083758D01*
X144303728Y-97083757D01*
X144182653Y-97005947D01*
X144044561Y-96965400D01*
X143900639Y-96965400D01*
X143762547Y-97005947D01*
X143641470Y-97083758D01*
X143547223Y-97192525D01*
X143497894Y-97300540D01*
X143452139Y-97353344D01*
X143385099Y-97373028D01*
X143318060Y-97353343D01*
X143272306Y-97300540D01*
X143222976Y-97192525D01*
X143128729Y-97083758D01*
X143128728Y-97083757D01*
X143007653Y-97005947D01*
X142869561Y-96965400D01*
X142725639Y-96965400D01*
X142587547Y-97005947D01*
X142466470Y-97083758D01*
X142372223Y-97192525D01*
X142322894Y-97300540D01*
X142277139Y-97353344D01*
X142210099Y-97373028D01*
X142143060Y-97353343D01*
X142097306Y-97300540D01*
X142047976Y-97192525D01*
X141953729Y-97083758D01*
X141953728Y-97083757D01*
X141832653Y-97005947D01*
X141694561Y-96965400D01*
X141550639Y-96965400D01*
X141412547Y-97005947D01*
X141291470Y-97083758D01*
X141197223Y-97192525D01*
X141147894Y-97300540D01*
X141102139Y-97353344D01*
X141035099Y-97373028D01*
X140968060Y-97353343D01*
X140922306Y-97300540D01*
X140872976Y-97192525D01*
X140778729Y-97083758D01*
X140778728Y-97083757D01*
X140657653Y-97005947D01*
X140519561Y-96965400D01*
X140497607Y-96965400D01*
X140430568Y-96945715D01*
X140384813Y-96892911D01*
X140374511Y-96826454D01*
X140387846Y-96716628D01*
X140377350Y-96630187D01*
X140368805Y-96559810D01*
X140312788Y-96412105D01*
X140235903Y-96300717D01*
X140223052Y-96282099D01*
X140216055Y-96275900D01*
X140104808Y-96177345D01*
X139988988Y-96116557D01*
X139964932Y-96103931D01*
X139811553Y-96066128D01*
X139653583Y-96066128D01*
X139500203Y-96103931D01*
X139360329Y-96177344D01*
X139242083Y-96282099D01*
X139152348Y-96412104D01*
X139096331Y-96559809D01*
X139077289Y-96716628D01*
X132614539Y-96716628D01*
X133687467Y-95643700D01*
X136619021Y-95643700D01*
X136638063Y-95800518D01*
X136694080Y-95948223D01*
X136783815Y-96078228D01*
X136783816Y-96078229D01*
X136783817Y-96078230D01*
X136902060Y-96182983D01*
X137041935Y-96256396D01*
X137195315Y-96294200D01*
X137353285Y-96294200D01*
X137506665Y-96256396D01*
X137646540Y-96182983D01*
X137764783Y-96078230D01*
X137854520Y-95948223D01*
X137910537Y-95800518D01*
X137929578Y-95643700D01*
X137928169Y-95632099D01*
X137939628Y-95563179D01*
X137986531Y-95511392D01*
X138053986Y-95493183D01*
X138080933Y-95496755D01*
X138173215Y-95519500D01*
X138173216Y-95519500D01*
X138331185Y-95519500D01*
X138484565Y-95481696D01*
X138538859Y-95453200D01*
X151617721Y-95453200D01*
X151636763Y-95610018D01*
X151692780Y-95757723D01*
X151782515Y-95887728D01*
X151782516Y-95887729D01*
X151782517Y-95887730D01*
X151900760Y-95992483D01*
X152040635Y-96065896D01*
X152194015Y-96103700D01*
X152351985Y-96103700D01*
X152505365Y-96065896D01*
X152645240Y-95992483D01*
X152763483Y-95887730D01*
X152853220Y-95757723D01*
X152909237Y-95610018D01*
X152928278Y-95453200D01*
X152909237Y-95296382D01*
X152853220Y-95148677D01*
X152789742Y-95056713D01*
X152763484Y-95018671D01*
X152685432Y-94949524D01*
X152645240Y-94913917D01*
X152631994Y-94906964D01*
X152505364Y-94840503D01*
X152351985Y-94802700D01*
X152194015Y-94802700D01*
X152040635Y-94840503D01*
X151900761Y-94913916D01*
X151782515Y-95018671D01*
X151692780Y-95148676D01*
X151636763Y-95296381D01*
X151617721Y-95453200D01*
X138538859Y-95453200D01*
X138624440Y-95408283D01*
X138742683Y-95303530D01*
X138832420Y-95173523D01*
X138888437Y-95025818D01*
X138907478Y-94869000D01*
X138888437Y-94712182D01*
X138832420Y-94564477D01*
X138754342Y-94451361D01*
X138742684Y-94434471D01*
X138739003Y-94431210D01*
X138624440Y-94329717D01*
X138533286Y-94281875D01*
X138484564Y-94256303D01*
X138331185Y-94218500D01*
X138173215Y-94218500D01*
X138019835Y-94256303D01*
X137879961Y-94329716D01*
X137761715Y-94434471D01*
X137671980Y-94564476D01*
X137615963Y-94712181D01*
X137596922Y-94869000D01*
X137598330Y-94880601D01*
X137586869Y-94949524D01*
X137539965Y-95001310D01*
X137472509Y-95019516D01*
X137445560Y-95015943D01*
X137353285Y-94993200D01*
X137195315Y-94993200D01*
X137041935Y-95031003D01*
X136902061Y-95104416D01*
X136783815Y-95209171D01*
X136694080Y-95339176D01*
X136638063Y-95486881D01*
X136619021Y-95643700D01*
X133687467Y-95643700D01*
X136468767Y-92862400D01*
X140721121Y-92862400D01*
X140740163Y-93019218D01*
X140796180Y-93166923D01*
X140885915Y-93296928D01*
X140885916Y-93296929D01*
X140885917Y-93296930D01*
X141004160Y-93401683D01*
X141144035Y-93475096D01*
X141297415Y-93512900D01*
X141455385Y-93512900D01*
X141608765Y-93475096D01*
X141748640Y-93401683D01*
X141866883Y-93296930D01*
X141956620Y-93166923D01*
X142012637Y-93019218D01*
X142031678Y-92862400D01*
X142549921Y-92862400D01*
X142568963Y-93019218D01*
X142624980Y-93166923D01*
X142714715Y-93296928D01*
X142714716Y-93296929D01*
X142714717Y-93296930D01*
X142832960Y-93401683D01*
X142972835Y-93475096D01*
X143126215Y-93512900D01*
X143284185Y-93512900D01*
X143437565Y-93475096D01*
X143577440Y-93401683D01*
X143695683Y-93296930D01*
X143785420Y-93166923D01*
X143841437Y-93019218D01*
X143860478Y-92862400D01*
X143841437Y-92705582D01*
X143785420Y-92557877D01*
X143695683Y-92427870D01*
X143577440Y-92323117D01*
X143564194Y-92316165D01*
X143437564Y-92249703D01*
X143284185Y-92211900D01*
X143126215Y-92211900D01*
X142972835Y-92249703D01*
X142832961Y-92323116D01*
X142714715Y-92427871D01*
X142624980Y-92557876D01*
X142568963Y-92705581D01*
X142549921Y-92862400D01*
X142031678Y-92862400D01*
X142012637Y-92705582D01*
X141956620Y-92557877D01*
X141866883Y-92427870D01*
X141748640Y-92323117D01*
X141735394Y-92316165D01*
X141608764Y-92249703D01*
X141455385Y-92211900D01*
X141297415Y-92211900D01*
X141144035Y-92249703D01*
X141004161Y-92323116D01*
X140885915Y-92427871D01*
X140796180Y-92557876D01*
X140740163Y-92705581D01*
X140721121Y-92862400D01*
X136468767Y-92862400D01*
X137992767Y-91338400D01*
X148544321Y-91338400D01*
X148563363Y-91495218D01*
X148619380Y-91642923D01*
X148709115Y-91772928D01*
X148709116Y-91772929D01*
X148709117Y-91772930D01*
X148827360Y-91877683D01*
X148967235Y-91951096D01*
X149120615Y-91988900D01*
X149278585Y-91988900D01*
X149431965Y-91951096D01*
X149571840Y-91877683D01*
X149690083Y-91772930D01*
X149779820Y-91642923D01*
X149781450Y-91638623D01*
X149823622Y-91582921D01*
X149889218Y-91558860D01*
X149957410Y-91574082D01*
X150006546Y-91623755D01*
X150020489Y-91667643D01*
X150036563Y-91800018D01*
X150092580Y-91947723D01*
X150182315Y-92077728D01*
X150182316Y-92077729D01*
X150182317Y-92077730D01*
X150300560Y-92182483D01*
X150440435Y-92255896D01*
X150593815Y-92293700D01*
X150751785Y-92293700D01*
X150905165Y-92255896D01*
X151045040Y-92182483D01*
X151163283Y-92077730D01*
X151253020Y-91947723D01*
X151309037Y-91800018D01*
X151328078Y-91643200D01*
X151318826Y-91567000D01*
X151846321Y-91567000D01*
X151865363Y-91723818D01*
X151921380Y-91871523D01*
X152011115Y-92001528D01*
X152011116Y-92001529D01*
X152011117Y-92001530D01*
X152129360Y-92106283D01*
X152269235Y-92179696D01*
X152422615Y-92217500D01*
X152580585Y-92217500D01*
X152733965Y-92179696D01*
X152873840Y-92106283D01*
X152992083Y-92001530D01*
X153081820Y-91871523D01*
X153137837Y-91723818D01*
X153156878Y-91567000D01*
X153137837Y-91410182D01*
X153081820Y-91262477D01*
X153035865Y-91195900D01*
X152992084Y-91132471D01*
X152974051Y-91116495D01*
X152873840Y-91027717D01*
X152860594Y-91020764D01*
X152733964Y-90954303D01*
X152580585Y-90916500D01*
X152422615Y-90916500D01*
X152269235Y-90954303D01*
X152129361Y-91027716D01*
X152011115Y-91132471D01*
X151921380Y-91262476D01*
X151865363Y-91410181D01*
X151846321Y-91567000D01*
X151318826Y-91567000D01*
X151309037Y-91486382D01*
X151253020Y-91338677D01*
X151200423Y-91262477D01*
X151163284Y-91208671D01*
X151148868Y-91195900D01*
X151045040Y-91103917D01*
X151015643Y-91088488D01*
X150905164Y-91030503D01*
X150751785Y-90992700D01*
X150593815Y-90992700D01*
X150440435Y-91030503D01*
X150300561Y-91103916D01*
X150182315Y-91208671D01*
X150092579Y-91338676D01*
X150090948Y-91342980D01*
X150048770Y-91398683D01*
X149983173Y-91422740D01*
X149914982Y-91407513D01*
X149865849Y-91357837D01*
X149851910Y-91313956D01*
X149850110Y-91299133D01*
X149835837Y-91181582D01*
X149779820Y-91033877D01*
X149690083Y-90903870D01*
X149571840Y-90799117D01*
X149540368Y-90782599D01*
X149431964Y-90725703D01*
X149278585Y-90687900D01*
X149120615Y-90687900D01*
X148967235Y-90725703D01*
X148827361Y-90799116D01*
X148709115Y-90903871D01*
X148619380Y-91033876D01*
X148563363Y-91181581D01*
X148544321Y-91338400D01*
X137992767Y-91338400D01*
X138132748Y-91198419D01*
X138194071Y-91164934D01*
X138220429Y-91162100D01*
X139166290Y-91162100D01*
X139169600Y-91162100D01*
X139223913Y-91156261D01*
X139275424Y-91145055D01*
X139301798Y-91137819D01*
X139366507Y-91100970D01*
X139388425Y-91088490D01*
X139388425Y-91088489D01*
X139388428Y-91088488D01*
X139441232Y-91042733D01*
X139472857Y-91009959D01*
X139519065Y-90921624D01*
X139538750Y-90854585D01*
X139549100Y-90782600D01*
X139549100Y-90271600D01*
X152989321Y-90271600D01*
X153008363Y-90428418D01*
X153064380Y-90576123D01*
X153154115Y-90706128D01*
X153154116Y-90706129D01*
X153154117Y-90706130D01*
X153272360Y-90810883D01*
X153412235Y-90884296D01*
X153565615Y-90922100D01*
X153723585Y-90922100D01*
X153876965Y-90884296D01*
X154016840Y-90810883D01*
X154135083Y-90706130D01*
X154224820Y-90576123D01*
X154280837Y-90428418D01*
X154299878Y-90271600D01*
X154280837Y-90114782D01*
X154224820Y-89967077D01*
X154156013Y-89867392D01*
X154135084Y-89837071D01*
X154135083Y-89837070D01*
X154016840Y-89732317D01*
X153972467Y-89709028D01*
X153876964Y-89658903D01*
X153723585Y-89621100D01*
X153565615Y-89621100D01*
X153412235Y-89658903D01*
X153272361Y-89732316D01*
X153154115Y-89837071D01*
X153064380Y-89967076D01*
X153008363Y-90114781D01*
X152989321Y-90271600D01*
X139549100Y-90271600D01*
X139549100Y-89255600D01*
X144810521Y-89255600D01*
X144829563Y-89412418D01*
X144885580Y-89560123D01*
X144975315Y-89690128D01*
X144975316Y-89690129D01*
X144975317Y-89690130D01*
X145093560Y-89794883D01*
X145233435Y-89868296D01*
X145386815Y-89906100D01*
X145544785Y-89906100D01*
X145698165Y-89868296D01*
X145838040Y-89794883D01*
X145956283Y-89690130D01*
X146046020Y-89560123D01*
X146102037Y-89412418D01*
X146121078Y-89255600D01*
X146102037Y-89098782D01*
X146046020Y-88951077D01*
X145956283Y-88821070D01*
X145838040Y-88716317D01*
X145823119Y-88708486D01*
X145698164Y-88642903D01*
X145544785Y-88605100D01*
X145386815Y-88605100D01*
X145233435Y-88642903D01*
X145093561Y-88716316D01*
X144975315Y-88821071D01*
X144885580Y-88951076D01*
X144829563Y-89098781D01*
X144810521Y-89255600D01*
X139549100Y-89255600D01*
X139549100Y-88185800D01*
X139543261Y-88131487D01*
X139532055Y-88079976D01*
X139524819Y-88053602D01*
X139500559Y-88010999D01*
X143464321Y-88010999D01*
X143483363Y-88167818D01*
X143539380Y-88315523D01*
X143629115Y-88445528D01*
X143629116Y-88445529D01*
X143629117Y-88445530D01*
X143747360Y-88550283D01*
X143887235Y-88623696D01*
X144040615Y-88661500D01*
X144198585Y-88661500D01*
X144351965Y-88623696D01*
X144491840Y-88550283D01*
X144610083Y-88445530D01*
X144699820Y-88315523D01*
X144755837Y-88167818D01*
X144774878Y-88011000D01*
X144762542Y-87909399D01*
X153116321Y-87909399D01*
X153135363Y-88066218D01*
X153191380Y-88213923D01*
X153281115Y-88343928D01*
X153281116Y-88343929D01*
X153281117Y-88343930D01*
X153399360Y-88448683D01*
X153539235Y-88522096D01*
X153692615Y-88559900D01*
X153850585Y-88559900D01*
X154003965Y-88522096D01*
X154143840Y-88448683D01*
X154262083Y-88343930D01*
X154351820Y-88213923D01*
X154407837Y-88066218D01*
X154426878Y-87909400D01*
X154407837Y-87752582D01*
X154351820Y-87604877D01*
X154262083Y-87474870D01*
X154143840Y-87370117D01*
X154069468Y-87331083D01*
X154003964Y-87296703D01*
X153850585Y-87258900D01*
X153692615Y-87258900D01*
X153539235Y-87296703D01*
X153399361Y-87370116D01*
X153281115Y-87474871D01*
X153191380Y-87604876D01*
X153135363Y-87752581D01*
X153116321Y-87909399D01*
X144762542Y-87909399D01*
X144755837Y-87854182D01*
X144699820Y-87706477D01*
X144610083Y-87576470D01*
X144491840Y-87471717D01*
X144467761Y-87459079D01*
X144351964Y-87398303D01*
X144198585Y-87360500D01*
X144040615Y-87360500D01*
X143887235Y-87398303D01*
X143747361Y-87471716D01*
X143629115Y-87576471D01*
X143539380Y-87706476D01*
X143483363Y-87854181D01*
X143464321Y-88010999D01*
X139500559Y-88010999D01*
X139475490Y-87966974D01*
X139431545Y-87916259D01*
X139431543Y-87916257D01*
X139429733Y-87914168D01*
X139396959Y-87882543D01*
X139308624Y-87836335D01*
X139289032Y-87830582D01*
X139241584Y-87816649D01*
X139169600Y-87806300D01*
X137512600Y-87806300D01*
X137509320Y-87806652D01*
X137509312Y-87806653D01*
X137461587Y-87811784D01*
X137461582Y-87811784D01*
X137458287Y-87812139D01*
X137455046Y-87812843D01*
X137455040Y-87812845D01*
X137408381Y-87822995D01*
X137408351Y-87823002D01*
X137406776Y-87823345D01*
X137405213Y-87823773D01*
X137405200Y-87823777D01*
X137388096Y-87828469D01*
X137380402Y-87830581D01*
X137380401Y-87830581D01*
X137380399Y-87830582D01*
X137293774Y-87879909D01*
X137243059Y-87923854D01*
X137243045Y-87923867D01*
X137240968Y-87925667D01*
X137239053Y-87927652D01*
X137209342Y-87958442D01*
X137163135Y-88046775D01*
X137143449Y-88113815D01*
X137133100Y-88185800D01*
X137133100Y-90023969D01*
X137113415Y-90091008D01*
X137096781Y-90111650D01*
X130756158Y-96452272D01*
X130742527Y-96464053D01*
X130723268Y-96478391D01*
X130691435Y-96516328D01*
X130684138Y-96524292D01*
X130682772Y-96525657D01*
X130682750Y-96525681D01*
X130680209Y-96528223D01*
X130677973Y-96531050D01*
X130677971Y-96531053D01*
X130660976Y-96552546D01*
X130658702Y-96555337D01*
X130609694Y-96613744D01*
X130599218Y-96630187D01*
X130566992Y-96699294D01*
X130565422Y-96702536D01*
X130531193Y-96770692D01*
X130524796Y-96789098D01*
X130509373Y-96863788D01*
X130508593Y-96867305D01*
X130491008Y-96941506D01*
X130489029Y-96960881D01*
X130491247Y-97037130D01*
X130491299Y-97040735D01*
X130491299Y-107556094D01*
X130489990Y-107574061D01*
X130486510Y-107597819D01*
X120734069Y-107597819D01*
X120603641Y-107478918D01*
X120430238Y-107371552D01*
X120240057Y-107297876D01*
X120165440Y-107283928D01*
X120039576Y-107260400D01*
X119835624Y-107260400D01*
X119824134Y-107260400D01*
X119824134Y-107256074D01*
X119776932Y-107251197D01*
X119722349Y-107207581D01*
X119700010Y-107141378D01*
X119700815Y-107121505D01*
X119705078Y-107086400D01*
X119703196Y-107070900D01*
X119701915Y-107060346D01*
X119713376Y-106991422D01*
X119760280Y-106939637D01*
X119825011Y-106921400D01*
X120039574Y-106921400D01*
X120039576Y-106921400D01*
X120240056Y-106883924D01*
X120430237Y-106810248D01*
X120603641Y-106702881D01*
X120659596Y-106651871D01*
X120754363Y-106565480D01*
X120768231Y-106547116D01*
X120877273Y-106402721D01*
X120877273Y-106402719D01*
X120877275Y-106402718D01*
X120940095Y-106276557D01*
X120968182Y-106220150D01*
X121023997Y-106023983D01*
X121042815Y-105820900D01*
X121023997Y-105617817D01*
X120968182Y-105421650D01*
X120936103Y-105357226D01*
X120877275Y-105239081D01*
X120754363Y-105076319D01*
X120603641Y-104938918D01*
X120430238Y-104831552D01*
X120240057Y-104757876D01*
X120173229Y-104745384D01*
X120039576Y-104720400D01*
X119835624Y-104720400D01*
X119824134Y-104720400D01*
X119824134Y-104716074D01*
X119776932Y-104711197D01*
X119722349Y-104667581D01*
X119700010Y-104601378D01*
X119700815Y-104581505D01*
X119705078Y-104546400D01*
X119703478Y-104533226D01*
X119701915Y-104520346D01*
X119713376Y-104451422D01*
X119760280Y-104399637D01*
X119825011Y-104381400D01*
X120039574Y-104381400D01*
X120039576Y-104381400D01*
X120240056Y-104343924D01*
X120430237Y-104270248D01*
X120603641Y-104162881D01*
X120624604Y-104143771D01*
X120754363Y-104025480D01*
X120768231Y-104007116D01*
X120877273Y-103862721D01*
X120877273Y-103862719D01*
X120877275Y-103862718D01*
X120941705Y-103733323D01*
X120968182Y-103680150D01*
X121023997Y-103483983D01*
X121029110Y-103428800D01*
X127868721Y-103428800D01*
X127887763Y-103585618D01*
X127943780Y-103733323D01*
X128033515Y-103863328D01*
X128033516Y-103863329D01*
X128033517Y-103863330D01*
X128151760Y-103968083D01*
X128291635Y-104041496D01*
X128445015Y-104079300D01*
X128602985Y-104079300D01*
X128756365Y-104041496D01*
X128896240Y-103968083D01*
X129014483Y-103863330D01*
X129104220Y-103733323D01*
X129160237Y-103585618D01*
X129179278Y-103428800D01*
X129160237Y-103271982D01*
X129104220Y-103124277D01*
X129014483Y-102994270D01*
X128896240Y-102889517D01*
X128880256Y-102881128D01*
X128756364Y-102816103D01*
X128602985Y-102778300D01*
X128445015Y-102778300D01*
X128291635Y-102816103D01*
X128151761Y-102889516D01*
X128033515Y-102994271D01*
X127943780Y-103124276D01*
X127887763Y-103271981D01*
X127868721Y-103428800D01*
X121029110Y-103428800D01*
X121042815Y-103280900D01*
X121023997Y-103077817D01*
X120968182Y-102881650D01*
X120936103Y-102817226D01*
X120877275Y-102699081D01*
X120754363Y-102536319D01*
X120603641Y-102398918D01*
X120430238Y-102291552D01*
X120240057Y-102217876D01*
X120173229Y-102205384D01*
X120039576Y-102180400D01*
X119835624Y-102180400D01*
X119824134Y-102180400D01*
X119824134Y-102176074D01*
X119776932Y-102171197D01*
X119722349Y-102127581D01*
X119700010Y-102061378D01*
X119700815Y-102041505D01*
X119705078Y-102006400D01*
X119703478Y-101993226D01*
X119701915Y-101980346D01*
X119713376Y-101911422D01*
X119760280Y-101859637D01*
X119825011Y-101841400D01*
X120039574Y-101841400D01*
X120039576Y-101841400D01*
X120240056Y-101803924D01*
X120430237Y-101730248D01*
X120603641Y-101622881D01*
X120659596Y-101571871D01*
X120754363Y-101485480D01*
X120769149Y-101465900D01*
X120877273Y-101322721D01*
X120877273Y-101322719D01*
X120877275Y-101322718D01*
X120940095Y-101196557D01*
X120968182Y-101140150D01*
X121023997Y-100943983D01*
X121042815Y-100740900D01*
X121023997Y-100537817D01*
X120968182Y-100341650D01*
X120936103Y-100277226D01*
X120877275Y-100159081D01*
X120754363Y-99996319D01*
X120603641Y-99858918D01*
X120430238Y-99751552D01*
X120240057Y-99677876D01*
X120173229Y-99665384D01*
X120039576Y-99640400D01*
X119835624Y-99640400D01*
X119824134Y-99640400D01*
X119824134Y-99636074D01*
X119776932Y-99631197D01*
X119722349Y-99587581D01*
X119700010Y-99521378D01*
X119700815Y-99501505D01*
X119705078Y-99466400D01*
X119703478Y-99453226D01*
X119701915Y-99440346D01*
X119713376Y-99371422D01*
X119760280Y-99319637D01*
X119825011Y-99301400D01*
X120039574Y-99301400D01*
X120039576Y-99301400D01*
X120240056Y-99263924D01*
X120430237Y-99190248D01*
X120603641Y-99082881D01*
X120659596Y-99031871D01*
X120754363Y-98945480D01*
X120769185Y-98925853D01*
X120877273Y-98782721D01*
X120877273Y-98782719D01*
X120877275Y-98782718D01*
X120940095Y-98656557D01*
X120968182Y-98600150D01*
X121023997Y-98403983D01*
X121042815Y-98200900D01*
X121023997Y-97997817D01*
X121014915Y-97965899D01*
X120981382Y-97848042D01*
X120968182Y-97801650D01*
X120936103Y-97737226D01*
X120877275Y-97619081D01*
X120754363Y-97456319D01*
X120603641Y-97318918D01*
X120430238Y-97211552D01*
X120240057Y-97137876D01*
X120173229Y-97125384D01*
X120039576Y-97100400D01*
X119835624Y-97100400D01*
X119824134Y-97100400D01*
X119824134Y-97096074D01*
X119776932Y-97091197D01*
X119722349Y-97047581D01*
X119700010Y-96981378D01*
X119700815Y-96961505D01*
X119705078Y-96926400D01*
X119703478Y-96913226D01*
X119701915Y-96900346D01*
X119713376Y-96831422D01*
X119760280Y-96779637D01*
X119825011Y-96761400D01*
X120039574Y-96761400D01*
X120039576Y-96761400D01*
X120240056Y-96723924D01*
X120430237Y-96650248D01*
X120603641Y-96542881D01*
X120659596Y-96491871D01*
X120754363Y-96405480D01*
X120768231Y-96387116D01*
X120877273Y-96242721D01*
X120877273Y-96242719D01*
X120877275Y-96242718D01*
X120946497Y-96103700D01*
X120954215Y-96088200D01*
X127640121Y-96088200D01*
X127659163Y-96245018D01*
X127715180Y-96392723D01*
X127804915Y-96522728D01*
X127804916Y-96522729D01*
X127804917Y-96522730D01*
X127923160Y-96627483D01*
X128063035Y-96700896D01*
X128216415Y-96738700D01*
X128374385Y-96738700D01*
X128527765Y-96700896D01*
X128667640Y-96627483D01*
X128785883Y-96522730D01*
X128875620Y-96392723D01*
X128931637Y-96245018D01*
X128950678Y-96088200D01*
X128931637Y-95931382D01*
X128875620Y-95783677D01*
X128830751Y-95718673D01*
X128785884Y-95653671D01*
X128761537Y-95632102D01*
X128667640Y-95548917D01*
X128654394Y-95541964D01*
X128527764Y-95475503D01*
X128374385Y-95437700D01*
X128216415Y-95437700D01*
X128063035Y-95475503D01*
X127923161Y-95548916D01*
X127804915Y-95653671D01*
X127715180Y-95783676D01*
X127659163Y-95931381D01*
X127640121Y-96088200D01*
X120954215Y-96088200D01*
X120968182Y-96060150D01*
X121023997Y-95863983D01*
X121042815Y-95660900D01*
X121023997Y-95457817D01*
X121022683Y-95453200D01*
X121001800Y-95379804D01*
X120968182Y-95261650D01*
X120942051Y-95209171D01*
X120877275Y-95079081D01*
X120754363Y-94916319D01*
X120603641Y-94778918D01*
X120430238Y-94671552D01*
X120240057Y-94597876D01*
X120173229Y-94585384D01*
X120039576Y-94560400D01*
X119835624Y-94560400D01*
X119824134Y-94560400D01*
X119824134Y-94556074D01*
X119776932Y-94551197D01*
X119722349Y-94507581D01*
X119700010Y-94441378D01*
X119700815Y-94421505D01*
X119705078Y-94386400D01*
X119703478Y-94373226D01*
X119701915Y-94360346D01*
X119713376Y-94291422D01*
X119760280Y-94239637D01*
X119825011Y-94221400D01*
X120039574Y-94221400D01*
X120039576Y-94221400D01*
X120240056Y-94183924D01*
X120430237Y-94110248D01*
X120603641Y-94002881D01*
X120659596Y-93951871D01*
X120754363Y-93865480D01*
X120768231Y-93847116D01*
X120877273Y-93702721D01*
X120877273Y-93702719D01*
X120877275Y-93702718D01*
X120940095Y-93576557D01*
X120968182Y-93520150D01*
X121023997Y-93323983D01*
X121042815Y-93120900D01*
X121023997Y-92917817D01*
X120968182Y-92721650D01*
X120936103Y-92657226D01*
X120877275Y-92539081D01*
X120754363Y-92376319D01*
X120603641Y-92238918D01*
X120430238Y-92131552D01*
X120240057Y-92057876D01*
X120173229Y-92045384D01*
X120039576Y-92020400D01*
X119835624Y-92020400D01*
X119824134Y-92020400D01*
X119824134Y-92016074D01*
X119776932Y-92011197D01*
X119722349Y-91967581D01*
X119700010Y-91901378D01*
X119700815Y-91881505D01*
X119705078Y-91846400D01*
X119703478Y-91833226D01*
X119701915Y-91820346D01*
X119713376Y-91751422D01*
X119760280Y-91699637D01*
X119825011Y-91681400D01*
X120039574Y-91681400D01*
X120039576Y-91681400D01*
X120240056Y-91643924D01*
X120430237Y-91570248D01*
X120603641Y-91462881D01*
X120659596Y-91411871D01*
X120754363Y-91325480D01*
X120768231Y-91307116D01*
X120877273Y-91162721D01*
X120877273Y-91162719D01*
X120877275Y-91162718D01*
X120936117Y-91044545D01*
X120968182Y-90980150D01*
X121023997Y-90783983D01*
X121042815Y-90580900D01*
X121023997Y-90377817D01*
X120968182Y-90181650D01*
X120934886Y-90114782D01*
X120877275Y-89999081D01*
X120754363Y-89836319D01*
X120603641Y-89698918D01*
X120502993Y-89636600D01*
X130535721Y-89636600D01*
X130554763Y-89793418D01*
X130610780Y-89941123D01*
X130700515Y-90071128D01*
X130700516Y-90071129D01*
X130700517Y-90071130D01*
X130818760Y-90175883D01*
X130958635Y-90249296D01*
X131112015Y-90287100D01*
X131269985Y-90287100D01*
X131423365Y-90249296D01*
X131563240Y-90175883D01*
X131681483Y-90071130D01*
X131771220Y-89941123D01*
X131827237Y-89793418D01*
X131846278Y-89636600D01*
X131827237Y-89479782D01*
X131771220Y-89332077D01*
X131681483Y-89202070D01*
X131563240Y-89097317D01*
X131549994Y-89090364D01*
X131423364Y-89023903D01*
X131269985Y-88986100D01*
X131112015Y-88986100D01*
X130958635Y-89023903D01*
X130818761Y-89097316D01*
X130700515Y-89202071D01*
X130610780Y-89332076D01*
X130554763Y-89479781D01*
X130535721Y-89636600D01*
X120502993Y-89636600D01*
X120430238Y-89591552D01*
X120240057Y-89517876D01*
X120173229Y-89505384D01*
X120039576Y-89480400D01*
X119835624Y-89480400D01*
X119824134Y-89480400D01*
X119824134Y-89476074D01*
X119776932Y-89471197D01*
X119722349Y-89427581D01*
X119700010Y-89361378D01*
X119700815Y-89341505D01*
X119705078Y-89306400D01*
X119703478Y-89293226D01*
X119701915Y-89280346D01*
X119713376Y-89211422D01*
X119760280Y-89159637D01*
X119825011Y-89141400D01*
X120039574Y-89141400D01*
X120039576Y-89141400D01*
X120240056Y-89103924D01*
X120430237Y-89030248D01*
X120603641Y-88922881D01*
X120653207Y-88877696D01*
X120754363Y-88785480D01*
X120768230Y-88767117D01*
X120877273Y-88622721D01*
X120877273Y-88622719D01*
X120877275Y-88622718D01*
X120965504Y-88445528D01*
X120968182Y-88440150D01*
X121023997Y-88243983D01*
X121042815Y-88040900D01*
X121023997Y-87837817D01*
X121023575Y-87836335D01*
X120984600Y-87699353D01*
X120968182Y-87641650D01*
X120950407Y-87605953D01*
X120877275Y-87459081D01*
X120754363Y-87296319D01*
X120603641Y-87158918D01*
X120430238Y-87051552D01*
X120240057Y-86977876D01*
X120173229Y-86965384D01*
X120039576Y-86940400D01*
X119835624Y-86940400D01*
X119824134Y-86940400D01*
X119824134Y-86936074D01*
X119776932Y-86931197D01*
X119722349Y-86887581D01*
X119700010Y-86821378D01*
X119700815Y-86801505D01*
X119705078Y-86766400D01*
X119703478Y-86753226D01*
X119701915Y-86740346D01*
X119713376Y-86671422D01*
X119760280Y-86619637D01*
X119825011Y-86601400D01*
X120039574Y-86601400D01*
X120039576Y-86601400D01*
X120240056Y-86563924D01*
X120307493Y-86537799D01*
X150042921Y-86537799D01*
X150061963Y-86694618D01*
X150117980Y-86842323D01*
X150207715Y-86972328D01*
X150207716Y-86972329D01*
X150207717Y-86972330D01*
X150325960Y-87077083D01*
X150465835Y-87150496D01*
X150619215Y-87188300D01*
X150777185Y-87188300D01*
X150930565Y-87150496D01*
X151070440Y-87077083D01*
X151188683Y-86972330D01*
X151278420Y-86842323D01*
X151334437Y-86694618D01*
X151353478Y-86537800D01*
X151347310Y-86487000D01*
X151719321Y-86487000D01*
X151738363Y-86643818D01*
X151794380Y-86791523D01*
X151884115Y-86921528D01*
X151884116Y-86921529D01*
X151884117Y-86921530D01*
X152002360Y-87026283D01*
X152142235Y-87099696D01*
X152295615Y-87137500D01*
X152453585Y-87137500D01*
X152606965Y-87099696D01*
X152746840Y-87026283D01*
X152865083Y-86921530D01*
X152954820Y-86791523D01*
X153010837Y-86643818D01*
X153029878Y-86487000D01*
X153010837Y-86330182D01*
X152954820Y-86182477D01*
X152865083Y-86052470D01*
X152746840Y-85947717D01*
X152656208Y-85900149D01*
X152606964Y-85874303D01*
X152453585Y-85836500D01*
X152295615Y-85836500D01*
X152142235Y-85874303D01*
X152002361Y-85947716D01*
X151884115Y-86052471D01*
X151794380Y-86182476D01*
X151738363Y-86330181D01*
X151719321Y-86487000D01*
X151347310Y-86487000D01*
X151334437Y-86380982D01*
X151278420Y-86233277D01*
X151188683Y-86103270D01*
X151070440Y-85998517D01*
X151011741Y-85967709D01*
X150930564Y-85925103D01*
X150777185Y-85887300D01*
X150619215Y-85887300D01*
X150465835Y-85925103D01*
X150325961Y-85998516D01*
X150207715Y-86103271D01*
X150117980Y-86233276D01*
X150061963Y-86380981D01*
X150042921Y-86537799D01*
X120307493Y-86537799D01*
X120430237Y-86490248D01*
X120603641Y-86382881D01*
X120653207Y-86337696D01*
X120754363Y-86245480D01*
X120754364Y-86245479D01*
X120877273Y-86082721D01*
X120877273Y-86082719D01*
X120877275Y-86082718D01*
X120934542Y-85967709D01*
X120968182Y-85900150D01*
X121023997Y-85703983D01*
X121042815Y-85500900D01*
X121023997Y-85297817D01*
X120968182Y-85101650D01*
X120930550Y-85026074D01*
X120877275Y-84919081D01*
X120754363Y-84756319D01*
X120603641Y-84618918D01*
X120430238Y-84511552D01*
X120240057Y-84437876D01*
X120123216Y-84416035D01*
X120039576Y-84400400D01*
X119835624Y-84400400D01*
X119824134Y-84400400D01*
X119824134Y-84396074D01*
X119776932Y-84391197D01*
X119722349Y-84347581D01*
X119700010Y-84281378D01*
X119700815Y-84261505D01*
X119705078Y-84226400D01*
X119701994Y-84200997D01*
X119701915Y-84200346D01*
X119713376Y-84131422D01*
X119760280Y-84079637D01*
X119825011Y-84061400D01*
X120039574Y-84061400D01*
X120039576Y-84061400D01*
X120240056Y-84023924D01*
X120430237Y-83950248D01*
X120603641Y-83842881D01*
X120653207Y-83797696D01*
X120754363Y-83705480D01*
X120754364Y-83705479D01*
X120877273Y-83542721D01*
X120877273Y-83542719D01*
X120877275Y-83542718D01*
X120954400Y-83387828D01*
X120968182Y-83360150D01*
X121023997Y-83163983D01*
X121042815Y-82960900D01*
X121023997Y-82757817D01*
X120968182Y-82561650D01*
X120954663Y-82534500D01*
X120877275Y-82379081D01*
X120754363Y-82216319D01*
X120603641Y-82078918D01*
X120430238Y-81971552D01*
X120240057Y-81897876D01*
X120173229Y-81885384D01*
X120039576Y-81860400D01*
X119835624Y-81860400D01*
X119755140Y-81875445D01*
X119635142Y-81897876D01*
X119444961Y-81971552D01*
X119271558Y-82078918D01*
X119120836Y-82216319D01*
X118997924Y-82379081D01*
X118907018Y-82561648D01*
X118851202Y-82757816D01*
X118832385Y-82960899D01*
X118851202Y-83163983D01*
X118907016Y-83360147D01*
X118940658Y-83427709D01*
X118952918Y-83496495D01*
X118926044Y-83560989D01*
X118868568Y-83600717D01*
X118859332Y-83603377D01*
X118817433Y-83613704D01*
X118718923Y-83665407D01*
X118650415Y-83679133D01*
X118585362Y-83653641D01*
X118544417Y-83597025D01*
X118537297Y-83555611D01*
X118537297Y-80420900D01*
X118832385Y-80420900D01*
X118851202Y-80623983D01*
X118907018Y-80820151D01*
X118997924Y-81002718D01*
X119120836Y-81165480D01*
X119271558Y-81302881D01*
X119387373Y-81374590D01*
X119444963Y-81410248D01*
X119635144Y-81483924D01*
X119835624Y-81521400D01*
X119835626Y-81521400D01*
X120039574Y-81521400D01*
X120039576Y-81521400D01*
X120240056Y-81483924D01*
X120430237Y-81410248D01*
X120603641Y-81302881D01*
X120656300Y-81254876D01*
X120754363Y-81165480D01*
X120754364Y-81165479D01*
X120877273Y-81002721D01*
X120877273Y-81002719D01*
X120877275Y-81002718D01*
X120952856Y-80850928D01*
X120968182Y-80820150D01*
X121023997Y-80623983D01*
X121042815Y-80420900D01*
X121023997Y-80217817D01*
X121023680Y-80216704D01*
X120968181Y-80021648D01*
X120877275Y-79839081D01*
X120754363Y-79676319D01*
X120603641Y-79538918D01*
X120430238Y-79431552D01*
X120240057Y-79357876D01*
X120173229Y-79345384D01*
X120039576Y-79320400D01*
X119835624Y-79320400D01*
X119735384Y-79339137D01*
X119635142Y-79357876D01*
X119444961Y-79431552D01*
X119271558Y-79538918D01*
X119120836Y-79676319D01*
X118997924Y-79839081D01*
X118907018Y-80021648D01*
X118851202Y-80217816D01*
X118832385Y-80420900D01*
X118537297Y-80420900D01*
X118537297Y-77630899D01*
X118865071Y-77630899D01*
X118865072Y-77630900D01*
X119503914Y-77630900D01*
X119478107Y-77671056D01*
X119437600Y-77809011D01*
X119437600Y-77952789D01*
X119478107Y-78090744D01*
X119503914Y-78130900D01*
X118865072Y-78130900D01*
X118907486Y-78279969D01*
X118998351Y-78462453D01*
X119121207Y-78625141D01*
X119271859Y-78762478D01*
X119445188Y-78869799D01*
X119635279Y-78943439D01*
X119687600Y-78953220D01*
X119687600Y-78316401D01*
X119795285Y-78365580D01*
X119901837Y-78380900D01*
X119973363Y-78380900D01*
X120079915Y-78365580D01*
X120187600Y-78316401D01*
X120187600Y-78953220D01*
X120239920Y-78943439D01*
X120430011Y-78869799D01*
X120603340Y-78762478D01*
X120753992Y-78625141D01*
X120876848Y-78462453D01*
X120967713Y-78279969D01*
X121010128Y-78130900D01*
X120371286Y-78130900D01*
X120397093Y-78090744D01*
X120407824Y-78054199D01*
X125912921Y-78054199D01*
X125931963Y-78211018D01*
X125987980Y-78358723D01*
X126077715Y-78488728D01*
X126077716Y-78488729D01*
X126077717Y-78488730D01*
X126195960Y-78593483D01*
X126335835Y-78666896D01*
X126489215Y-78704700D01*
X126647185Y-78704700D01*
X126800565Y-78666896D01*
X126940440Y-78593483D01*
X127058683Y-78488730D01*
X127148420Y-78358723D01*
X127204437Y-78211018D01*
X127223478Y-78054200D01*
X127204437Y-77897382D01*
X127148420Y-77749677D01*
X127091466Y-77667164D01*
X127058684Y-77619671D01*
X127014078Y-77580154D01*
X126940440Y-77514917D01*
X126877052Y-77481648D01*
X126800564Y-77441503D01*
X126647185Y-77403700D01*
X126489215Y-77403700D01*
X126335835Y-77441503D01*
X126195961Y-77514916D01*
X126077715Y-77619671D01*
X125987980Y-77749676D01*
X125931963Y-77897381D01*
X125912921Y-78054199D01*
X120407824Y-78054199D01*
X120437600Y-77952789D01*
X120437600Y-77809011D01*
X120397093Y-77671056D01*
X120371286Y-77630900D01*
X121010128Y-77630900D01*
X121010128Y-77630899D01*
X120967713Y-77481830D01*
X120876848Y-77299346D01*
X120753992Y-77136658D01*
X120603340Y-76999321D01*
X120430011Y-76892000D01*
X120239917Y-76818358D01*
X120187601Y-76808578D01*
X120187600Y-76808579D01*
X120187600Y-77445398D01*
X120079915Y-77396220D01*
X119973363Y-77380900D01*
X119901837Y-77380900D01*
X119795285Y-77396220D01*
X119687600Y-77445398D01*
X119687600Y-76808579D01*
X119687598Y-76808578D01*
X119635282Y-76818358D01*
X119445188Y-76892000D01*
X119271859Y-76999321D01*
X119121207Y-77136658D01*
X118998351Y-77299346D01*
X118907486Y-77481830D01*
X118865071Y-77630899D01*
X118537297Y-77630899D01*
X118537297Y-76956116D01*
X118537297Y-76215574D01*
X118837100Y-76215574D01*
X118851633Y-76288638D01*
X118851633Y-76288639D01*
X118851634Y-76288640D01*
X118906999Y-76371501D01*
X118989860Y-76426866D01*
X119026392Y-76434132D01*
X119062925Y-76441400D01*
X119062926Y-76441400D01*
X120812275Y-76441400D01*
X120836629Y-76436555D01*
X120885340Y-76426866D01*
X120968201Y-76371501D01*
X121023566Y-76288640D01*
X121038100Y-76215574D01*
X121038100Y-74466226D01*
X121023566Y-74393160D01*
X120968201Y-74310299D01*
X120885340Y-74254934D01*
X120885339Y-74254933D01*
X120885338Y-74254933D01*
X120812275Y-74240400D01*
X120812274Y-74240400D01*
X119062926Y-74240400D01*
X119062925Y-74240400D01*
X118989861Y-74254933D01*
X118906999Y-74310299D01*
X118851633Y-74393161D01*
X118837100Y-74466225D01*
X118837100Y-76215574D01*
X118537297Y-76215574D01*
X118537297Y-70328664D01*
X119883387Y-70328664D01*
X119913013Y-70597916D01*
X119913014Y-70597918D01*
X119981528Y-70859988D01*
X120087470Y-71109290D01*
X120087471Y-71109292D01*
X120228582Y-71340511D01*
X120401853Y-71548718D01*
X120401855Y-71548720D01*
X120603598Y-71729482D01*
X120829510Y-71878944D01*
X120935811Y-71928776D01*
X121074777Y-71993921D01*
X121334162Y-72071958D01*
X121334169Y-72071960D01*
X121602161Y-72111400D01*
X121602164Y-72111400D01*
X121802969Y-72111400D01*
X121805231Y-72111400D01*
X122007756Y-72096577D01*
X122272153Y-72037680D01*
X122525158Y-71940914D01*
X122761377Y-71808341D01*
X122975777Y-71642788D01*
X123163786Y-71447781D01*
X123321399Y-71227479D01*
X123363599Y-71145400D01*
X128325921Y-71145400D01*
X128344963Y-71302218D01*
X128400980Y-71449923D01*
X128490715Y-71579928D01*
X128490716Y-71579929D01*
X128490717Y-71579930D01*
X128608960Y-71684683D01*
X128748835Y-71758096D01*
X128902215Y-71795900D01*
X129060185Y-71795900D01*
X129213565Y-71758096D01*
X129353440Y-71684683D01*
X129471683Y-71579930D01*
X129561420Y-71449923D01*
X129617437Y-71302218D01*
X129636478Y-71145400D01*
X129617437Y-70988582D01*
X129561420Y-70840877D01*
X129471683Y-70710870D01*
X129353440Y-70606117D01*
X129337818Y-70597918D01*
X129267857Y-70561199D01*
X130459521Y-70561199D01*
X130478563Y-70718018D01*
X130534580Y-70865723D01*
X130624315Y-70995728D01*
X130624316Y-70995729D01*
X130624317Y-70995730D01*
X130742560Y-71100483D01*
X130882435Y-71173896D01*
X131035815Y-71211700D01*
X131193785Y-71211700D01*
X131347165Y-71173896D01*
X131487040Y-71100483D01*
X131605283Y-70995730D01*
X131695020Y-70865723D01*
X131751037Y-70718018D01*
X131770078Y-70561200D01*
X131751037Y-70404382D01*
X131695020Y-70256677D01*
X131606003Y-70127713D01*
X131605284Y-70126671D01*
X131527731Y-70057966D01*
X131487040Y-70021917D01*
X131420322Y-69986900D01*
X131347164Y-69948503D01*
X131193785Y-69910700D01*
X131035815Y-69910700D01*
X130882435Y-69948503D01*
X130742561Y-70021916D01*
X130624315Y-70126671D01*
X130534580Y-70256676D01*
X130478563Y-70404381D01*
X130459521Y-70561199D01*
X129267857Y-70561199D01*
X129213564Y-70532703D01*
X129060185Y-70494900D01*
X128902215Y-70494900D01*
X128748835Y-70532703D01*
X128608961Y-70606116D01*
X128490715Y-70710871D01*
X128400980Y-70840876D01*
X128344963Y-70988581D01*
X128325921Y-71145400D01*
X123363599Y-71145400D01*
X123445256Y-70986575D01*
X123532718Y-70730205D01*
X123581919Y-70463833D01*
X123591812Y-70193135D01*
X123562186Y-69923882D01*
X123493672Y-69661812D01*
X123387730Y-69412510D01*
X123284654Y-69243614D01*
X123246617Y-69181288D01*
X123073346Y-68973081D01*
X123009446Y-68915826D01*
X122871602Y-68792318D01*
X122645690Y-68642856D01*
X122613366Y-68627703D01*
X122400422Y-68527878D01*
X122141037Y-68449841D01*
X122141031Y-68449840D01*
X121873039Y-68410400D01*
X121669969Y-68410400D01*
X121667720Y-68410564D01*
X121667709Y-68410565D01*
X121467443Y-68425222D01*
X121203049Y-68484119D01*
X120950041Y-68580886D01*
X120713823Y-68713459D01*
X120499425Y-68879009D01*
X120311413Y-69074020D01*
X120153801Y-69294320D01*
X120029942Y-69535229D01*
X119942481Y-69791595D01*
X119893280Y-70057966D01*
X119883387Y-70328664D01*
X118537297Y-70328664D01*
X118537297Y-70264105D01*
X118537464Y-70257694D01*
X118544293Y-70127403D01*
X118554211Y-69950811D01*
X118554794Y-69943906D01*
X118561240Y-69886692D01*
X118561981Y-69881216D01*
X118581762Y-69756322D01*
X118608942Y-69596352D01*
X118610290Y-69589568D01*
X118618218Y-69554835D01*
X118619301Y-69550472D01*
X118642659Y-69463298D01*
X118656256Y-69412559D01*
X118690591Y-69293377D01*
X118703027Y-69250209D01*
X118705118Y-69243648D01*
X118707857Y-69235820D01*
X118709093Y-69232452D01*
X118766363Y-69083258D01*
X118767510Y-69080384D01*
X118832027Y-68924628D01*
X118836057Y-68915887D01*
X118911554Y-68767714D01*
X118913397Y-68764243D01*
X118994440Y-68617607D01*
X118998914Y-68610151D01*
X119089765Y-68470253D01*
X119092572Y-68466119D01*
X119189149Y-68330006D01*
X119193891Y-68323754D01*
X119299002Y-68193954D01*
X119302865Y-68189412D01*
X119413919Y-68065142D01*
X119418648Y-68060141D01*
X119536841Y-67941948D01*
X119541842Y-67937219D01*
X119666112Y-67826165D01*
X119670654Y-67822302D01*
X119800454Y-67717191D01*
X119806711Y-67712446D01*
X119942819Y-67615872D01*
X119946953Y-67613065D01*
X120086851Y-67522214D01*
X120094307Y-67517740D01*
X120240943Y-67436697D01*
X120244414Y-67434854D01*
X120392587Y-67359357D01*
X120401356Y-67355314D01*
X120557055Y-67290821D01*
X120559957Y-67289664D01*
X120709152Y-67232393D01*
X120712521Y-67231157D01*
X120720345Y-67228419D01*
X120726922Y-67226323D01*
X120762290Y-67216134D01*
X120889261Y-67179555D01*
X120901480Y-67176280D01*
X121027211Y-67142591D01*
X121031535Y-67141518D01*
X121066248Y-67133595D01*
X121073055Y-67132242D01*
X121233036Y-67105060D01*
X121357948Y-67085276D01*
X121363343Y-67084545D01*
X121420615Y-67078092D01*
X121427535Y-67077509D01*
X121448155Y-67076350D01*
X121604139Y-67067591D01*
X121734356Y-67060766D01*
X121740844Y-67060597D01*
X133124400Y-67060597D01*
X133191439Y-67080282D01*
G37*
%TD.AperFunction*%
%TD*%
%TA.AperFunction,Conductor*%
%TO.N,+5V*%
G36*
X139236639Y-88081485D02*
G01*
X139282394Y-88134289D01*
X139293600Y-88185800D01*
X139293600Y-90782600D01*
X139273915Y-90849639D01*
X139221111Y-90895394D01*
X139169600Y-90906600D01*
X137512600Y-90906600D01*
X137445561Y-90886915D01*
X137399806Y-90834111D01*
X137388600Y-90782600D01*
X137388600Y-88185800D01*
X137408285Y-88118761D01*
X137461089Y-88073006D01*
X137512600Y-88061800D01*
X139169600Y-88061800D01*
X139236639Y-88081485D01*
G37*
%TD.AperFunction*%
%TD*%
M02*
