%TF.GenerationSoftware,KiCad,Pcbnew,7.0.2-6a45011f42~172~ubuntu20.04.1*%
%TF.CreationDate,2023-04-23T15:23:27+07:00*%
%TF.ProjectId,EZ-USB-FX2LP-dev-board,455a2d55-5342-42d4-9658-324c502d6465,rev?*%
%TF.SameCoordinates,Original*%
%TF.FileFunction,Soldermask,Bot*%
%TF.FilePolarity,Negative*%
%FSLAX46Y46*%
G04 Gerber Fmt 4.6, Leading zero omitted, Abs format (unit mm)*
G04 Created by KiCad (PCBNEW 7.0.2-6a45011f42~172~ubuntu20.04.1) date 2023-04-23 15:23:27*
%MOMM*%
%LPD*%
G01*
G04 APERTURE LIST*
%ADD10R,1.700000X1.700000*%
%ADD11O,1.700000X1.700000*%
%ADD12C,3.200000*%
%ADD13C,1.700000*%
%ADD14C,3.500000*%
G04 APERTURE END LIST*
D10*
%TO.C,J2*%
X155059500Y-134426900D03*
D11*
X157599500Y-134426900D03*
%TD*%
D10*
%TO.C,J4*%
X165657600Y-75340900D03*
D11*
X165657600Y-77880900D03*
X165657600Y-80420900D03*
X165657600Y-82960900D03*
X165657600Y-85500900D03*
X165657600Y-88040900D03*
X165657600Y-90580900D03*
X165657600Y-93120900D03*
X165657600Y-95660900D03*
X165657600Y-98200900D03*
X165657600Y-100740900D03*
X165657600Y-103280900D03*
X165657600Y-105820900D03*
X165657600Y-108360900D03*
X165657600Y-110900900D03*
X165657600Y-113440900D03*
X165657600Y-115980900D03*
X165657600Y-118520900D03*
X165657600Y-121060900D03*
X165657600Y-123600900D03*
X165657600Y-126140900D03*
X165657600Y-128680900D03*
%TD*%
D10*
%TO.C,J6*%
X119937600Y-75340900D03*
D11*
X119937600Y-77880900D03*
X119937600Y-80420900D03*
X119937600Y-82960900D03*
X119937600Y-85500900D03*
X119937600Y-88040900D03*
X119937600Y-90580900D03*
X119937600Y-93120900D03*
X119937600Y-95660900D03*
X119937600Y-98200900D03*
X119937600Y-100740900D03*
X119937600Y-103280900D03*
X119937600Y-105820900D03*
X119937600Y-108360900D03*
X119937600Y-110900900D03*
X119937600Y-113440900D03*
X119937600Y-115980900D03*
X119937600Y-118520900D03*
X119937600Y-121060900D03*
X119937600Y-123600900D03*
X119937600Y-126140900D03*
X119937600Y-128680900D03*
%TD*%
D12*
%TO.C,H4*%
X121737600Y-133760900D03*
%TD*%
%TO.C,H1*%
X163857600Y-70260900D03*
%TD*%
%TO.C,H3*%
X163857600Y-133760900D03*
%TD*%
%TO.C,H2*%
X121737600Y-70260900D03*
%TD*%
D10*
%TO.C,J1*%
X141518000Y-80663800D03*
D13*
X144018000Y-80663800D03*
X144018000Y-78663800D03*
X141518000Y-78663800D03*
D14*
X136748000Y-75953800D03*
X148788000Y-75953800D03*
%TD*%
D10*
%TO.C,J3*%
X127899500Y-134426900D03*
D11*
X130439500Y-134426900D03*
%TD*%
M02*
