%TF.GenerationSoftware,KiCad,Pcbnew,7.0.2-6a45011f42~172~ubuntu20.04.1*%
%TF.CreationDate,2023-04-23T15:23:27+07:00*%
%TF.ProjectId,EZ-USB-FX2LP-dev-board,455a2d55-5342-42d4-9658-324c502d6465,rev?*%
%TF.SameCoordinates,Original*%
%TF.FileFunction,Soldermask,Top*%
%TF.FilePolarity,Negative*%
%FSLAX46Y46*%
G04 Gerber Fmt 4.6, Leading zero omitted, Abs format (unit mm)*
G04 Created by KiCad (PCBNEW 7.0.2-6a45011f42~172~ubuntu20.04.1) date 2023-04-23 15:23:27*
%MOMM*%
%LPD*%
G01*
G04 APERTURE LIST*
G04 Aperture macros list*
%AMRoundRect*
0 Rectangle with rounded corners*
0 $1 Rounding radius*
0 $2 $3 $4 $5 $6 $7 $8 $9 X,Y pos of 4 corners*
0 Add a 4 corners polygon primitive as box body*
4,1,4,$2,$3,$4,$5,$6,$7,$8,$9,$2,$3,0*
0 Add four circle primitives for the rounded corners*
1,1,$1+$1,$2,$3*
1,1,$1+$1,$4,$5*
1,1,$1+$1,$6,$7*
1,1,$1+$1,$8,$9*
0 Add four rect primitives between the rounded corners*
20,1,$1+$1,$2,$3,$4,$5,0*
20,1,$1+$1,$4,$5,$6,$7,0*
20,1,$1+$1,$6,$7,$8,$9,0*
20,1,$1+$1,$8,$9,$2,$3,0*%
%AMFreePoly0*
4,1,17,0.300000,0.502500,0.435000,0.367500,0.500000,0.367500,0.500000,-0.367500,0.435000,-0.367500,0.300000,-0.502500,0.300000,-0.587500,-0.300000,-0.587500,-0.300000,-0.502500,-0.435000,-0.367500,-0.750000,-0.367500,-0.750000,0.367500,-0.435000,0.367500,-0.300000,0.502500,-0.300000,0.837549,0.300000,0.837549,0.300000,0.502500,0.300000,0.502500,$1*%
%AMFreePoly1*
4,1,17,0.300000,0.502500,0.435000,0.367500,0.500000,0.367500,0.500000,-0.367500,0.435000,-0.367500,0.300000,-0.502500,0.300000,-0.587500,-0.300000,-0.587500,-0.300000,-0.502500,-0.435000,-0.367500,-0.750000,-0.367500,-0.750000,0.367500,-0.435000,0.367500,-0.300000,0.502500,-0.300000,0.587500,0.300000,0.587500,0.300000,0.502500,0.300000,0.502500,$1*%
%AMFreePoly2*
4,1,17,0.300000,0.502500,0.435000,0.367500,0.500000,0.367500,0.500000,-0.367500,0.435000,-0.367500,0.300000,-0.502500,0.300000,-0.837549,-0.300000,-0.837549,-0.300000,-0.502500,-0.435000,-0.367500,-0.750000,-0.367500,-0.750000,0.367500,-0.435000,0.367500,-0.300000,0.502500,-0.300000,0.587500,0.300000,0.587500,0.300000,0.502500,0.300000,0.502500,$1*%
%AMFreePoly3*
4,1,17,0.300000,0.502500,0.435000,0.367500,0.500000,0.367500,0.500000,-0.367500,0.435000,-0.367500,0.300000,-0.502500,0.300000,-0.587500,-0.300000,-0.587500,-0.300000,-0.502500,-0.435000,-0.367500,-0.500000,-0.367500,-0.500000,0.367500,-0.435000,0.367500,-0.300000,0.502500,-0.300000,0.837549,0.300000,0.837549,0.300000,0.502500,0.300000,0.502500,$1*%
%AMFreePoly4*
4,1,17,0.300000,0.502500,0.435000,0.367500,0.500000,0.367500,0.500000,-0.367500,0.435000,-0.367500,0.300000,-0.502500,0.300000,-0.587500,-0.300000,-0.587500,-0.300000,-0.502500,-0.435000,-0.367500,-0.500000,-0.367500,-0.500000,0.367500,-0.435000,0.367500,-0.300000,0.502500,-0.300000,0.587500,0.300000,0.587500,0.300000,0.502500,0.300000,0.502500,$1*%
%AMFreePoly5*
4,1,17,0.300000,0.502500,0.435000,0.367500,0.500000,0.367500,0.500000,-0.367500,0.435000,-0.367500,0.300000,-0.502500,0.300000,-0.837549,-0.300000,-0.837549,-0.300000,-0.502500,-0.435000,-0.367500,-0.500000,-0.367500,-0.500000,0.367500,-0.435000,0.367500,-0.300000,0.502500,-0.300000,0.587500,0.300000,0.587500,0.300000,0.502500,0.300000,0.502500,$1*%
%AMFreePoly6*
4,1,17,0.300000,0.502500,0.435000,0.367500,0.750000,0.367500,0.750000,-0.367500,0.435000,-0.367500,0.300000,-0.502500,0.300000,-0.587500,-0.300000,-0.587500,-0.300000,-0.502500,-0.435000,-0.367500,-0.500000,-0.367500,-0.500000,0.367500,-0.435000,0.367500,-0.300000,0.502500,-0.300000,0.837549,0.300000,0.837549,0.300000,0.502500,0.300000,0.502500,$1*%
%AMFreePoly7*
4,1,17,0.300000,0.502500,0.435000,0.367500,0.750000,0.367500,0.750000,-0.367500,0.435000,-0.367500,0.300000,-0.502500,0.300000,-0.587500,-0.300000,-0.587500,-0.300000,-0.502500,-0.435000,-0.367500,-0.500000,-0.367500,-0.500000,0.367500,-0.435000,0.367500,-0.300000,0.502500,-0.300000,0.587500,0.300000,0.587500,0.300000,0.502500,0.300000,0.502500,$1*%
%AMFreePoly8*
4,1,17,0.300000,0.502500,0.435000,0.367500,0.750000,0.367500,0.750000,-0.367500,0.435000,-0.367500,0.300000,-0.502500,0.300000,-0.837549,-0.300000,-0.837549,-0.300000,-0.502500,-0.435000,-0.367500,-0.500000,-0.367500,-0.500000,0.367500,-0.435000,0.367500,-0.300000,0.502500,-0.300000,0.587500,0.300000,0.587500,0.300000,0.502500,0.300000,0.502500,$1*%
G04 Aperture macros list end*
%ADD10RoundRect,0.225000X0.375000X-0.225000X0.375000X0.225000X-0.375000X0.225000X-0.375000X-0.225000X0*%
%ADD11RoundRect,0.135000X-0.135000X-0.185000X0.135000X-0.185000X0.135000X0.185000X-0.135000X0.185000X0*%
%ADD12RoundRect,0.140000X-0.170000X0.140000X-0.170000X-0.140000X0.170000X-0.140000X0.170000X0.140000X0*%
%ADD13RoundRect,0.140000X-0.140000X-0.170000X0.140000X-0.170000X0.140000X0.170000X-0.140000X0.170000X0*%
%ADD14RoundRect,0.150000X-0.825000X-0.150000X0.825000X-0.150000X0.825000X0.150000X-0.825000X0.150000X0*%
%ADD15R,1.780000X3.430000*%
%ADD16RoundRect,0.250000X-0.250000X-0.475000X0.250000X-0.475000X0.250000X0.475000X-0.250000X0.475000X0*%
%ADD17R,1.700000X1.700000*%
%ADD18O,1.700000X1.700000*%
%ADD19RoundRect,0.140000X0.140000X0.170000X-0.140000X0.170000X-0.140000X-0.170000X0.140000X-0.170000X0*%
%ADD20R,2.000000X1.500000*%
%ADD21R,2.000000X3.800000*%
%ADD22RoundRect,0.243750X0.456250X-0.243750X0.456250X0.243750X-0.456250X0.243750X-0.456250X-0.243750X0*%
%ADD23RoundRect,0.250000X0.250000X0.475000X-0.250000X0.475000X-0.250000X-0.475000X0.250000X-0.475000X0*%
%ADD24RoundRect,0.140000X0.170000X-0.140000X0.170000X0.140000X-0.170000X0.140000X-0.170000X-0.140000X0*%
%ADD25RoundRect,0.243750X0.243750X0.456250X-0.243750X0.456250X-0.243750X-0.456250X0.243750X-0.456250X0*%
%ADD26RoundRect,0.135000X-0.185000X0.135000X-0.185000X-0.135000X0.185000X-0.135000X0.185000X0.135000X0*%
%ADD27RoundRect,0.135000X0.185000X-0.135000X0.185000X0.135000X-0.185000X0.135000X-0.185000X-0.135000X0*%
%ADD28C,3.200000*%
%ADD29RoundRect,0.225000X-0.225000X-0.250000X0.225000X-0.250000X0.225000X0.250000X-0.225000X0.250000X0*%
%ADD30RoundRect,0.135000X0.135000X0.185000X-0.135000X0.185000X-0.135000X-0.185000X0.135000X-0.185000X0*%
%ADD31FreePoly0,270.000000*%
%ADD32FreePoly1,270.000000*%
%ADD33FreePoly2,270.000000*%
%ADD34FreePoly3,270.000000*%
%ADD35FreePoly4,270.000000*%
%ADD36FreePoly5,270.000000*%
%ADD37FreePoly6,270.000000*%
%ADD38FreePoly7,270.000000*%
%ADD39FreePoly8,270.000000*%
%ADD40RoundRect,0.062500X-0.062500X0.375000X-0.062500X-0.375000X0.062500X-0.375000X0.062500X0.375000X0*%
%ADD41RoundRect,0.062500X-0.375000X0.062500X-0.375000X-0.062500X0.375000X-0.062500X0.375000X0.062500X0*%
%ADD42R,0.650000X1.050000*%
%ADD43C,1.000000*%
%ADD44C,1.700000*%
%ADD45C,3.500000*%
%ADD46RoundRect,0.243750X-0.243750X-0.456250X0.243750X-0.456250X0.243750X0.456250X-0.243750X0.456250X0*%
%ADD47R,1.200000X1.400000*%
G04 APERTURE END LIST*
D10*
%TO.C,D5*%
X158521400Y-72112500D03*
X158521400Y-68812500D03*
%TD*%
D11*
%TO.C,R8*%
X154607800Y-73990200D03*
X155627800Y-73990200D03*
%TD*%
D12*
%TO.C,C5*%
X140893800Y-105589400D03*
X140893800Y-106549400D03*
%TD*%
D13*
%TO.C,C4*%
X149075200Y-96520000D03*
X150035200Y-96520000D03*
%TD*%
D14*
%TO.C,U2*%
X144502100Y-125831600D03*
X144502100Y-127101600D03*
X144502100Y-128371600D03*
X144502100Y-129641600D03*
X149452100Y-129641600D03*
X149452100Y-128371600D03*
X149452100Y-127101600D03*
X149452100Y-125831600D03*
%TD*%
D15*
%TO.C,TP2*%
X146989800Y-134188200D03*
%TD*%
D16*
%TO.C,C10*%
X145332200Y-115022600D03*
X147232200Y-115022600D03*
%TD*%
D17*
%TO.C,J2*%
X155059500Y-134426900D03*
D18*
X157599500Y-134426900D03*
%TD*%
D19*
%TO.C,C8*%
X136598600Y-97053400D03*
X135638600Y-97053400D03*
%TD*%
D20*
%TO.C,U3*%
X142697600Y-119622600D03*
X142697600Y-117322600D03*
D21*
X136397600Y-117322600D03*
D20*
X142697600Y-115022600D03*
%TD*%
D22*
%TO.C,D2*%
X140677900Y-134338300D03*
X140677900Y-132463300D03*
%TD*%
D19*
%TO.C,C9*%
X136598600Y-102362000D03*
X135638600Y-102362000D03*
%TD*%
D23*
%TO.C,C14*%
X140472200Y-86715600D03*
X138572200Y-86715600D03*
%TD*%
D24*
%TO.C,C1*%
X149250400Y-90037800D03*
X149250400Y-89077800D03*
%TD*%
D25*
%TO.C,D1*%
X153870900Y-119608600D03*
X151995900Y-119608600D03*
%TD*%
D26*
%TO.C,R1*%
X144502100Y-123391200D03*
X144502100Y-124411200D03*
%TD*%
D17*
%TO.C,J4*%
X165657600Y-75340900D03*
D18*
X165657600Y-77880900D03*
X165657600Y-80420900D03*
X165657600Y-82960900D03*
X165657600Y-85500900D03*
X165657600Y-88040900D03*
X165657600Y-90580900D03*
X165657600Y-93120900D03*
X165657600Y-95660900D03*
X165657600Y-98200900D03*
X165657600Y-100740900D03*
X165657600Y-103280900D03*
X165657600Y-105820900D03*
X165657600Y-108360900D03*
X165657600Y-110900900D03*
X165657600Y-113440900D03*
X165657600Y-115980900D03*
X165657600Y-118520900D03*
X165657600Y-121060900D03*
X165657600Y-123600900D03*
X165657600Y-126140900D03*
X165657600Y-128680900D03*
%TD*%
D17*
%TO.C,J6*%
X119937600Y-75340900D03*
D18*
X119937600Y-77880900D03*
X119937600Y-80420900D03*
X119937600Y-82960900D03*
X119937600Y-85500900D03*
X119937600Y-88040900D03*
X119937600Y-90580900D03*
X119937600Y-93120900D03*
X119937600Y-95660900D03*
X119937600Y-98200900D03*
X119937600Y-100740900D03*
X119937600Y-103280900D03*
X119937600Y-105820900D03*
X119937600Y-108360900D03*
X119937600Y-110900900D03*
X119937600Y-113440900D03*
X119937600Y-115980900D03*
X119937600Y-118520900D03*
X119937600Y-121060900D03*
X119937600Y-123600900D03*
X119937600Y-126140900D03*
X119937600Y-128680900D03*
%TD*%
D13*
%TO.C,C6*%
X149049800Y-104444800D03*
X150009800Y-104444800D03*
%TD*%
D27*
%TO.C,R7*%
X134277100Y-128219200D03*
X134277100Y-127199200D03*
%TD*%
D28*
%TO.C,H4*%
X121737600Y-133760900D03*
%TD*%
D29*
%TO.C,C15*%
X149072600Y-95300800D03*
X150622600Y-95300800D03*
%TD*%
D30*
%TO.C,R3*%
X152668700Y-128371600D03*
X151648700Y-128371600D03*
%TD*%
D16*
%TO.C,C12*%
X145332200Y-119622600D03*
X147232200Y-119622600D03*
%TD*%
D27*
%TO.C,R5*%
X140677900Y-128221200D03*
X140677900Y-127201200D03*
%TD*%
D31*
%TO.C,U1*%
X144560100Y-97965900D03*
D32*
X143385100Y-97965900D03*
X142210100Y-97965900D03*
D33*
X141035100Y-97965900D03*
D34*
X144560100Y-98965900D03*
D35*
X143385100Y-98965900D03*
X142210100Y-98965900D03*
D36*
X141035100Y-98965900D03*
D34*
X144560100Y-99965900D03*
D35*
X143385100Y-99965900D03*
X142210100Y-99965900D03*
D36*
X141035100Y-99965900D03*
D37*
X144560100Y-100965900D03*
D38*
X143385100Y-100965900D03*
X142210100Y-100965900D03*
D39*
X141035100Y-100965900D03*
D40*
X146047600Y-95528400D03*
X145547600Y-95528400D03*
X145047600Y-95528400D03*
X144547600Y-95528400D03*
X144047600Y-95528400D03*
X143547600Y-95528400D03*
X143047600Y-95528400D03*
X142547600Y-95528400D03*
X142047600Y-95528400D03*
X141547600Y-95528400D03*
X141047600Y-95528400D03*
X140547600Y-95528400D03*
X140047600Y-95528400D03*
X139547600Y-95528400D03*
D41*
X138860100Y-96215900D03*
X138860100Y-96715900D03*
X138860100Y-97215900D03*
X138860100Y-97715900D03*
X138860100Y-98215900D03*
X138860100Y-98715900D03*
X138860100Y-99215900D03*
X138860100Y-99715900D03*
X138860100Y-100215900D03*
X138860100Y-100715900D03*
X138860100Y-101215900D03*
X138860100Y-101715900D03*
X138860100Y-102215900D03*
X138860100Y-102715900D03*
D40*
X139547600Y-103403400D03*
X140047600Y-103403400D03*
X140547600Y-103403400D03*
X141047600Y-103403400D03*
X141547600Y-103403400D03*
X142047600Y-103403400D03*
X142547600Y-103403400D03*
X143047600Y-103403400D03*
X143547600Y-103403400D03*
X144047600Y-103403400D03*
X144547600Y-103403400D03*
X145047600Y-103403400D03*
X145547600Y-103403400D03*
X146047600Y-103403400D03*
D41*
X146735100Y-102715900D03*
X146735100Y-102215900D03*
X146735100Y-101715900D03*
X146735100Y-101215900D03*
X146735100Y-100715900D03*
X146735100Y-100215900D03*
X146735100Y-99715900D03*
X146735100Y-99215900D03*
X146735100Y-98715900D03*
X146735100Y-98215900D03*
X146735100Y-97715900D03*
X146735100Y-97215900D03*
X146735100Y-96715900D03*
X146735100Y-96215900D03*
%TD*%
D15*
%TO.C,TP1*%
X150431500Y-134188200D03*
%TD*%
D22*
%TO.C,D4*%
X134277100Y-134338300D03*
X134277100Y-132463300D03*
%TD*%
D12*
%TO.C,C13*%
X146047600Y-105589400D03*
X146047600Y-106549400D03*
%TD*%
D28*
%TO.C,H1*%
X163857600Y-70260900D03*
%TD*%
D22*
%TO.C,D3*%
X137477500Y-134334600D03*
X137477500Y-132459600D03*
%TD*%
D24*
%TO.C,C7*%
X140309600Y-93519200D03*
X140309600Y-92559200D03*
%TD*%
D28*
%TO.C,H3*%
X163857600Y-133760900D03*
%TD*%
%TO.C,H2*%
X121737600Y-70260900D03*
%TD*%
D12*
%TO.C,C3*%
X151625300Y-125831600D03*
X151625300Y-126791600D03*
%TD*%
D30*
%TO.C,R10*%
X150014400Y-103403400D03*
X148994400Y-103403400D03*
%TD*%
D42*
%TO.C,SW2*%
X131123000Y-68410000D03*
X131123000Y-72560000D03*
X128973000Y-68410000D03*
X128973000Y-72535000D03*
%TD*%
D43*
%TO.C,TP4*%
X131394200Y-122021600D03*
%TD*%
%TO.C,TP5*%
X133959600Y-114960400D03*
%TD*%
D13*
%TO.C,C16*%
X149024400Y-102362000D03*
X149984400Y-102362000D03*
%TD*%
D42*
%TO.C,SW1*%
X154042800Y-72560000D03*
X154042800Y-68410000D03*
X156192800Y-72560000D03*
X156192800Y-68435000D03*
%TD*%
D17*
%TO.C,J1*%
X141518000Y-80663800D03*
D44*
X144018000Y-80663800D03*
X144018000Y-78663800D03*
X141518000Y-78663800D03*
D45*
X136748000Y-75953800D03*
X148788000Y-75953800D03*
%TD*%
D30*
%TO.C,R2*%
X152668700Y-129641600D03*
X151648700Y-129641600D03*
%TD*%
D12*
%TO.C,C2*%
X149250400Y-87025600D03*
X149250400Y-87985600D03*
%TD*%
D46*
%TO.C,F1*%
X138597200Y-88950800D03*
X140472200Y-88950800D03*
%TD*%
D27*
%TO.C,R6*%
X137477500Y-128219200D03*
X137477500Y-127199200D03*
%TD*%
D15*
%TO.C,TP3*%
X143548100Y-134188200D03*
%TD*%
D13*
%TO.C,C11*%
X145332200Y-117881400D03*
X146292200Y-117881400D03*
%TD*%
D17*
%TO.C,J3*%
X127899500Y-134426900D03*
D18*
X130439500Y-134426900D03*
%TD*%
D47*
%TO.C,Y1*%
X150661000Y-87977800D03*
X150661000Y-90177800D03*
X152361000Y-90177800D03*
X152361000Y-87977800D03*
%TD*%
D30*
%TO.C,R4*%
X153443400Y-117779800D03*
X152423400Y-117779800D03*
%TD*%
M02*
